<svg width="200" height="180" viewBox="0 0 200 180" fill="none" xmlns="http://www.w3.org/2000/svg">
<rect width="200" height="180" rx="20" fill="#F0F0F0"/>
<g clip-path="url(#clip0_22_793)">
<path d="M121.869 93.4358V98.6317C121.869 102.514 120.327 106.236 117.582 108.981C114.838 111.726 111.115 113.268 107.233 113.268H92.7672C88.8854 113.268 85.1626 111.726 82.4178 108.981C79.6729 106.236 78.1309 102.514 78.1309 98.6317V93.4358C78.1309 95.446 78.5268 97.4364 79.2961 99.2936C80.0653 101.151 81.1928 102.838 82.6142 104.26C84.0356 105.681 85.7231 106.809 87.5803 107.578C89.4374 108.347 91.4279 108.743 93.4381 108.743H106.562C110.622 108.743 114.515 107.13 117.386 104.26C120.257 101.389 121.869 97.4955 121.869 93.4358Z" fill="#14B8A6"/>
<path d="M107.233 114.5H92.7672C88.5619 114.5 84.5289 112.829 81.5553 109.856C78.5817 106.882 76.9111 102.849 76.9111 98.6439V60.4308C76.9111 56.2255 78.5817 52.1924 81.5553 49.2188C84.5289 46.2453 88.5619 44.5747 92.7672 44.5747H107.233C111.438 44.5747 115.471 46.2453 118.445 49.2188C121.418 52.1924 123.089 56.2255 123.089 60.4308V98.6439C123.089 102.849 121.418 106.882 118.445 109.856C115.471 112.829 111.438 114.5 107.233 114.5ZM92.7672 47.0141C89.2089 47.0141 85.7963 48.4276 83.2802 50.9438C80.7641 53.4599 79.3505 56.8725 79.3505 60.4308V98.6439C79.3505 102.202 80.7641 105.615 83.2802 108.131C85.7963 110.647 89.2089 112.061 92.7672 112.061H107.233C110.791 112.061 114.204 110.647 116.72 108.131C119.236 105.615 120.65 102.202 120.65 98.6439V60.4308C120.65 56.8725 119.236 53.4599 116.72 50.9438C114.204 48.4276 110.791 47.0141 107.233 47.0141H92.7672Z" fill="#111827"/>
<path d="M100 72.2862C98.8203 72.2829 97.6898 71.8129 96.8556 70.9787C96.0214 70.1445 95.5513 69.014 95.5481 67.8343V58.3572C95.5165 57.7538 95.608 57.1502 95.8172 56.5833C96.0263 56.0164 96.3487 55.4981 96.7646 55.0598C97.1806 54.6215 97.6814 54.2724 98.2365 54.0339C98.7917 53.7954 99.3897 53.6724 99.9939 53.6724C100.598 53.6724 101.196 53.7954 101.751 54.0339C102.306 54.2724 102.807 54.6215 103.223 55.0598C103.639 55.4981 103.961 56.0164 104.171 56.5833C104.38 57.1502 104.471 57.7538 104.44 58.3572V67.8343C104.44 69.0129 103.972 70.1434 103.14 70.9779C102.308 71.8125 101.179 72.2829 100 72.2862ZM100 56.3447C99.7357 56.3447 99.474 56.3968 99.2299 56.4979C98.9857 56.599 98.7638 56.7473 98.5769 56.9341C98.3901 57.121 98.2418 57.3429 98.1407 57.5871C98.0396 57.8312 97.9875 58.0929 97.9875 58.3572V67.8343C97.9659 68.1109 98.0018 68.389 98.0928 68.6511C98.1839 68.9132 98.3281 69.1537 98.5165 69.3574C98.7049 69.5611 98.9335 69.7236 99.1877 69.8348C99.442 69.9459 99.7164 70.0033 99.9939 70.0033C100.271 70.0033 100.546 69.9459 100.8 69.8348C101.054 69.7236 101.283 69.5611 101.471 69.3574C101.66 69.1537 101.804 68.9132 101.895 68.6511C101.986 68.389 102.022 68.1109 102 67.8343V58.3572C102.002 58.0935 101.951 57.8321 101.852 57.588C101.752 57.3439 101.605 57.1219 101.419 56.9349C101.233 56.7478 101.012 56.5994 100.768 56.4981C100.525 56.3968 100.264 56.3447 100 56.3447Z" fill="#111827"/>
<path d="M100 56.2594C99.8506 56.261 99.7023 56.2328 99.564 56.1764C99.4256 56.1199 99.2999 56.0364 99.1943 55.9308C99.0886 55.8251 99.0051 55.6994 98.9487 55.5611C98.8923 55.4227 98.864 55.2745 98.8657 55.1251V42.9281H84.4001C84.0992 42.9281 83.8107 42.8086 83.598 42.5958C83.3852 42.3831 83.2657 42.0946 83.2657 41.7938V35.5855C83.2657 35.2847 83.3852 34.9961 83.598 34.7834C83.8107 34.5707 84.0992 34.4512 84.4001 34.4512C84.7009 34.4512 84.9894 34.5707 85.2021 34.7834C85.4148 34.9961 85.5344 35.2847 85.5344 35.5855V40.6594H100C100.149 40.6594 100.296 40.6888 100.434 40.7458C100.572 40.8028 100.697 40.8863 100.802 40.9917C100.907 41.097 100.991 41.2221 101.048 41.3597C101.105 41.4973 101.134 41.6448 101.134 41.7938V55.0763C101.141 55.2293 101.116 55.382 101.062 55.5254C101.008 55.6687 100.926 55.7995 100.82 55.9101C100.714 56.0206 100.587 56.1086 100.446 56.1686C100.305 56.2286 100.153 56.2595 100 56.2594Z" fill="#111827"/>
<path d="M103.22 59.5037H96.7434C96.4426 59.5037 96.1541 59.3842 95.9413 59.1715C95.7286 58.9588 95.6091 58.6703 95.6091 58.3694C95.6091 58.0686 95.7286 57.7801 95.9413 57.5673C96.1541 57.3546 96.4426 57.2351 96.7434 57.2351H103.196C103.496 57.2351 103.785 57.3546 103.998 57.5673C104.21 57.7801 104.33 58.0686 104.33 58.3694C104.33 58.6703 104.21 58.9588 103.998 59.1715C103.785 59.3842 103.496 59.5037 103.196 59.5037H103.22Z" fill="#111827"/>
<path d="M103.22 64.2362H96.7434C96.4426 64.2362 96.1541 64.1167 95.9413 63.9039C95.7286 63.6912 95.6091 63.4027 95.6091 63.1018C95.6091 62.801 95.7286 62.5125 95.9413 62.2998C96.1541 62.087 96.4426 61.9675 96.7434 61.9675H103.196C103.496 61.9675 103.785 62.087 103.998 62.2998C104.21 62.5125 104.33 62.801 104.33 63.1018C104.33 63.4027 104.21 63.6912 103.998 63.9039C103.785 64.1167 103.496 64.2362 103.196 64.2362H103.22Z" fill="#111827"/>
<path d="M103.22 69.1639H96.7434C96.4426 69.1639 96.1541 69.0444 95.9413 68.8317C95.7286 68.6189 95.6091 68.3304 95.6091 68.0296C95.6091 67.7288 95.7286 67.4402 95.9413 67.2275C96.1541 67.0148 96.4426 66.8953 96.7434 66.8953H103.196C103.496 66.8953 103.785 67.0148 103.998 67.2275C104.21 67.4402 104.33 67.7288 104.33 68.0296C104.33 68.3304 104.21 68.6189 103.998 68.8317C103.785 69.0444 103.496 69.1639 103.196 69.1639H103.22Z" fill="#111827"/>
<path d="M100 75.7991C99.6992 75.7991 99.4107 75.6796 99.198 75.4668C98.9852 75.2541 98.8657 74.9656 98.8657 74.6647V71.0056C98.8657 70.7048 98.9852 70.4163 99.198 70.2036C99.4107 69.9908 99.6992 69.8713 100 69.8713C100.301 69.8713 100.589 69.9908 100.802 70.2036C101.015 70.4163 101.134 70.7048 101.134 71.0056V74.6647C101.134 74.8137 101.105 74.9612 101.048 75.0988C100.991 75.2365 100.907 75.3615 100.802 75.4668C100.697 75.5722 100.572 75.6557 100.434 75.7127C100.297 75.7697 100.149 75.7991 100 75.7991Z" fill="#111827"/>
</g>
<path d="M88.132 134.3V145.5H86.42V137.644L83.54 145.5H82.324L79.444 137.644V145.5H77.732V134.3H79.668L82.932 143.42L86.196 134.3H88.132ZM93.8714 145.66C92.6447 145.66 91.6794 145.292 90.9754 144.556C90.2714 143.809 89.9194 142.791 89.9194 141.5C89.9194 140.209 90.2714 139.196 90.9754 138.46C91.6794 137.713 92.6447 137.34 93.8714 137.34C95.098 137.34 96.0634 137.713 96.7674 138.46C97.482 139.196 97.8394 140.209 97.8394 141.5C97.8394 142.791 97.482 143.809 96.7674 144.556C96.0634 145.292 95.098 145.66 93.8714 145.66ZM93.8714 144.46C94.6074 144.46 95.1887 144.199 95.6154 143.676C96.042 143.143 96.2554 142.417 96.2554 141.5C96.2554 140.583 96.042 139.863 95.6154 139.34C95.1887 138.807 94.6074 138.54 93.8714 138.54C93.1247 138.54 92.5434 138.807 92.1274 139.34C91.7114 139.863 91.5034 140.583 91.5034 141.5C91.5034 142.417 91.7114 143.143 92.1274 143.676C92.5434 144.199 93.1247 144.46 93.8714 144.46ZM102.103 145.66C101.185 145.66 100.487 145.361 100.007 144.764C99.5373 144.156 99.3026 143.265 99.3026 142.092V137.5H100.887V142.108C100.887 142.876 101.02 143.447 101.287 143.82C101.553 144.193 101.959 144.38 102.503 144.38C103.143 144.38 103.671 144.14 104.087 143.66C104.513 143.18 104.727 142.572 104.727 141.836V137.5H106.311V143.692C106.311 144.268 106.359 144.871 106.455 145.5H104.967C104.881 145.041 104.833 144.567 104.823 144.076H104.775C104.561 144.567 104.209 144.956 103.719 145.244C103.239 145.521 102.7 145.66 102.103 145.66ZM110.53 145.66C109.9 145.66 109.335 145.532 108.834 145.276C108.332 145.02 107.98 144.679 107.778 144.252L108.786 143.564C108.967 143.841 109.212 144.06 109.522 144.22C109.831 144.38 110.167 144.46 110.53 144.46C110.946 144.46 111.287 144.343 111.554 144.108C111.831 143.873 111.97 143.575 111.97 143.212C111.97 142.924 111.863 142.689 111.65 142.508C111.436 142.316 111.042 142.113 110.466 141.9C109.538 141.548 108.882 141.191 108.498 140.828C108.124 140.455 107.938 139.996 107.938 139.452C107.938 138.812 108.188 138.3 108.69 137.916C109.202 137.532 109.879 137.34 110.722 137.34C111.266 137.34 111.762 137.452 112.21 137.676C112.658 137.9 113.01 138.215 113.266 138.62L112.322 139.324C112.14 139.068 111.911 138.876 111.634 138.748C111.367 138.609 111.068 138.54 110.738 138.54C110.375 138.54 110.076 138.62 109.842 138.78C109.618 138.94 109.506 139.148 109.506 139.404C109.506 139.671 109.623 139.895 109.858 140.076C110.092 140.247 110.551 140.465 111.234 140.732C112.087 141.063 112.684 141.409 113.026 141.772C113.378 142.124 113.554 142.583 113.554 143.148C113.554 143.905 113.276 144.513 112.722 144.972C112.167 145.431 111.436 145.66 110.53 145.66ZM122.231 142.108H116.535C116.621 142.833 116.85 143.383 117.223 143.756C117.607 144.129 118.13 144.316 118.791 144.316C119.73 144.316 120.487 143.948 121.063 143.212L121.943 144.06C121.634 144.561 121.191 144.956 120.615 145.244C120.039 145.521 119.405 145.66 118.711 145.66C117.517 145.66 116.583 145.297 115.911 144.572C115.25 143.836 114.919 142.817 114.919 141.516C114.919 140.215 115.255 139.196 115.927 138.46C116.599 137.713 117.522 137.34 118.695 137.34C119.805 137.34 120.669 137.708 121.287 138.444C121.917 139.169 122.231 140.188 122.231 141.5V142.108ZM120.727 140.86C120.727 140.167 120.541 139.623 120.167 139.228C119.794 138.833 119.282 138.636 118.631 138.636C118.023 138.636 117.538 138.839 117.175 139.244C116.813 139.649 116.594 140.225 116.519 140.972H120.727V140.86Z" fill="#111827"/>
<defs>
<clipPath id="clip0_22_793">
<rect width="46.1778" height="80" fill="white" transform="translate(76.9111 34.5)"/>
</clipPath>
</defs>
</svg>
