<svg width="200" height="180" viewBox="0 0 200 180" fill="none" xmlns="http://www.w3.org/2000/svg">
<rect width="200" height="180" rx="20" fill="#F0F0F0"/>
<g clip-path="url(#clip0_22_1126)">
<path d="M123.495 35.9285H76.1328C73.9042 35.9285 72.0977 37.7321 72.0977 39.957V40.9428C72.0977 43.1677 73.9042 44.9713 76.1328 44.9713H123.495C125.724 44.9713 127.53 43.1677 127.53 40.9428V39.957C127.53 37.7321 125.724 35.9285 123.495 35.9285Z" fill="#14B8A6"/>
<path d="M127.903 105.928H72.0977L73.5286 112.357H126.472L127.903 105.928Z" fill="#14B8A6"/>
<path d="M122.651 114.5H77.3628C75.5881 114.497 73.8871 113.907 72.6322 112.858C71.3773 111.81 70.6706 110.389 70.6667 108.907V40.0811C70.6706 38.5998 71.3777 37.1803 72.6331 36.1339C73.8884 35.0876 75.5894 34.5 77.3628 34.5H122.651C124.423 34.5 126.123 35.088 127.376 36.1347C128.629 37.1813 129.333 38.6009 129.333 40.0811V108.847C129.343 109.585 129.177 110.318 128.845 111.003C128.514 111.688 128.024 112.311 127.403 112.836C126.781 113.362 126.042 113.78 125.226 114.065C124.411 114.351 123.536 114.498 122.651 114.5ZM77.3628 36.9057C76.3533 36.9056 75.3848 37.2398 74.6696 37.835C73.9543 38.4302 73.5506 39.2378 73.5468 40.0811V108.847C73.5372 109.27 73.6289 109.691 73.8163 110.085C74.0038 110.479 74.2834 110.837 74.6387 111.14C74.994 111.442 75.4179 111.682 75.8857 111.846C76.3534 112.01 76.8556 112.094 77.3628 112.094H122.651C123.661 112.091 124.628 111.754 125.34 111.157C126.053 110.559 126.453 109.75 126.453 108.907V40.0811C126.453 39.2389 126.052 38.4312 125.34 37.8357C124.627 37.2402 123.66 36.9057 122.651 36.9057H77.3628Z" fill="#111827"/>
<path d="M120.347 42.5144C119.968 42.5144 119.604 42.3639 119.336 42.096C119.067 41.828 118.917 41.4647 118.917 41.0858C118.917 40.7069 119.067 40.3436 119.336 40.0756C119.604 39.8077 119.968 39.6572 120.347 39.6572C120.727 39.6572 121.091 39.8077 121.359 40.0756C121.628 40.3436 121.778 40.7069 121.778 41.0858C121.778 41.4647 121.628 41.828 121.359 42.096C121.091 42.3639 120.727 42.5144 120.347 42.5144Z" fill="#111827"/>
<path d="M115.955 42.5144C115.575 42.5144 115.211 42.3639 114.943 42.096C114.674 41.828 114.524 41.4647 114.524 41.0858C114.524 40.7069 114.674 40.3436 114.943 40.0756C115.211 39.8077 115.575 39.6572 115.955 39.6572C116.334 39.6572 116.698 39.8077 116.966 40.0756C117.235 40.3436 117.385 40.7069 117.385 41.0858C117.385 41.4647 117.235 41.828 116.966 42.096C116.698 42.3639 116.334 42.5144 115.955 42.5144Z" fill="#111827"/>
</g>
<path d="M68.732 134.3H72.428C73.9107 134.3 75.0253 134.753 75.772 135.66C76.5293 136.556 76.908 137.895 76.908 139.676C76.908 141.063 76.7373 142.183 76.396 143.036C76.0653 143.879 75.5373 144.503 74.812 144.908C74.0973 145.303 73.1533 145.5 71.98 145.5H68.732V134.3ZM72.236 144.076C73.26 144.076 74.0013 143.729 74.46 143.036C74.9293 142.343 75.164 141.223 75.164 139.676C75.164 138.311 74.94 137.313 74.492 136.684C74.044 136.044 73.3347 135.724 72.364 135.724H70.476V144.076H72.236ZM85.4345 142.108H79.7385C79.8238 142.833 80.0532 143.383 80.4265 143.756C80.8105 144.129 81.3332 144.316 81.9945 144.316C82.9332 144.316 83.6905 143.948 84.2665 143.212L85.1465 144.06C84.8372 144.561 84.3945 144.956 83.8185 145.244C83.2425 145.521 82.6078 145.66 81.9145 145.66C80.7198 145.66 79.7865 145.297 79.1145 144.572C78.4532 143.836 78.1225 142.817 78.1225 141.516C78.1225 140.215 78.4585 139.196 79.1305 138.46C79.8025 137.713 80.7252 137.34 81.8985 137.34C83.0078 137.34 83.8718 137.708 84.4905 138.444C85.1198 139.169 85.4345 140.188 85.4345 141.5V142.108ZM83.9305 140.86C83.9305 140.167 83.7438 139.623 83.3705 139.228C82.9972 138.833 82.4852 138.636 81.8345 138.636C81.2265 138.636 80.7412 138.839 80.3785 139.244C80.0158 139.649 79.7972 140.225 79.7225 140.972H83.9305V140.86ZM89.5609 145.66C88.9315 145.66 88.3662 145.532 87.8649 145.276C87.3635 145.02 87.0115 144.679 86.8089 144.252L87.8169 143.564C87.9982 143.841 88.2435 144.06 88.5529 144.22C88.8622 144.38 89.1982 144.46 89.5609 144.46C89.9769 144.46 90.3182 144.343 90.5849 144.108C90.8622 143.873 91.0009 143.575 91.0009 143.212C91.0009 142.924 90.8942 142.689 90.6809 142.508C90.4675 142.316 90.0729 142.113 89.4969 141.9C88.5689 141.548 87.9129 141.191 87.5289 140.828C87.1555 140.455 86.9689 139.996 86.9689 139.452C86.9689 138.812 87.2195 138.3 87.7209 137.916C88.2329 137.532 88.9102 137.34 89.7529 137.34C90.2969 137.34 90.7929 137.452 91.2409 137.676C91.6889 137.9 92.0409 138.215 92.2969 138.62L91.3529 139.324C91.1715 139.068 90.9422 138.876 90.6649 138.748C90.3982 138.609 90.0995 138.54 89.7689 138.54C89.4062 138.54 89.1075 138.62 88.8729 138.78C88.6489 138.94 88.5369 139.148 88.5369 139.404C88.5369 139.671 88.6542 139.895 88.8889 140.076C89.1235 140.247 89.5822 140.465 90.2649 140.732C91.1182 141.063 91.7155 141.409 92.0569 141.772C92.4089 142.124 92.5849 142.583 92.5849 143.148C92.5849 143.905 92.3075 144.513 91.7529 144.972C91.1982 145.431 90.4675 145.66 89.5609 145.66ZM99.2381 145.5L96.6941 141.58L95.5901 142.668V145.5H93.9901V133.628H95.5901V140.764L98.8541 137.5H100.79L97.7661 140.508L101.03 145.5H99.2381ZM105.109 145.66C104.363 145.66 103.776 145.436 103.349 144.988C102.933 144.529 102.725 143.9 102.725 143.1V138.716H101.285V137.5H102.725V135.388L104.245 134.94H104.309V137.5H106.597V138.716H104.309V142.908C104.309 143.431 104.411 143.815 104.613 144.06C104.827 144.305 105.147 144.428 105.573 144.428C106 144.428 106.379 144.364 106.709 144.236L106.805 145.372C106.411 145.564 105.845 145.66 105.109 145.66ZM111.387 145.66C110.16 145.66 109.195 145.292 108.491 144.556C107.787 143.809 107.435 142.791 107.435 141.5C107.435 140.209 107.787 139.196 108.491 138.46C109.195 137.713 110.16 137.34 111.387 137.34C112.614 137.34 113.579 137.713 114.283 138.46C114.998 139.196 115.355 140.209 115.355 141.5C115.355 142.791 114.998 143.809 114.283 144.556C113.579 145.292 112.614 145.66 111.387 145.66ZM111.387 144.46C112.123 144.46 112.704 144.199 113.131 143.676C113.558 143.143 113.771 142.417 113.771 141.5C113.771 140.583 113.558 139.863 113.131 139.34C112.704 138.807 112.123 138.54 111.387 138.54C110.64 138.54 110.059 138.807 109.643 139.34C109.227 139.863 109.019 140.583 109.019 141.5C109.019 142.417 109.227 143.143 109.643 143.676C110.059 144.199 110.64 144.46 111.387 144.46ZM116.866 139.548C116.866 138.801 116.845 138.119 116.802 137.5H118.274C118.306 137.863 118.322 138.263 118.322 138.7H118.354C118.589 138.284 118.93 137.953 119.378 137.708C119.837 137.463 120.338 137.34 120.882 137.34C121.906 137.34 122.712 137.713 123.298 138.46C123.885 139.196 124.178 140.209 124.178 141.5C124.178 142.78 123.874 143.793 123.266 144.54C122.669 145.287 121.853 145.66 120.818 145.66C120.285 145.66 119.81 145.564 119.394 145.372C118.989 145.169 118.69 144.887 118.498 144.524H118.45V149.372H116.866V139.548ZM120.53 144.46C121.17 144.46 121.672 144.193 122.034 143.66C122.408 143.127 122.594 142.391 122.594 141.452C122.594 140.524 122.418 139.815 122.066 139.324C121.714 138.833 121.213 138.588 120.562 138.588C119.944 138.588 119.437 138.785 119.042 139.18C118.648 139.564 118.45 140.071 118.45 140.7V142.22C118.45 142.871 118.642 143.409 119.026 143.836C119.421 144.252 119.922 144.46 120.53 144.46ZM127.998 145.66C127.369 145.66 126.804 145.532 126.302 145.276C125.801 145.02 125.449 144.679 125.246 144.252L126.254 143.564C126.436 143.841 126.681 144.06 126.99 144.22C127.3 144.38 127.636 144.46 127.998 144.46C128.414 144.46 128.756 144.343 129.022 144.108C129.3 143.873 129.438 143.575 129.438 143.212C129.438 142.924 129.332 142.689 129.118 142.508C128.905 142.316 128.51 142.113 127.934 141.9C127.006 141.548 126.35 141.191 125.966 140.828C125.593 140.455 125.406 139.996 125.406 139.452C125.406 138.812 125.657 138.3 126.158 137.916C126.67 137.532 127.348 137.34 128.19 137.34C128.734 137.34 129.23 137.452 129.678 137.676C130.126 137.9 130.478 138.215 130.734 138.62L129.79 139.324C129.609 139.068 129.38 138.876 129.102 138.748C128.836 138.609 128.537 138.54 128.206 138.54C127.844 138.54 127.545 138.62 127.31 138.78C127.086 138.94 126.974 139.148 126.974 139.404C126.974 139.671 127.092 139.895 127.326 140.076C127.561 140.247 128.02 140.465 128.702 140.732C129.556 141.063 130.153 141.409 130.494 141.772C130.846 142.124 131.022 142.583 131.022 143.148C131.022 143.905 130.745 144.513 130.19 144.972C129.636 145.431 128.905 145.66 127.998 145.66Z" fill="#111827"/>
<defs>
<clipPath id="clip0_22_1126">
<rect width="58.6667" height="80" fill="white" transform="translate(70.6667 34.5)"/>
</clipPath>
</defs>
</svg>
