<svg width="200" height="180" viewBox="0 0 200 180" fill="none" xmlns="http://www.w3.org/2000/svg">
<rect width="200" height="180" rx="20" fill="#F0F0F0"/>
<g clip-path="url(#clip0_22_1306)">
<path d="M99.9881 56.7168C96.4709 56.7168 93.0327 57.7598 90.1083 59.7138C87.1839 61.6678 84.9046 64.4452 83.5586 67.6946C82.2127 70.944 81.8605 74.5196 82.5467 77.9692C83.2328 81.4188 84.9265 84.5874 87.4135 87.0744C89.9005 89.5614 93.0691 91.2551 96.5187 91.9413C99.9683 92.6274 103.544 92.2753 106.793 90.9293C110.043 89.5834 112.82 87.3041 114.774 84.3796C116.728 81.4552 117.771 78.017 117.771 74.4999C117.771 69.7835 115.898 65.2603 112.563 61.9253C109.228 58.5904 104.704 56.7168 99.9881 56.7168ZM99.9881 82.6027C98.3855 82.6027 96.8189 82.1275 95.4864 81.2371C94.1539 80.3468 93.1154 79.0813 92.5021 77.6007C91.8888 76.1201 91.7283 74.4909 92.041 72.9191C92.3536 71.3473 93.1253 69.9035 94.2585 68.7704C95.3917 67.6372 96.8355 66.8654 98.4073 66.5528C99.9791 66.2402 101.608 66.4006 103.089 67.0139C104.569 67.6272 105.835 68.6657 106.725 69.9982C107.616 71.3307 108.091 72.8973 108.091 74.4999C108.092 75.5644 107.884 76.6188 107.477 77.6026C107.071 78.5863 106.474 79.4802 105.721 80.2329C104.968 80.9856 104.075 81.5824 103.091 81.9891C102.107 82.3957 101.053 82.6042 99.9881 82.6027Z" fill="#14B8A6"/>
<path d="M140.096 72.8087C140.188 78.119 139.221 83.3944 137.252 88.3271C135.284 93.2598 132.352 97.7511 128.629 101.539C124.906 105.327 120.467 108.335 115.569 110.389C110.671 112.442 105.413 113.5 100.102 113.5C94.7906 113.5 89.5327 112.442 84.6348 110.389C79.7369 108.335 75.2969 105.327 71.574 101.539C67.8512 97.7511 64.9198 93.2598 62.9512 88.3271C60.9825 83.3944 60.0159 78.119 60.1077 72.8087C60.1077 71.781 60.1077 70.7412 60.2152 69.7254C61.0116 79.7575 65.5592 89.1212 72.9515 95.9499C80.3439 102.779 90.038 106.571 100.102 106.571C110.165 106.571 119.86 102.779 127.252 95.9499C134.644 89.1212 139.192 79.7575 139.988 69.7254C140.06 70.7412 140.096 71.781 140.096 72.8087Z" fill="#14B8A6"/>
<path d="M99.988 34.488C92.0768 34.488 84.3432 36.834 77.7652 41.2292C71.1873 45.6245 66.0604 51.8717 63.0329 59.1807C60.0054 66.4897 59.2132 74.5324 60.7566 82.2917C62.3001 90.0509 66.1097 97.1782 71.7038 102.772C77.2979 108.366 84.4252 112.176 92.1844 113.719C99.9437 115.263 107.986 114.471 115.295 111.443C122.604 108.416 128.852 103.289 133.247 96.7109C137.642 90.1329 139.988 82.3993 139.988 74.488C139.988 63.8794 135.774 53.7052 128.272 46.2038C120.771 38.7023 110.597 34.488 99.988 34.488ZM99.988 112.265C90.0774 112.167 80.602 108.179 73.605 101.159C66.608 94.1399 62.6499 84.6518 62.5841 74.7409C62.5182 64.8299 66.3499 55.2901 73.253 48.1782C80.1561 41.0664 89.5776 36.9522 99.4861 36.7229H99.988C110.007 36.7229 119.616 40.703 126.701 47.7875C133.785 54.8721 137.765 64.4809 137.765 74.5C137.765 84.5191 133.785 94.1279 126.701 101.212C119.616 108.297 110.007 112.277 99.988 112.277V112.265Z" fill="#111827"/>
<path d="M69.1306 74.1894C68.8358 74.1894 68.5531 74.0723 68.3447 73.8638C68.1363 73.6554 68.0192 73.3727 68.0192 73.0779C68.0287 64.8938 71.284 57.0475 77.0711 51.2604C82.8582 45.4733 90.7044 42.218 98.8886 42.2085C99.1834 42.2085 99.4661 42.3256 99.6745 42.534C99.8829 42.7425 100 43.0252 100 43.3199C100 43.6147 99.8829 43.8974 99.6745 44.1058C99.4661 44.3143 99.1834 44.4314 98.8886 44.4314C91.2816 44.4314 83.9861 47.4533 78.6071 52.8323C73.2281 58.2113 70.2062 65.5067 70.2062 73.1138C70.1972 73.3962 70.081 73.6646 69.8812 73.8644C69.6814 74.0642 69.413 74.1804 69.1306 74.1894Z" fill="#111827"/>
<path d="M78.1416 73.9264C77.858 73.9299 77.584 73.8237 77.3769 73.6299C77.1698 73.4362 77.0455 73.1699 77.0301 72.8867C76.8445 69.8732 77.3288 66.8561 78.4483 64.0522C79.5677 61.2483 81.2946 58.7272 83.5046 56.6703C85.7147 54.6134 88.353 53.0717 91.23 52.1561C94.1069 51.2404 97.151 50.9736 100.143 51.3748C100.29 51.3945 100.432 51.4428 100.56 51.5171C100.688 51.5914 100.8 51.6901 100.89 51.8078C100.98 51.9254 101.045 52.0596 101.083 52.2027C101.122 52.3458 101.131 52.4949 101.111 52.6417C101.092 52.7884 101.043 52.9298 100.969 53.0579C100.895 53.186 100.796 53.2981 100.678 53.388C100.561 53.4779 100.427 53.5438 100.284 53.5818C100.14 53.6198 99.9913 53.6293 99.8446 53.6097C97.1824 53.2522 94.474 53.4884 91.9138 54.3013C89.3536 55.1142 87.0051 56.4837 85.0367 58.3116C83.0684 60.1394 81.529 62.3802 80.529 64.8733C79.5291 67.3664 79.0933 70.0499 79.253 72.7313C79.2644 72.8783 79.2464 73.026 79.2001 73.166C79.1538 73.306 79.0802 73.4353 78.9834 73.5466C78.8866 73.6578 78.7687 73.7486 78.6365 73.8139C78.5043 73.8791 78.3604 73.9173 78.2133 73.9264H78.1416Z" fill="#111827"/>
<path d="M104.004 107.389C103.709 107.389 103.426 107.272 103.218 107.064C103.009 106.855 102.892 106.572 102.892 106.278C102.892 105.983 103.009 105.7 103.218 105.492C103.426 105.283 103.709 105.166 104.004 105.166C111.611 105.166 118.906 102.144 124.285 96.7653C129.664 91.3863 132.686 84.0908 132.686 76.4837C132.686 76.189 132.803 75.9063 133.011 75.6978C133.22 75.4894 133.503 75.3723 133.797 75.3723C134.092 75.3723 134.375 75.4894 134.583 75.6978C134.792 75.9063 134.909 76.189 134.909 76.4837C134.909 84.6803 131.653 92.5412 125.857 98.3371C120.061 104.133 112.2 107.389 104.004 107.389Z" fill="#111827"/>
<path d="M105.103 98.3421H104.183C104.035 98.3363 103.889 98.3003 103.755 98.2362C103.621 98.172 103.502 98.0812 103.405 97.9692C103.307 97.8573 103.234 97.7266 103.189 97.5852C103.144 97.4438 103.128 97.2947 103.143 97.147C103.152 96.9999 103.19 96.856 103.256 96.7238C103.321 96.5916 103.412 96.4737 103.523 96.3769C103.634 96.2801 103.764 96.2065 103.903 96.1602C104.043 96.1139 104.191 96.0959 104.338 96.1073C107.027 96.278 109.72 95.8502 112.224 94.8545C114.727 93.8588 116.978 92.3201 118.815 90.3493C120.652 88.3785 122.029 86.0248 122.847 83.4576C123.665 80.8905 123.902 78.1739 123.543 75.5038C123.516 75.2194 123.601 74.9356 123.779 74.7126C123.958 74.4895 124.216 74.3446 124.5 74.3087C124.783 74.2846 125.066 74.3703 125.288 74.5482C125.51 74.7261 125.656 74.9826 125.695 75.2647C126.088 78.1814 125.846 81.1487 124.985 83.9629C124.124 86.7772 122.664 89.3718 120.705 91.5687C118.747 93.7656 116.336 95.5127 113.639 96.6901C110.942 97.8675 108.022 98.4474 105.079 98.3899L105.103 98.3421Z" fill="#111827"/>
<path d="M99.9881 56.7168C96.4709 56.7168 93.0327 57.7598 90.1083 59.7138C87.1839 61.6678 84.9046 64.4452 83.5586 67.6946C82.2127 70.944 81.8605 74.5196 82.5467 77.9692C83.2328 81.4188 84.9265 84.5874 87.4135 87.0744C89.9005 89.5614 93.0691 91.2551 96.5187 91.9413C99.9683 92.6274 103.544 92.2753 106.793 90.9293C110.043 89.5834 112.82 87.3041 114.774 84.3796C116.728 81.4552 117.771 78.017 117.771 74.4999C117.771 69.7835 115.898 65.2603 112.563 61.9253C109.228 58.5904 104.704 56.7168 99.9881 56.7168ZM99.9881 90.0601C96.9396 90.0581 93.9591 89.1593 91.4178 87.4757C88.8764 85.7921 86.8865 83.3981 85.6959 80.5918C84.5053 77.7855 84.1665 74.6909 84.7219 71.6935C85.2772 68.696 86.7021 65.9282 88.8191 63.7347C90.936 61.5412 93.6516 60.019 96.6274 59.3576C99.6032 58.6962 102.708 58.9248 105.555 60.0151C108.401 61.1053 110.865 63.009 112.637 65.489C114.41 67.9689 115.414 70.9156 115.524 73.9621C115.56 74.1275 115.56 74.2986 115.524 74.464C115.532 76.5093 115.136 78.536 114.359 80.4279C113.582 82.3197 112.439 84.0395 110.995 85.4885C109.552 86.9375 107.836 88.0873 105.947 88.8718C104.059 89.6563 102.033 90.0601 99.9881 90.0601Z" fill="#111827"/>
<path d="M99.988 66.3972C98.3854 66.3972 96.8189 66.8724 95.4864 67.7628C94.1539 68.6531 93.1153 69.9186 92.5021 71.3992C91.8888 72.8798 91.7283 74.509 92.0409 76.0808C92.3536 77.6526 93.1253 79.0963 94.2585 80.2295C95.3917 81.3627 96.8355 82.1344 98.4073 82.4471C99.9791 82.7597 101.608 82.5993 103.089 81.986C104.569 81.3727 105.835 80.3342 106.725 79.0017C107.616 77.6692 108.091 76.1026 108.091 74.5C108.091 72.351 107.237 70.29 105.718 68.7705C104.198 67.2509 102.137 66.3972 99.988 66.3972ZM99.988 80.3799C98.4286 80.3799 96.933 79.7604 95.8303 78.6577C94.7276 77.555 94.1082 76.0594 94.1082 74.5C94.1082 72.9405 94.7276 71.445 95.8303 70.3423C96.933 69.2396 98.4286 68.6201 99.988 68.6201H100.096C100.163 68.6143 100.231 68.6143 100.299 68.6201C101.815 68.7158 103.235 69.3958 104.26 70.517C105.285 71.6382 105.835 73.1132 105.795 74.6319C105.755 76.1505 105.127 77.5943 104.044 78.6596C102.961 79.725 101.507 80.3288 99.988 80.344V80.3799Z" fill="#111827"/>
</g>
<path d="M60.472 145.66C59.4693 145.66 58.5947 145.425 57.848 144.956C57.112 144.487 56.5413 143.82 56.136 142.956C55.7307 142.092 55.528 141.073 55.528 139.9C55.528 138.727 55.7307 137.708 56.136 136.844C56.5413 135.98 57.1173 135.313 57.864 134.844C58.6213 134.375 59.5067 134.14 60.52 134.14C61.3413 134.14 62.072 134.3 62.712 134.62C63.352 134.94 63.8213 135.388 64.12 135.964L63.128 136.892C62.552 136.007 61.6933 135.564 60.552 135.564C59.5067 135.564 58.7013 135.943 58.136 136.7C57.5707 137.447 57.288 138.513 57.288 139.9C57.288 141.276 57.5653 142.343 58.12 143.1C58.6747 143.857 59.4587 144.236 60.472 144.236C61.0907 144.236 61.6187 144.129 62.056 143.916C62.4933 143.692 62.8507 143.356 63.128 142.908L64.12 143.836C63.8107 144.412 63.336 144.86 62.696 145.18C62.0667 145.5 61.3253 145.66 60.472 145.66ZM69.0589 145.66C67.8322 145.66 66.8669 145.292 66.1629 144.556C65.4589 143.809 65.1069 142.791 65.1069 141.5C65.1069 140.209 65.4589 139.196 66.1629 138.46C66.8669 137.713 67.8322 137.34 69.0589 137.34C70.2855 137.34 71.2509 137.713 71.9549 138.46C72.6695 139.196 73.0269 140.209 73.0269 141.5C73.0269 142.791 72.6695 143.809 71.9549 144.556C71.2509 145.292 70.2855 145.66 69.0589 145.66ZM69.0589 144.46C69.7949 144.46 70.3762 144.199 70.8029 143.676C71.2295 143.143 71.4429 142.417 71.4429 141.5C71.4429 140.583 71.2295 139.863 70.8029 139.34C70.3762 138.807 69.7949 138.54 69.0589 138.54C68.3122 138.54 67.7309 138.807 67.3149 139.34C66.8989 139.863 66.6909 140.583 66.6909 141.5C66.6909 142.417 66.8989 143.143 67.3149 143.676C67.7309 144.199 68.3122 144.46 69.0589 144.46ZM74.4901 139.548C74.4901 138.737 74.4635 138.055 74.4101 137.5H75.8181C75.8608 137.895 75.8821 138.364 75.8821 138.908H75.9301C76.1328 138.428 76.4581 138.049 76.9061 137.772C77.3648 137.484 77.8821 137.34 78.4581 137.34C79.0235 137.34 79.5088 137.479 79.9141 137.756C80.3195 138.023 80.5915 138.401 80.7301 138.892C80.9541 138.412 81.2901 138.033 81.7381 137.756C82.1968 137.479 82.7088 137.34 83.2741 137.34C84.1595 137.34 84.8475 137.628 85.3381 138.204C85.8395 138.769 86.0901 139.553 86.0901 140.556V145.5H84.5061V140.7C84.5061 140.039 84.3621 139.527 84.0741 139.164C83.7968 138.801 83.3968 138.62 82.8741 138.62C82.3408 138.62 81.9035 138.817 81.5621 139.212C81.2315 139.596 81.0661 140.097 81.0661 140.716V145.5H79.4981V140.764C79.4981 139.335 78.9755 138.62 77.9301 138.62C77.5888 138.62 77.2741 138.716 76.9861 138.908C76.7088 139.1 76.4848 139.361 76.3141 139.692C76.1435 140.023 76.0581 140.38 76.0581 140.764V145.5H74.4901V139.548ZM87.9913 139.548C87.9913 138.801 87.9699 138.119 87.9273 137.5H89.3993C89.4313 137.863 89.4473 138.263 89.4473 138.7H89.4793C89.7139 138.284 90.0553 137.953 90.5033 137.708C90.9619 137.463 91.4633 137.34 92.0073 137.34C93.0313 137.34 93.8366 137.713 94.4233 138.46C95.0099 139.196 95.3033 140.209 95.3033 141.5C95.3033 142.78 94.9993 143.793 94.3913 144.54C93.7939 145.287 92.9779 145.66 91.9433 145.66C91.4099 145.66 90.9353 145.564 90.5193 145.372C90.1139 145.169 89.8153 144.887 89.6233 144.524H89.5753V149.372H87.9913V139.548ZM91.6553 144.46C92.2953 144.46 92.7966 144.193 93.1593 143.66C93.5326 143.127 93.7193 142.391 93.7193 141.452C93.7193 140.524 93.5433 139.815 93.1913 139.324C92.8393 138.833 92.3379 138.588 91.6873 138.588C91.0686 138.588 90.5619 138.785 90.1673 139.18C89.7726 139.564 89.5753 140.071 89.5753 140.7V142.22C89.5753 142.871 89.7673 143.409 90.1513 143.836C90.5459 144.252 91.0473 144.46 91.6553 144.46ZM100.371 145.66C99.1447 145.66 98.1794 145.292 97.4754 144.556C96.7714 143.809 96.4194 142.791 96.4194 141.5C96.4194 140.209 96.7714 139.196 97.4754 138.46C98.1794 137.713 99.1447 137.34 100.371 137.34C101.598 137.34 102.563 137.713 103.267 138.46C103.982 139.196 104.339 140.209 104.339 141.5C104.339 142.791 103.982 143.809 103.267 144.556C102.563 145.292 101.598 145.66 100.371 145.66ZM100.371 144.46C101.107 144.46 101.689 144.199 102.115 143.676C102.542 143.143 102.755 142.417 102.755 141.5C102.755 140.583 102.542 139.863 102.115 139.34C101.689 138.807 101.107 138.54 100.371 138.54C99.6247 138.54 99.0434 138.807 98.6274 139.34C98.2114 139.863 98.0034 140.583 98.0034 141.5C98.0034 142.417 98.2114 143.143 98.6274 143.676C99.0434 144.199 99.6247 144.46 100.371 144.46ZM105.787 139.548C105.787 138.556 105.765 137.873 105.723 137.5H107.195C107.248 137.895 107.275 138.364 107.275 138.908H107.323C107.536 138.428 107.883 138.049 108.363 137.772C108.853 137.484 109.397 137.34 109.995 137.34C111.872 137.34 112.811 138.556 112.811 140.988V145.5H111.227V140.972C111.227 140.172 111.093 139.58 110.827 139.196C110.56 138.812 110.149 138.62 109.595 138.62C108.944 138.62 108.411 138.855 107.995 139.324C107.579 139.793 107.371 140.391 107.371 141.116V145.5H105.787V139.548ZM121.622 142.108H115.926C116.011 142.833 116.241 143.383 116.614 143.756C116.998 144.129 117.521 144.316 118.182 144.316C119.121 144.316 119.878 143.948 120.454 143.212L121.334 144.06C121.025 144.561 120.582 144.956 120.006 145.244C119.43 145.521 118.795 145.66 118.102 145.66C116.907 145.66 115.974 145.297 115.302 144.572C114.641 143.836 114.31 142.817 114.31 141.516C114.31 140.215 114.646 139.196 115.318 138.46C115.99 137.713 116.913 137.34 118.086 137.34C119.195 137.34 120.059 137.708 120.678 138.444C121.307 139.169 121.622 140.188 121.622 141.5V142.108ZM120.118 140.86C120.118 140.167 119.931 139.623 119.558 139.228C119.185 138.833 118.673 138.636 118.022 138.636C117.414 138.636 116.929 138.839 116.566 139.244C116.203 139.649 115.985 140.225 115.91 140.972H120.118V140.86ZM123.068 139.548C123.068 138.556 123.047 137.873 123.004 137.5H124.476C124.529 137.895 124.556 138.364 124.556 138.908H124.604C124.817 138.428 125.164 138.049 125.644 137.772C126.135 137.484 126.679 137.34 127.276 137.34C129.153 137.34 130.092 138.556 130.092 140.988V145.5H128.508V140.972C128.508 140.172 128.375 139.58 128.108 139.196C127.841 138.812 127.431 138.62 126.876 138.62C126.225 138.62 125.692 138.855 125.276 139.324C124.86 139.793 124.652 140.391 124.652 141.116V145.5H123.068V139.548ZM135.031 145.66C134.285 145.66 133.698 145.436 133.271 144.988C132.855 144.529 132.647 143.9 132.647 143.1V138.716H131.207V137.5H132.647V135.388L134.167 134.94H134.231V137.5H136.519V138.716H134.231V142.908C134.231 143.431 134.333 143.815 134.535 144.06C134.749 144.305 135.069 144.428 135.495 144.428C135.922 144.428 136.301 144.364 136.631 144.236L136.727 145.372C136.333 145.564 135.767 145.66 135.031 145.66ZM140.545 145.66C139.916 145.66 139.351 145.532 138.849 145.276C138.348 145.02 137.996 144.679 137.793 144.252L138.801 143.564C138.983 143.841 139.228 144.06 139.537 144.22C139.847 144.38 140.183 144.46 140.545 144.46C140.961 144.46 141.303 144.343 141.569 144.108C141.847 143.873 141.985 143.575 141.985 143.212C141.985 142.924 141.879 142.689 141.665 142.508C141.452 142.316 141.057 142.113 140.481 141.9C139.553 141.548 138.897 141.191 138.513 140.828C138.14 140.455 137.953 139.996 137.953 139.452C137.953 138.812 138.204 138.3 138.705 137.916C139.217 137.532 139.895 137.34 140.737 137.34C141.281 137.34 141.777 137.452 142.225 137.676C142.673 137.9 143.025 138.215 143.281 138.62L142.337 139.324C142.156 139.068 141.927 138.876 141.649 138.748C141.383 138.609 141.084 138.54 140.753 138.54C140.391 138.54 140.092 138.62 139.857 138.78C139.633 138.94 139.521 139.148 139.521 139.404C139.521 139.671 139.639 139.895 139.873 140.076C140.108 140.247 140.567 140.465 141.249 140.732C142.103 141.063 142.7 141.409 143.041 141.772C143.393 142.124 143.569 142.583 143.569 143.148C143.569 143.905 143.292 144.513 142.737 144.972C142.183 145.431 141.452 145.66 140.545 145.66Z" fill="#111827"/>
<defs>
<clipPath id="clip0_22_1306">
<rect width="80" height="80" fill="white" transform="translate(60 34.5)"/>
</clipPath>
</defs>
</svg>
