<svg width="200" height="180" viewBox="0 0 200 180" fill="none" xmlns="http://www.w3.org/2000/svg">
<rect width="200" height="180" rx="20" fill="#F0F0F0"/>
<g clip-path="url(#clip0_22_839)">
<path d="M132.702 106.571C132.424 106.632 132.14 106.663 131.855 106.663C130.716 106.663 129.624 106.211 128.818 105.405C128.012 104.6 127.56 103.507 127.56 102.368V73.9304C127.562 73.3616 127.676 72.7989 127.897 72.2746C128.117 71.7503 128.439 71.2749 128.844 70.8756C129.249 70.4763 129.729 70.1611 130.257 69.9481C130.784 69.7352 131.348 69.6287 131.917 69.6348C132.202 69.635 132.486 69.666 132.764 69.7271C132.273 69.8404 131.824 70.0914 131.47 70.4508C131.211 70.7091 131.005 71.0162 130.865 71.3545C130.725 71.6928 130.654 72.0554 130.654 72.4215V103.876C130.648 104.489 130.845 105.087 131.216 105.575C131.587 106.063 132.11 106.413 132.702 106.571Z" fill="#14B8A6"/>
<path d="M67.7908 106.571C68.0741 106.632 68.3631 106.663 68.653 106.663C69.791 106.659 70.8812 106.205 71.6859 105.401C72.4906 104.596 72.9445 103.506 72.9486 102.368V73.9304C72.9445 72.7924 72.4906 71.7021 71.6859 70.8974C70.8812 70.0927 69.791 69.6388 68.653 69.6348C68.3631 69.6351 68.0741 69.666 67.7908 69.7271C68.2881 69.8359 68.7429 70.0874 69.0995 70.4508C69.6178 70.9763 69.9106 71.6834 69.9155 72.4215V103.876C69.9154 104.499 69.7057 105.103 69.3203 105.592C68.9348 106.081 68.3961 106.426 67.7908 106.571Z" fill="#14B8A6"/>
<path d="M68.5759 53.0373C70.2234 53.8995 75.0887 47.7255 81.509 43.5838C86.1591 40.6589 91.5206 39.0616 97.0132 38.9649H102.741C107.447 39.2645 112.056 40.4339 116.336 42.4137C121.34 44.7082 125.777 48.0779 129.33 52.2829C129.456 52.4199 129.575 52.5638 129.684 52.714C130.327 51.8918 130.646 50.8627 130.58 49.8215C130.515 48.7802 130.07 47.799 129.33 47.0635C125.823 43.5311 121.648 40.7308 117.049 38.8251C112.45 36.9195 107.519 35.9465 102.541 35.9626H97.4597C92.3236 35.9595 87.2412 37.0074 82.5252 39.0419C77.121 41.3514 71.7476 43.0142 70.0078 47.7717C69.2688 49.7886 67.5906 52.5138 68.5759 53.0373Z" fill="#14B8A6"/>
<path d="M65.3888 106.278H63.8492C59.7411 106.27 55.8039 104.633 52.9005 101.727C49.9971 98.8209 48.3644 94.882 48.3604 90.774V85.5084C48.3644 81.4017 49.9976 77.4644 52.9014 74.5606C55.8053 71.6568 59.7425 70.0236 63.8492 70.0195H65.3888V106.278ZM62.3095 73.1912C59.3091 73.5697 56.5496 75.0295 54.5485 77.2971C52.5474 79.5646 51.4421 82.4841 51.4396 85.5084V90.774C51.4487 93.7964 52.5563 96.7124 54.5562 98.9785C56.5561 101.245 59.3117 102.706 62.3095 103.091V73.1912Z" fill="#111827"/>
<path d="M68.1448 108.187C66.5984 108.183 65.1166 107.567 64.0232 106.474C62.9297 105.38 62.3136 103.898 62.3096 102.352V73.9302C62.3096 72.3826 62.9243 70.8984 64.0186 69.8041C65.113 68.7098 66.5972 68.095 68.1448 68.095C69.6924 68.095 71.1767 68.7098 72.271 69.8041C73.3653 70.8984 73.9801 72.3826 73.9801 73.9302V102.352C73.9801 103.9 73.3653 105.384 72.271 106.478C71.1767 107.573 69.6924 108.187 68.1448 108.187ZM68.1448 71.2358C67.4139 71.2358 66.7129 71.5262 66.196 72.0431C65.6792 72.5599 65.3889 73.2609 65.3889 73.9918V102.352C65.3889 103.083 65.6792 103.784 66.196 104.301C66.7129 104.818 67.4139 105.108 68.1448 105.108C68.8757 105.108 69.5768 104.818 70.0936 104.301C70.6104 103.784 70.9008 103.083 70.9008 102.352V73.9302C70.9008 73.1993 70.6104 72.4983 70.0936 71.9815C69.5768 71.4646 68.8757 71.1743 68.1448 71.1743V71.2358Z" fill="#111827"/>
<path d="M136.151 106.278H134.611V70.0195H136.151C140.258 70.0236 144.195 71.6568 147.099 74.5606C150.003 77.4644 151.636 81.4017 151.64 85.5084V90.774C151.636 94.882 150.003 98.8209 147.1 101.727C144.196 104.633 140.259 106.27 136.151 106.278ZM137.691 73.1912V103.107C140.688 102.722 143.444 101.26 145.444 98.9939C147.444 96.7278 148.551 93.8118 148.561 90.7894V85.5084C148.558 82.4841 147.453 79.5646 145.452 77.2971C143.45 75.0295 140.691 73.5697 137.691 73.1912Z" fill="#111827"/>
<path d="M131.917 108.187C130.369 108.187 128.885 107.573 127.791 106.478C126.696 105.384 126.082 103.9 126.082 102.352V73.9302C126.082 72.3826 126.696 70.8984 127.791 69.8041C128.885 68.7098 130.369 68.095 131.917 68.095C133.465 68.095 134.949 68.7098 136.043 69.8041C137.137 70.8984 137.752 72.3826 137.752 73.9302V102.352C137.748 103.898 137.132 105.38 136.039 106.474C134.945 107.567 133.463 108.183 131.917 108.187ZM131.917 71.2358C131.186 71.2358 130.485 71.5262 129.968 72.0431C129.451 72.5599 129.161 73.2609 129.161 73.9918V102.352C129.161 103.083 129.451 103.784 129.968 104.301C130.485 104.818 131.186 105.108 131.917 105.108C132.648 105.108 133.349 104.818 133.866 104.301C134.383 103.784 134.673 103.083 134.673 102.352V73.9302C134.673 73.1993 134.383 72.4983 133.866 71.9815C133.349 71.4646 132.648 71.1743 131.917 71.1743V71.2358Z" fill="#111827"/>
<path d="M137.691 73.9302H134.611C134.607 73.2972 134.387 72.6846 133.986 72.1944C133.586 71.7042 133.029 71.366 132.41 71.2358L126.251 69.9733L132.286 68.2489C132.632 68.1503 132.989 68.0986 133.349 68.095C134.496 68.095 135.597 68.5508 136.408 69.3621C137.219 70.1735 137.675 71.2739 137.675 72.4214L137.691 73.9302Z" fill="#111827"/>
<path d="M133.364 108.203C133.005 108.199 132.647 108.148 132.302 108.049L126.266 106.325L132.425 105.062C133.044 104.932 133.601 104.594 134.001 104.103C134.402 103.613 134.623 103.001 134.627 102.368H137.706V103.907C137.698 105.052 137.236 106.147 136.422 106.952C135.609 107.757 134.509 108.207 133.364 108.203Z" fill="#111827"/>
<path d="M136.151 75.3623C135.962 75.3644 135.775 75.3287 135.601 75.2575C135.426 75.1863 135.267 75.0809 135.134 74.9475C135.001 74.8141 134.895 74.6555 134.824 74.4808C134.753 74.3062 134.717 74.119 134.719 73.9304C134.743 66.8104 132.379 59.888 128.006 54.2691C127.87 54.1241 127.766 53.9522 127.7 53.7645C127.634 53.5768 127.607 53.3774 127.623 53.179C127.638 52.9806 127.695 52.7876 127.789 52.6123C127.883 52.437 128.012 52.2832 128.169 52.1607C128.326 52.0383 128.507 51.9498 128.7 51.9011C128.892 51.8523 129.093 51.8443 129.29 51.8775C129.486 51.9108 129.673 51.9845 129.839 52.0941C130.005 52.2037 130.146 52.3467 130.254 52.5139C135.026 58.6307 137.607 66.1724 137.583 73.9304C137.583 74.1185 137.546 74.3047 137.474 74.4784C137.402 74.6521 137.296 74.8099 137.164 74.9429C137.031 75.0759 136.873 75.1813 136.699 75.2533C136.525 75.3253 136.339 75.3623 136.151 75.3623Z" fill="#111827"/>
<path d="M63.8645 75.3623C63.6759 75.3644 63.4888 75.3287 63.3141 75.2575C63.1395 75.1863 62.9808 75.0809 62.8474 74.9475C62.714 74.8141 62.6087 74.6555 62.5374 74.4808C62.4662 74.3062 62.4306 74.119 62.4326 73.9304C62.4048 66.4763 64.7864 59.2127 69.2225 53.2222C69.3255 53.0517 69.4629 52.9046 69.626 52.7902C69.7891 52.6759 69.9742 52.5968 70.1696 52.5581C70.365 52.5194 70.5663 52.5218 70.7607 52.5653C70.9551 52.6088 71.1382 52.6924 71.2985 52.8107C71.4587 52.929 71.5925 53.0794 71.6913 53.2524C71.7901 53.4253 71.8518 53.617 71.8723 53.8151C71.8928 54.0132 71.8718 54.2134 71.8105 54.403C71.7493 54.5925 71.6491 54.7672 71.5165 54.9158C67.4779 60.4297 65.3188 67.0958 65.3579 73.9304C65.3581 74.1238 65.3192 74.3151 65.2434 74.493C65.1676 74.6709 65.0566 74.8315 64.917 74.9653C64.7775 75.0991 64.6123 75.2033 64.4314 75.2715C64.2505 75.3397 64.0576 75.3706 63.8645 75.3623Z" fill="#111827"/>
<path d="M73.1179 56.594C71.9745 56.5986 70.8552 56.2664 69.8995 55.6387C68.9438 55.0111 68.1941 54.1158 67.7441 53.0647C67.2941 52.0136 67.1637 50.8533 67.3691 49.7285C67.5746 48.6038 68.1068 47.5644 68.8993 46.7403C72.5691 42.8546 76.9974 39.7634 81.91 37.658C86.8226 35.5526 92.115 34.4778 97.4597 34.5001H102.541C107.713 34.4915 112.836 35.5074 117.614 37.4894C122.392 39.4713 126.73 42.38 130.377 46.0474C131.472 47.1418 132.086 48.626 132.086 50.1737C132.086 51.7213 131.472 53.2056 130.377 54.2999C129.283 55.3943 127.799 56.0091 126.251 56.0091C124.703 56.0091 123.219 55.3943 122.125 54.2999C119.555 51.7099 116.497 49.6562 113.127 48.258C109.757 46.8598 106.143 46.1451 102.494 46.1552H97.4135C93.6489 46.1401 89.9213 46.899 86.4623 48.3849C83.0032 49.8707 79.8865 52.0518 77.3057 54.7926C76.7659 55.3607 76.1164 55.8133 75.3966 56.1229C74.6767 56.4325 73.9015 56.5928 73.1179 56.594ZM97.4597 37.5794C92.5325 37.5585 87.6535 38.5493 83.1248 40.4906C78.5961 42.4318 74.5142 45.2821 71.1317 48.865C70.6246 49.3942 70.3478 50.1029 70.3619 50.8357C70.3688 51.198 70.4488 51.5552 70.5969 51.8859C70.7451 52.2166 70.9584 52.514 71.2241 52.7603C71.7603 53.2496 72.4647 53.5132 73.1903 53.496C73.916 53.4788 74.6071 53.1821 75.1194 52.6679C77.9877 49.6242 81.4507 47.2023 85.2936 45.5523C89.1366 43.9023 93.2775 43.0594 97.4597 43.0759H102.541C106.594 43.0677 110.608 43.862 114.353 45.4132C118.097 46.9644 121.497 49.2417 124.357 52.1136C124.61 52.3838 124.914 52.6003 125.252 52.7504C125.59 52.9005 125.955 52.9811 126.324 52.9873C126.694 52.9936 127.061 52.9254 127.404 52.7868C127.747 52.6481 128.058 52.442 128.32 52.1805C128.581 51.9191 128.787 51.6077 128.926 51.2649C129.064 50.9221 129.133 50.5549 129.126 50.1853C129.12 49.8156 129.04 49.4509 128.889 49.113C128.739 48.7751 128.523 48.4708 128.253 48.2183C124.884 44.8324 120.876 42.1485 116.463 40.3223C112.049 38.4961 107.317 37.5638 102.541 37.5794H97.4597Z" fill="#111827"/>
</g>
<path d="M68.716 134.3H70.46V139.116H75.468V134.3H77.212V145.5H75.468V140.54H70.46V145.5H68.716V134.3ZM86.2939 142.108H80.5979C80.6832 142.833 80.9125 143.383 81.2859 143.756C81.6699 144.129 82.1925 144.316 82.8539 144.316C83.7925 144.316 84.5499 143.948 85.1259 143.212L86.0059 144.06C85.6965 144.561 85.2539 144.956 84.6779 145.244C84.1019 145.521 83.4672 145.66 82.7739 145.66C81.5792 145.66 80.6459 145.297 79.9739 144.572C79.3125 143.836 78.9819 142.817 78.9819 141.516C78.9819 140.215 79.3179 139.196 79.9899 138.46C80.6619 137.713 81.5845 137.34 82.7579 137.34C83.8672 137.34 84.7312 137.708 85.3499 138.444C85.9792 139.169 86.2939 140.188 86.2939 141.5V142.108ZM84.7899 140.86C84.7899 140.167 84.6032 139.623 84.2299 139.228C83.8565 138.833 83.3445 138.636 82.6939 138.636C82.0859 138.636 81.6005 138.839 81.2379 139.244C80.8752 139.649 80.6565 140.225 80.5819 140.972H84.7899V140.86ZM90.1398 145.66C89.6171 145.66 89.1478 145.553 88.7318 145.34C88.3264 145.127 88.0064 144.833 87.7718 144.46C87.5478 144.076 87.4358 143.644 87.4358 143.164C87.4358 142.353 87.7451 141.735 88.3638 141.308C88.9824 140.871 89.8624 140.652 91.0038 140.652H92.5078V140.252C92.5078 139.719 92.3638 139.308 92.0758 139.02C91.7878 138.732 91.3664 138.588 90.8118 138.588C90.3318 138.588 89.8838 138.684 89.4678 138.876C89.0518 139.057 88.7104 139.324 88.4438 139.676L87.6918 138.732C88.0758 138.284 88.5398 137.943 89.0838 137.708C89.6384 137.463 90.2358 137.34 90.8758 137.34C91.8998 137.34 92.6944 137.591 93.2598 138.092C93.8251 138.583 94.1078 139.281 94.1078 140.188V143.9C94.1078 144.38 94.1718 144.913 94.2998 145.5H92.9078C92.8011 145.244 92.7264 144.887 92.6838 144.428H92.6518C92.0438 145.249 91.2064 145.66 90.1398 145.66ZM90.4438 144.428C91.0198 144.428 91.5051 144.273 91.8998 143.964C92.3051 143.644 92.5078 143.26 92.5078 142.812V141.756H90.9398C90.3104 141.756 89.8251 141.879 89.4838 142.124C89.1531 142.359 88.9878 142.705 88.9878 143.164C88.9878 143.559 89.1158 143.868 89.3718 144.092C89.6384 144.316 89.9958 144.428 90.4438 144.428ZM99.0126 145.66C97.9673 145.66 97.146 145.276 96.5486 144.508C95.9513 143.74 95.6526 142.689 95.6526 141.356C95.6526 140.545 95.7913 139.841 96.0686 139.244C96.346 138.636 96.7406 138.167 97.2526 137.836C97.7646 137.505 98.362 137.34 99.0446 137.34C100.005 137.34 100.773 137.724 101.349 138.492H101.381V133.628H102.965V143.452C102.965 144.476 102.981 145.159 103.013 145.5H101.541C101.519 145.265 101.509 144.865 101.509 144.3H101.477C101.231 144.705 100.885 145.036 100.437 145.292C99.9886 145.537 99.514 145.66 99.0126 145.66ZM99.2686 144.412C99.9086 144.412 100.421 144.225 100.805 143.852C101.189 143.468 101.381 142.951 101.381 142.3V140.78C101.381 140.119 101.183 139.58 100.789 139.164C100.405 138.748 99.898 138.54 99.2686 138.54C98.6286 138.54 98.1273 138.791 97.7646 139.292C97.4126 139.783 97.2366 140.481 97.2366 141.388C97.2366 142.337 97.4126 143.079 97.7646 143.612C98.1273 144.145 98.6286 144.412 99.2686 144.412ZM107.155 145.66C106.525 145.66 105.96 145.532 105.459 145.276C104.957 145.02 104.605 144.679 104.403 144.252L105.411 143.564C105.592 143.841 105.837 144.06 106.147 144.22C106.456 144.38 106.792 144.46 107.155 144.46C107.571 144.46 107.912 144.343 108.179 144.108C108.456 143.873 108.595 143.575 108.595 143.212C108.595 142.924 108.488 142.689 108.275 142.508C108.061 142.316 107.667 142.113 107.091 141.9C106.163 141.548 105.507 141.191 105.123 140.828C104.749 140.455 104.563 139.996 104.563 139.452C104.563 138.812 104.813 138.3 105.315 137.916C105.827 137.532 106.504 137.34 107.347 137.34C107.891 137.34 108.387 137.452 108.835 137.676C109.283 137.9 109.635 138.215 109.891 138.62L108.947 139.324C108.765 139.068 108.536 138.876 108.259 138.748C107.992 138.609 107.693 138.54 107.363 138.54C107 138.54 106.701 138.62 106.467 138.78C106.243 138.94 106.131 139.148 106.131 139.404C106.131 139.671 106.248 139.895 106.483 140.076C106.717 140.247 107.176 140.465 107.859 140.732C108.712 141.063 109.309 141.409 109.651 141.772C110.003 142.124 110.179 142.583 110.179 143.148C110.179 143.905 109.901 144.513 109.347 144.972C108.792 145.431 108.061 145.66 107.155 145.66ZM118.856 142.108H113.16C113.246 142.833 113.475 143.383 113.848 143.756C114.232 144.129 114.755 144.316 115.416 144.316C116.355 144.316 117.112 143.948 117.688 143.212L118.568 144.06C118.259 144.561 117.816 144.956 117.24 145.244C116.664 145.521 116.03 145.66 115.336 145.66C114.142 145.66 113.208 145.297 112.536 144.572C111.875 143.836 111.544 142.817 111.544 141.516C111.544 140.215 111.88 139.196 112.552 138.46C113.224 137.713 114.147 137.34 115.32 137.34C116.43 137.34 117.294 137.708 117.912 138.444C118.542 139.169 118.856 140.188 118.856 141.5V142.108ZM117.352 140.86C117.352 140.167 117.166 139.623 116.792 139.228C116.419 138.833 115.907 138.636 115.256 138.636C114.648 138.636 114.163 138.839 113.8 139.244C113.438 139.649 113.219 140.225 113.144 140.972H117.352V140.86ZM123.406 145.66C122.66 145.66 122.073 145.436 121.646 144.988C121.23 144.529 121.022 143.9 121.022 143.1V138.716H119.582V137.5H121.022V135.388L122.542 134.94H122.606V137.5H124.894V138.716H122.606V142.908C122.606 143.431 122.708 143.815 122.91 144.06C123.124 144.305 123.444 144.428 123.87 144.428C124.297 144.428 124.676 144.364 125.006 144.236L125.102 145.372C124.708 145.564 124.142 145.66 123.406 145.66ZM128.92 145.66C128.291 145.66 127.726 145.532 127.224 145.276C126.723 145.02 126.371 144.679 126.168 144.252L127.176 143.564C127.358 143.841 127.603 144.06 127.912 144.22C128.222 144.38 128.558 144.46 128.92 144.46C129.336 144.46 129.678 144.343 129.944 144.108C130.222 143.873 130.36 143.575 130.36 143.212C130.36 142.924 130.254 142.689 130.04 142.508C129.827 142.316 129.432 142.113 128.856 141.9C127.928 141.548 127.272 141.191 126.888 140.828C126.515 140.455 126.328 139.996 126.328 139.452C126.328 138.812 126.579 138.3 127.08 137.916C127.592 137.532 128.27 137.34 129.112 137.34C129.656 137.34 130.152 137.452 130.6 137.676C131.048 137.9 131.4 138.215 131.656 138.62L130.712 139.324C130.531 139.068 130.302 138.876 130.024 138.748C129.758 138.609 129.459 138.54 129.128 138.54C128.766 138.54 128.467 138.62 128.232 138.78C128.008 138.94 127.896 139.148 127.896 139.404C127.896 139.671 128.014 139.895 128.248 140.076C128.483 140.247 128.942 140.465 129.624 140.732C130.478 141.063 131.075 141.409 131.416 141.772C131.768 142.124 131.944 142.583 131.944 143.148C131.944 143.905 131.667 144.513 131.112 144.972C130.558 145.431 129.827 145.66 128.92 145.66Z" fill="#111827"/>
<defs>
<clipPath id="clip0_22_839">
<rect width="103.279" height="80" fill="white" transform="translate(48.3604 34.5)"/>
</clipPath>
</defs>
</svg>
