<svg width="200" height="180" viewBox="0 0 200 180" fill="none" xmlns="http://www.w3.org/2000/svg">
<rect width="200" height="180" rx="20" fill="#F0F0F0"/>
<g clip-path="url(#clip0_22_1134)">
<path d="M112.757 107.543H82.9639C82.5872 107.543 82.2259 107.394 81.9595 107.127C81.6931 106.861 81.5435 106.5 81.5435 106.123V102.335H114.195V105.977C114.216 106.177 114.194 106.379 114.131 106.57C114.068 106.761 113.965 106.936 113.829 107.084C113.693 107.232 113.527 107.35 113.342 107.429C113.157 107.508 112.958 107.547 112.757 107.543Z" fill="#14B8A6"/>
<path d="M149.156 40.5H51.156V48.5H149.156V40.5Z" fill="#14B8A6"/>
<path d="M156.153 104.156H43.7742V34.5H156.08L156.153 104.156ZM47.4163 100.514H152.438V38.1422H47.4163V100.514Z" fill="#111827"/>
<path d="M149.156 104.5H51.156V40.5H149.156V104.5ZM54.6061 100.944H145.706V44.0556H54.6061V100.944Z" fill="#111827"/>
<path d="M155.625 114.5H44.3934C42.8865 114.5 41.4413 113.901 40.3758 112.836C39.3103 111.77 38.7117 110.325 38.7117 108.818V100.514H161.288V108.745C161.298 109.496 161.159 110.241 160.879 110.938C160.599 111.634 160.183 112.269 159.657 112.804C159.13 113.339 158.503 113.764 157.811 114.055C157.119 114.347 156.376 114.498 155.625 114.5ZM42.3538 104.156V108.745C42.3538 109.286 42.5687 109.805 42.9512 110.188C43.3337 110.57 43.8525 110.785 44.3934 110.785H155.625C156.163 110.78 156.677 110.563 157.055 110.181C157.434 109.799 157.646 109.283 157.646 108.745V104.156H42.3538Z" fill="#111827"/>
<path d="M112.757 109.365H82.9639C82.1042 109.365 81.2798 109.023 80.6719 108.415C80.064 107.807 79.7224 106.983 79.7224 106.123V100.514H116.017V105.977C116.034 106.416 115.962 106.854 115.806 107.264C115.65 107.674 115.412 108.049 115.108 108.365C114.804 108.682 114.438 108.933 114.034 109.105C113.63 109.277 113.196 109.365 112.757 109.365ZM83.3646 105.722H112.374V104.156H83.3646V105.722Z" fill="#111827"/>
</g>
<path d="M73.1769 134.3H74.9209V144.076H80.2969V145.5H73.1769V134.3ZM83.8038 145.66C83.2811 145.66 82.8118 145.553 82.3958 145.34C81.9905 145.127 81.6705 144.833 81.4358 144.46C81.2118 144.076 81.0998 143.644 81.0998 143.164C81.0998 142.353 81.4091 141.735 82.0278 141.308C82.6465 140.871 83.5265 140.652 84.6678 140.652H86.1718V140.252C86.1718 139.719 86.0278 139.308 85.7398 139.02C85.4518 138.732 85.0305 138.588 84.4758 138.588C83.9958 138.588 83.5478 138.684 83.1318 138.876C82.7158 139.057 82.3745 139.324 82.1078 139.676L81.3558 138.732C81.7398 138.284 82.2038 137.943 82.7478 137.708C83.3025 137.463 83.8998 137.34 84.5398 137.34C85.5638 137.34 86.3585 137.591 86.9238 138.092C87.4891 138.583 87.7718 139.281 87.7718 140.188V143.9C87.7718 144.38 87.8358 144.913 87.9638 145.5H86.5718C86.4651 145.244 86.3905 144.887 86.3478 144.428H86.3158C85.7078 145.249 84.8705 145.66 83.8038 145.66ZM84.1078 144.428C84.6838 144.428 85.1691 144.273 85.5638 143.964C85.9691 143.644 86.1718 143.26 86.1718 142.812V141.756H84.6038C83.9745 141.756 83.4891 141.879 83.1478 142.124C82.8171 142.359 82.6518 142.705 82.6518 143.164C82.6518 143.559 82.7798 143.868 83.0358 144.092C83.3025 144.316 83.6598 144.428 84.1078 144.428ZM89.7647 139.548C89.7647 138.801 89.7434 138.119 89.7007 137.5H91.1727C91.2047 137.863 91.2207 138.263 91.2207 138.7H91.2527C91.4874 138.284 91.8287 137.953 92.2767 137.708C92.7354 137.463 93.2367 137.34 93.7807 137.34C94.8047 137.34 95.61 137.713 96.1967 138.46C96.7834 139.196 97.0767 140.209 97.0767 141.5C97.0767 142.78 96.7727 143.793 96.1647 144.54C95.5674 145.287 94.7514 145.66 93.7167 145.66C93.1834 145.66 92.7087 145.564 92.2927 145.372C91.8874 145.169 91.5887 144.887 91.3967 144.524H91.3487V149.372H89.7647V139.548ZM93.4287 144.46C94.0687 144.46 94.57 144.193 94.9327 143.66C95.306 143.127 95.4927 142.391 95.4927 141.452C95.4927 140.524 95.3167 139.815 94.9647 139.324C94.6127 138.833 94.1114 138.588 93.4607 138.588C92.842 138.588 92.3354 138.785 91.9407 139.18C91.546 139.564 91.3487 140.071 91.3487 140.7V142.22C91.3487 142.871 91.5407 143.409 91.9247 143.836C92.3194 144.252 92.8207 144.46 93.4287 144.46ZM101.633 145.66C100.886 145.66 100.299 145.436 99.8728 144.988C99.4568 144.529 99.2488 143.9 99.2488 143.1V138.716H97.8088V137.5H99.2488V135.388L100.769 134.94H100.833V137.5H103.121V138.716H100.833V142.908C100.833 143.431 100.934 143.815 101.137 144.06C101.35 144.305 101.67 144.428 102.097 144.428C102.523 144.428 102.902 144.364 103.233 144.236L103.329 145.372C102.934 145.564 102.369 145.66 101.633 145.66ZM107.91 145.66C106.684 145.66 105.718 145.292 105.014 144.556C104.31 143.809 103.958 142.791 103.958 141.5C103.958 140.209 104.31 139.196 105.014 138.46C105.718 137.713 106.684 137.34 107.91 137.34C109.137 137.34 110.102 137.713 110.806 138.46C111.521 139.196 111.878 140.209 111.878 141.5C111.878 142.791 111.521 143.809 110.806 144.556C110.102 145.292 109.137 145.66 107.91 145.66ZM107.91 144.46C108.646 144.46 109.228 144.199 109.654 143.676C110.081 143.143 110.294 142.417 110.294 141.5C110.294 140.583 110.081 139.863 109.654 139.34C109.228 138.807 108.646 138.54 107.91 138.54C107.164 138.54 106.582 138.807 106.166 139.34C105.75 139.863 105.542 140.583 105.542 141.5C105.542 142.417 105.75 143.143 106.166 143.676C106.582 144.199 107.164 144.46 107.91 144.46ZM113.39 139.548C113.39 138.801 113.368 138.119 113.326 137.5H114.798C114.83 137.863 114.846 138.263 114.846 138.7H114.878C115.112 138.284 115.454 137.953 115.902 137.708C116.36 137.463 116.862 137.34 117.406 137.34C118.43 137.34 119.235 137.713 119.822 138.46C120.408 139.196 120.702 140.209 120.702 141.5C120.702 142.78 120.398 143.793 119.79 144.54C119.192 145.287 118.376 145.66 117.342 145.66C116.808 145.66 116.334 145.564 115.918 145.372C115.512 145.169 115.214 144.887 115.022 144.524H114.974V149.372H113.39V139.548ZM117.054 144.46C117.694 144.46 118.195 144.193 118.558 143.66C118.931 143.127 119.118 142.391 119.118 141.452C119.118 140.524 118.942 139.815 118.59 139.324C118.238 138.833 117.736 138.588 117.086 138.588C116.467 138.588 115.96 138.785 115.566 139.18C115.171 139.564 114.974 140.071 114.974 140.7V142.22C114.974 142.871 115.166 143.409 115.55 143.836C115.944 144.252 116.446 144.46 117.054 144.46ZM124.522 145.66C123.892 145.66 123.327 145.532 122.826 145.276C122.324 145.02 121.972 144.679 121.77 144.252L122.778 143.564C122.959 143.841 123.204 144.06 123.514 144.22C123.823 144.38 124.159 144.46 124.522 144.46C124.938 144.46 125.279 144.343 125.546 144.108C125.823 143.873 125.962 143.575 125.962 143.212C125.962 142.924 125.855 142.689 125.642 142.508C125.428 142.316 125.034 142.113 124.458 141.9C123.53 141.548 122.874 141.191 122.49 140.828C122.116 140.455 121.93 139.996 121.93 139.452C121.93 138.812 122.18 138.3 122.682 137.916C123.194 137.532 123.871 137.34 124.714 137.34C125.258 137.34 125.754 137.452 126.202 137.676C126.65 137.9 127.002 138.215 127.258 138.62L126.314 139.324C126.132 139.068 125.903 138.876 125.626 138.748C125.359 138.609 125.06 138.54 124.73 138.54C124.367 138.54 124.068 138.62 123.834 138.78C123.61 138.94 123.498 139.148 123.498 139.404C123.498 139.671 123.615 139.895 123.85 140.076C124.084 140.247 124.543 140.465 125.226 140.732C126.079 141.063 126.676 141.409 127.018 141.772C127.37 142.124 127.546 142.583 127.546 143.148C127.546 143.905 127.268 144.513 126.714 144.972C126.159 145.431 125.428 145.66 124.522 145.66Z" fill="#111827"/>
<defs>
<clipPath id="clip0_22_1134">
<rect width="122.577" height="80" fill="white" transform="translate(38.7117 34.5)"/>
</clipPath>
</defs>
</svg>
