<svg width="200" height="180" viewBox="0 0 200 180" fill="none" xmlns="http://www.w3.org/2000/svg">
<rect width="200" height="180" rx="20" fill="#F0F0F0"/>
<g clip-path="url(#clip0_22_871)">
<path d="M100.007 91.9975C95.5145 91.9975 91.2058 90.2157 88.0257 87.0431C84.8455 83.8705 83.0536 79.566 83.043 75.0739V52.7849V78.7976C83.1668 83.2125 85.0077 87.405 88.1742 90.484C91.3408 93.5629 95.5833 95.2854 99.9999 95.2854C104.417 95.2854 108.659 93.5629 111.826 90.484C114.992 87.405 116.833 83.2125 116.957 78.7976V75.0739C116.946 79.5637 115.156 83.8661 111.979 87.0384C108.802 90.2106 104.496 91.9939 100.007 91.9975Z" fill="#14B8A6"/>
<path d="M100.007 108.707C99.8437 108.707 99.6822 108.675 99.5317 108.613C99.3811 108.551 99.2442 108.459 99.1289 108.344C99.0137 108.229 98.9223 108.092 98.8599 107.941C98.7975 107.791 98.7654 107.629 98.7654 107.466V95.7478C98.7654 95.4186 98.8962 95.1029 99.1289 94.8701C99.3617 94.6374 99.6775 94.5066 100.007 94.5066C100.336 94.5066 100.652 94.6374 100.884 94.8701C101.117 95.1029 101.248 95.4186 101.248 95.7478V107.466C101.248 107.629 101.216 107.791 101.153 107.941C101.091 108.092 101 108.229 100.884 108.344C100.769 108.459 100.632 108.551 100.482 108.613C100.331 108.675 100.17 108.707 100.007 108.707Z" fill="#111827"/>
<path d="M117.958 109.949H82.042C81.7128 109.949 81.3971 109.818 81.1643 109.585C80.9316 109.352 80.8008 109.037 80.8008 108.708C80.8008 108.378 80.9316 108.063 81.1643 107.83C81.3971 107.597 81.7128 107.466 82.042 107.466H117.958C118.287 107.466 118.603 107.597 118.836 107.83C119.068 108.063 119.199 108.378 119.199 108.708C119.199 109.037 119.068 109.352 118.836 109.585C118.603 109.818 118.287 109.949 117.958 109.949Z" fill="#111827"/>
<path d="M116.597 58.524H109.923C109.594 58.524 109.278 58.3932 109.046 58.1604C108.813 57.9277 108.682 57.6119 108.682 57.2827C108.682 56.9535 108.813 56.6378 109.046 56.4051C109.278 56.1723 109.594 56.0415 109.923 56.0415H116.597C116.926 56.0415 117.241 56.1723 117.474 56.4051C117.707 56.6378 117.838 56.9535 117.838 57.2827C117.838 57.6119 117.707 57.9277 117.474 58.1604C117.241 58.3932 116.926 58.524 116.597 58.524Z" fill="#111827"/>
<path d="M116.597 67.1861H109.923C109.594 67.1861 109.278 67.0553 109.046 66.8225C108.813 66.5898 108.682 66.2741 108.682 65.9449C108.682 65.6157 108.813 65.2999 109.046 65.0672C109.278 64.8344 109.594 64.7036 109.923 64.7036H116.597C116.926 64.7036 117.241 64.8344 117.474 65.0672C117.707 65.2999 117.838 65.6157 117.838 65.9449C117.838 66.2741 117.707 66.5898 117.474 66.8225C117.241 67.0553 116.926 67.1861 116.597 67.1861Z" fill="#111827"/>
<path d="M116.597 75.5276H109.923C109.594 75.5276 109.278 75.3969 109.046 75.1641C108.813 74.9313 108.682 74.6156 108.682 74.2864C108.682 73.9572 108.813 73.6415 109.046 73.4087C109.278 73.1759 109.594 73.0452 109.923 73.0452H116.597C116.926 73.0452 117.241 73.1759 117.474 73.4087C117.707 73.6415 117.838 73.9572 117.838 74.2864C117.838 74.6156 117.707 74.9313 117.474 75.1641C117.241 75.3969 116.926 75.5276 116.597 75.5276Z" fill="#111827"/>
<path d="M90.1034 58.524H83.4301C83.1009 58.524 82.7851 58.3932 82.5524 58.1604C82.3196 57.9277 82.1888 57.6119 82.1888 57.2827C82.1888 56.9535 82.3196 56.6378 82.5524 56.4051C82.7851 56.1723 83.1009 56.0415 83.4301 56.0415H90.1034C90.4326 56.0415 90.7483 56.1723 90.9811 56.4051C91.2139 56.6378 91.3446 56.9535 91.3446 57.2827C91.3446 57.6119 91.2139 57.9277 90.9811 58.1604C90.7483 58.3932 90.4326 58.524 90.1034 58.524Z" fill="#111827"/>
<path d="M90.1034 67.1861H83.4301C83.1009 67.1861 82.7851 67.0553 82.5524 66.8225C82.3196 66.5898 82.1888 66.2741 82.1888 65.9449C82.1888 65.6157 82.3196 65.2999 82.5524 65.0672C82.7851 64.8344 83.1009 64.7036 83.4301 64.7036H90.1034C90.4326 64.7036 90.7483 64.8344 90.9811 65.0672C91.2139 65.2999 91.3446 65.6157 91.3446 65.9449C91.3446 66.2741 91.2139 66.5898 90.9811 66.8225C90.7483 67.0553 90.4326 67.1861 90.1034 67.1861Z" fill="#111827"/>
<path d="M90.1034 75.5276H83.4301C83.1009 75.5276 82.7851 75.3969 82.5524 75.1641C82.3196 74.9313 82.1888 74.6156 82.1888 74.2864C82.1888 73.9572 82.3196 73.6415 82.5524 73.4087C82.7851 73.1759 83.1009 73.0452 83.4301 73.0452H90.1034C90.4326 73.0452 90.7483 73.1759 90.9811 73.4087C91.2139 73.6415 91.3446 73.9572 91.3446 74.2864C91.3446 74.6156 91.2139 74.9313 90.9811 75.1641C90.7483 75.3969 90.4326 75.5276 90.1034 75.5276Z" fill="#111827"/>
<path d="M100.007 97.0825C95.1571 97.079 90.5069 95.1518 87.0765 91.7239C83.646 88.2959 81.7154 83.6472 81.7084 78.7976V52.7849C81.8371 48.0192 83.8208 43.4919 87.2371 40.1666C90.6534 36.8414 95.2326 34.9807 100 34.9807C104.767 34.9807 109.347 36.8414 112.763 40.1666C116.179 43.4919 118.163 48.0192 118.292 52.7849V78.7976C118.285 83.6449 116.356 88.2916 112.928 91.7192C109.501 95.1467 104.854 97.0754 100.007 97.0825ZM100.007 37.1693C95.864 37.1693 91.8907 38.814 88.9601 41.7422C86.0294 44.6703 84.3812 48.6421 84.3777 52.7849V78.7976C84.4965 82.8618 86.1945 86.7198 89.1113 89.5525C92.0281 92.3853 95.934 93.9698 100 93.9698C104.066 93.9698 107.972 92.3853 110.889 89.5525C113.806 86.7198 115.503 82.8618 115.622 78.7976V52.7849C115.619 48.6444 113.972 44.6746 111.045 41.7469C108.117 38.8191 104.147 37.1728 100.007 37.1693Z" fill="#111827"/>
<path d="M100.754 102.875H99.2459C93.3437 102.868 87.6854 100.52 83.5119 96.3468C79.3384 92.1734 76.9907 86.515 76.9836 80.6128C76.9836 80.2836 77.1144 79.9679 77.3472 79.7351C77.5799 79.5024 77.8957 79.3716 78.2249 79.3716C78.5541 79.3716 78.8698 79.5024 79.1025 79.7351C79.3353 79.9679 79.4661 80.2836 79.4661 80.6128C79.4626 85.8635 81.5441 90.9008 85.2531 94.6173C88.9622 98.3339 93.9952 100.426 99.2459 100.433H100.754C106.005 100.426 111.038 98.3339 114.747 94.6173C118.456 90.9008 120.537 85.8635 120.534 80.6128C120.534 80.2836 120.665 79.9679 120.897 79.7351C121.13 79.5024 121.446 79.3716 121.775 79.3716C122.104 79.3716 122.42 79.5024 122.653 79.7351C122.886 79.9679 123.016 80.2836 123.016 80.6128C123.009 86.515 120.662 92.1734 116.488 96.3468C112.315 100.52 106.656 102.868 100.754 102.875Z" fill="#111827"/>
<path d="M126.5 114.487H73.5001C73.1709 114.487 72.8553 114.356 72.6225 114.123C72.3897 113.89 72.2589 113.575 72.2589 113.245C72.2589 112.916 72.3897 112.6 72.6225 112.368C72.8553 112.135 73.1709 112.004 73.5001 112.004H126.5C126.829 112.004 127.145 112.135 127.378 112.368C127.61 112.6 127.741 112.916 127.741 113.245C127.741 113.575 127.61 113.89 127.378 114.123C127.145 114.356 126.829 114.487 126.5 114.487Z" fill="#111827"/>
</g>
<path d="M66.132 134.3V145.5H64.42V137.644L61.54 145.5H60.324L57.444 137.644V145.5H55.732V134.3H57.668L60.932 143.42L64.196 134.3H66.132ZM69.3914 136.268C69.0607 136.268 68.7994 136.177 68.6074 135.996C68.4154 135.815 68.3194 135.569 68.3194 135.26C68.3194 134.951 68.4154 134.705 68.6074 134.524C68.7994 134.343 69.0607 134.252 69.3914 134.252C69.722 134.252 69.9834 134.343 70.1754 134.524C70.378 134.705 70.4794 134.951 70.4794 135.26C70.4794 135.569 70.378 135.815 70.1754 135.996C69.9834 136.177 69.722 136.268 69.3914 136.268ZM68.6074 137.5H70.1914V145.5H68.6074V137.5ZM75.7579 145.66C74.5525 145.66 73.6139 145.292 72.9419 144.556C72.2699 143.82 71.9339 142.801 71.9339 141.5C71.9339 140.188 72.2699 139.169 72.9419 138.444C73.6139 137.708 74.5525 137.34 75.7579 137.34C76.4512 137.34 77.0592 137.473 77.5819 137.74C78.1152 138.007 78.5312 138.391 78.8299 138.892L77.8859 139.74C77.6619 139.377 77.3685 139.095 77.0059 138.892C76.6432 138.689 76.2485 138.588 75.8219 138.588C75.0965 138.588 74.5312 138.844 74.1259 139.356C73.7205 139.868 73.5179 140.583 73.5179 141.5C73.5179 142.407 73.7205 143.121 74.1259 143.644C74.5312 144.156 75.0965 144.412 75.8219 144.412C76.2485 144.412 76.6432 144.311 77.0059 144.108C77.3685 143.905 77.6619 143.623 77.8859 143.26L78.8299 144.108C78.5312 144.609 78.1152 144.993 77.5819 145.26C77.0592 145.527 76.4512 145.66 75.7579 145.66ZM80.0861 139.452C80.0861 138.545 80.0701 137.895 80.0381 137.5H81.5261C81.5688 137.927 81.5901 138.396 81.5901 138.908V139.068H81.6381C81.8515 138.524 82.1875 138.103 82.6461 137.804C83.1155 137.495 83.6648 137.34 84.2941 137.34C84.4648 137.34 84.6195 137.356 84.7581 137.388V138.668C84.6835 138.647 84.5181 138.636 84.2621 138.636C83.7928 138.636 83.3555 138.775 82.9501 139.052C82.5555 139.319 82.2408 139.687 82.0061 140.156C81.7821 140.615 81.6701 141.121 81.6701 141.676V145.5H80.0861V139.452ZM89.2933 145.66C88.0666 145.66 87.1013 145.292 86.3973 144.556C85.6933 143.809 85.3413 142.791 85.3413 141.5C85.3413 140.209 85.6933 139.196 86.3973 138.46C87.1013 137.713 88.0666 137.34 89.2933 137.34C90.5199 137.34 91.4853 137.713 92.1893 138.46C92.9039 139.196 93.2613 140.209 93.2613 141.5C93.2613 142.791 92.9039 143.809 92.1893 144.556C91.4853 145.292 90.5199 145.66 89.2933 145.66ZM89.2933 144.46C90.0293 144.46 90.6106 144.199 91.0373 143.676C91.4639 143.143 91.6773 142.417 91.6773 141.5C91.6773 140.583 91.4639 139.863 91.0373 139.34C90.6106 138.807 90.0293 138.54 89.2933 138.54C88.5466 138.54 87.9653 138.807 87.5493 139.34C87.1333 139.863 86.9253 140.583 86.9253 141.5C86.9253 142.417 87.1333 143.143 87.5493 143.676C87.9653 144.199 88.5466 144.46 89.2933 144.46ZM94.7725 139.548C94.7725 138.801 94.7512 138.119 94.7085 137.5H96.1805C96.2125 137.863 96.2285 138.263 96.2285 138.7H96.2605C96.4952 138.284 96.8365 137.953 97.2845 137.708C97.7432 137.463 98.2445 137.34 98.7885 137.34C99.8125 137.34 100.618 137.713 101.205 138.46C101.791 139.196 102.085 140.209 102.085 141.5C102.085 142.78 101.781 143.793 101.173 144.54C100.575 145.287 99.7592 145.66 98.7245 145.66C98.1912 145.66 97.7165 145.564 97.3005 145.372C96.8952 145.169 96.5965 144.887 96.4045 144.524H96.3565V149.372H94.7725V139.548ZM98.4365 144.46C99.0765 144.46 99.5778 144.193 99.9405 143.66C100.314 143.127 100.501 142.391 100.501 141.452C100.501 140.524 100.325 139.815 99.9725 139.324C99.6205 138.833 99.1192 138.588 98.4685 138.588C97.8498 138.588 97.3432 138.785 96.9485 139.18C96.5538 139.564 96.3565 140.071 96.3565 140.7V142.22C96.3565 142.871 96.5485 143.409 96.9325 143.836C97.3272 144.252 97.8285 144.46 98.4365 144.46ZM103.553 133.628H105.137V138.652C105.371 138.247 105.723 137.927 106.193 137.692C106.662 137.457 107.179 137.34 107.745 137.34C108.673 137.34 109.398 137.649 109.921 138.268C110.443 138.887 110.705 139.745 110.705 140.844V145.5H109.121V140.892C109.121 140.135 108.971 139.553 108.673 139.148C108.385 138.743 107.963 138.54 107.409 138.54C106.747 138.54 106.203 138.78 105.777 139.26C105.35 139.74 105.137 140.364 105.137 141.132V145.5H103.553V133.628ZM116.121 145.66C114.895 145.66 113.929 145.292 113.225 144.556C112.521 143.809 112.169 142.791 112.169 141.5C112.169 140.209 112.521 139.196 113.225 138.46C113.929 137.713 114.895 137.34 116.121 137.34C117.348 137.34 118.313 137.713 119.017 138.46C119.732 139.196 120.089 140.209 120.089 141.5C120.089 142.791 119.732 143.809 119.017 144.556C118.313 145.292 117.348 145.66 116.121 145.66ZM116.121 144.46C116.857 144.46 117.439 144.199 117.865 143.676C118.292 143.143 118.505 142.417 118.505 141.5C118.505 140.583 118.292 139.863 117.865 139.34C117.439 138.807 116.857 138.54 116.121 138.54C115.375 138.54 114.793 138.807 114.377 139.34C113.961 139.863 113.753 140.583 113.753 141.5C113.753 142.417 113.961 143.143 114.377 143.676C114.793 144.199 115.375 144.46 116.121 144.46ZM121.537 139.548C121.537 138.556 121.515 137.873 121.473 137.5H122.945C122.998 137.895 123.025 138.364 123.025 138.908H123.073C123.286 138.428 123.633 138.049 124.113 137.772C124.603 137.484 125.147 137.34 125.745 137.34C127.622 137.34 128.561 138.556 128.561 140.988V145.5H126.977V140.972C126.977 140.172 126.843 139.58 126.577 139.196C126.31 138.812 125.899 138.62 125.345 138.62C124.694 138.62 124.161 138.855 123.745 139.324C123.329 139.793 123.121 140.391 123.121 141.116V145.5H121.537V139.548ZM137.372 142.108H131.676C131.761 142.833 131.991 143.383 132.364 143.756C132.748 144.129 133.271 144.316 133.932 144.316C134.871 144.316 135.628 143.948 136.204 143.212L137.084 144.06C136.775 144.561 136.332 144.956 135.756 145.244C135.18 145.521 134.545 145.66 133.852 145.66C132.657 145.66 131.724 145.297 131.052 144.572C130.391 143.836 130.06 142.817 130.06 141.516C130.06 140.215 130.396 139.196 131.068 138.46C131.74 137.713 132.663 137.34 133.836 137.34C134.945 137.34 135.809 137.708 136.428 138.444C137.057 139.169 137.372 140.188 137.372 141.5V142.108ZM135.868 140.86C135.868 140.167 135.681 139.623 135.308 139.228C134.935 138.833 134.423 138.636 133.772 138.636C133.164 138.636 132.679 138.839 132.316 139.244C131.953 139.649 131.735 140.225 131.66 140.972H135.868V140.86ZM141.498 145.66C140.869 145.66 140.304 145.532 139.802 145.276C139.301 145.02 138.949 144.679 138.746 144.252L139.754 143.564C139.936 143.841 140.181 144.06 140.49 144.22C140.8 144.38 141.136 144.46 141.498 144.46C141.914 144.46 142.256 144.343 142.522 144.108C142.8 143.873 142.938 143.575 142.938 143.212C142.938 142.924 142.832 142.689 142.618 142.508C142.405 142.316 142.01 142.113 141.434 141.9C140.506 141.548 139.85 141.191 139.466 140.828C139.093 140.455 138.906 139.996 138.906 139.452C138.906 138.812 139.157 138.3 139.658 137.916C140.17 137.532 140.848 137.34 141.69 137.34C142.234 137.34 142.73 137.452 143.178 137.676C143.626 137.9 143.978 138.215 144.234 138.62L143.29 139.324C143.109 139.068 142.88 138.876 142.602 138.748C142.336 138.609 142.037 138.54 141.706 138.54C141.344 138.54 141.045 138.62 140.81 138.78C140.586 138.94 140.474 139.148 140.474 139.404C140.474 139.671 140.592 139.895 140.826 140.076C141.061 140.247 141.52 140.465 142.202 140.732C143.056 141.063 143.653 141.409 143.994 141.772C144.346 142.124 144.522 142.583 144.522 143.148C144.522 143.905 144.245 144.513 143.69 144.972C143.136 145.431 142.405 145.66 141.498 145.66Z" fill="#111827"/>
<defs>
<clipPath id="clip0_22_871">
<rect width="55.4821" height="80" fill="white" transform="translate(72.2589 34.5)"/>
</clipPath>
</defs>
</svg>
