<svg width="200" height="180" viewBox="0 0 200 180" fill="none" xmlns="http://www.w3.org/2000/svg">
<rect width="200" height="180" rx="20" fill="#F0F0F0"/>
<g clip-path="url(#clip0_22_1155)">
<path d="M143.895 40.4404H56.1052V45.0019H143.895V40.4404Z" fill="#14B8A6"/>
<path d="M113.692 104.013L82.489 104.119L84.2772 99.9519H112.373L113.692 104.013Z" fill="#14B8A6"/>
<path d="M150.608 101.482H49.3918V34.5H150.608V101.482ZM52.4227 98.4515H147.577V37.5309H52.4227V98.4515Z" fill="#111827"/>
<path d="M145.44 97.0421H54.5898V38.925H145.44V97.0421ZM57.651 94.0112H142.41V41.9559H57.6207L57.651 94.0112Z" fill="#111827"/>
<path d="M123.815 114.379H72.3962C72.0224 114.379 71.6639 114.23 71.3996 113.966C71.1353 113.702 70.9868 113.343 70.9868 112.969C70.9868 112.596 71.1353 112.237 71.3996 111.973C71.6639 111.709 72.0224 111.56 72.3962 111.56H123.815C124.189 111.56 124.547 111.709 124.812 111.973C125.076 112.237 125.224 112.596 125.224 112.969C125.224 113.343 125.076 113.702 124.812 113.966C124.547 114.23 124.189 114.379 123.815 114.379Z" fill="#111827"/>
<path d="M118.678 114.485H77.5336L82.7467 98.4514H113.48L118.678 114.485ZM81.701 111.454H114.51L111.267 101.482H84.9441L81.701 111.454Z" fill="#111827"/>
</g>
<path d="M80.132 134.3V145.5H78.42V137.644L75.54 145.5H74.324L71.444 137.644V145.5H69.732V134.3H71.668L74.932 143.42L78.196 134.3H80.132ZM85.8714 145.66C84.6447 145.66 83.6794 145.292 82.9754 144.556C82.2714 143.809 81.9194 142.791 81.9194 141.5C81.9194 140.209 82.2714 139.196 82.9754 138.46C83.6794 137.713 84.6447 137.34 85.8714 137.34C87.098 137.34 88.0634 137.713 88.7674 138.46C89.482 139.196 89.8394 140.209 89.8394 141.5C89.8394 142.791 89.482 143.809 88.7674 144.556C88.0634 145.292 87.098 145.66 85.8714 145.66ZM85.8714 144.46C86.6074 144.46 87.1887 144.199 87.6154 143.676C88.042 143.143 88.2554 142.417 88.2554 141.5C88.2554 140.583 88.042 139.863 87.6154 139.34C87.1887 138.807 86.6074 138.54 85.8714 138.54C85.1247 138.54 84.5434 138.807 84.1274 139.34C83.7114 139.863 83.5034 140.583 83.5034 141.5C83.5034 142.417 83.7114 143.143 84.1274 143.676C84.5434 144.199 85.1247 144.46 85.8714 144.46ZM91.2866 139.548C91.2866 138.556 91.2653 137.873 91.2226 137.5H92.6946C92.748 137.895 92.7746 138.364 92.7746 138.908H92.8226C93.036 138.428 93.3826 138.049 93.8626 137.772C94.3533 137.484 94.8973 137.34 95.4946 137.34C97.372 137.34 98.3106 138.556 98.3106 140.988V145.5H96.7266V140.972C96.7266 140.172 96.5933 139.58 96.3266 139.196C96.06 138.812 95.6493 138.62 95.0946 138.62C94.444 138.62 93.9106 138.855 93.4946 139.324C93.0786 139.793 92.8706 140.391 92.8706 141.116V145.5H91.2866V139.548ZM101.282 136.268C100.951 136.268 100.69 136.177 100.498 135.996C100.306 135.815 100.21 135.569 100.21 135.26C100.21 134.951 100.306 134.705 100.498 134.524C100.69 134.343 100.951 134.252 101.282 134.252C101.613 134.252 101.874 134.343 102.066 134.524C102.269 134.705 102.37 134.951 102.37 135.26C102.37 135.569 102.269 135.815 102.066 135.996C101.874 136.177 101.613 136.268 101.282 136.268ZM100.498 137.5H102.082V145.5H100.498V137.5ZM107.312 145.66C106.566 145.66 105.979 145.436 105.553 144.988C105.137 144.529 104.929 143.9 104.929 143.1V138.716H103.489V137.5H104.929V135.388L106.449 134.94H106.513V137.5H108.801V138.716H106.513V142.908C106.513 143.431 106.614 143.815 106.817 144.06C107.03 144.305 107.35 144.428 107.777 144.428C108.203 144.428 108.582 144.364 108.913 144.236L109.009 145.372C108.614 145.564 108.049 145.66 107.312 145.66ZM113.59 145.66C112.363 145.66 111.398 145.292 110.694 144.556C109.99 143.809 109.638 142.791 109.638 141.5C109.638 140.209 109.99 139.196 110.694 138.46C111.398 137.713 112.363 137.34 113.59 137.34C114.817 137.34 115.782 137.713 116.486 138.46C117.201 139.196 117.558 140.209 117.558 141.5C117.558 142.791 117.201 143.809 116.486 144.556C115.782 145.292 114.817 145.66 113.59 145.66ZM113.59 144.46C114.326 144.46 114.907 144.199 115.334 143.676C115.761 143.143 115.974 142.417 115.974 141.5C115.974 140.583 115.761 139.863 115.334 139.34C114.907 138.807 114.326 138.54 113.59 138.54C112.843 138.54 112.262 138.807 111.846 139.34C111.43 139.863 111.222 140.583 111.222 141.5C111.222 142.417 111.43 143.143 111.846 143.676C112.262 144.199 112.843 144.46 113.59 144.46ZM119.117 139.452C119.117 138.545 119.101 137.895 119.069 137.5H120.557C120.6 137.927 120.621 138.396 120.621 138.908V139.068H120.669C120.883 138.524 121.219 138.103 121.677 137.804C122.147 137.495 122.696 137.34 123.325 137.34C123.496 137.34 123.651 137.356 123.789 137.388V138.668C123.715 138.647 123.549 138.636 123.293 138.636C122.824 138.636 122.387 138.775 121.981 139.052C121.587 139.319 121.272 139.687 121.037 140.156C120.813 140.615 120.701 141.121 120.701 141.676V145.5H119.117V139.452ZM127.233 145.66C126.603 145.66 126.038 145.532 125.537 145.276C125.035 145.02 124.683 144.679 124.481 144.252L125.489 143.564C125.67 143.841 125.915 144.06 126.225 144.22C126.534 144.38 126.87 144.46 127.233 144.46C127.649 144.46 127.99 144.343 128.257 144.108C128.534 143.873 128.673 143.575 128.673 143.212C128.673 142.924 128.566 142.689 128.353 142.508C128.139 142.316 127.745 142.113 127.169 141.9C126.241 141.548 125.585 141.191 125.201 140.828C124.827 140.455 124.641 139.996 124.641 139.452C124.641 138.812 124.891 138.3 125.393 137.916C125.905 137.532 126.582 137.34 127.425 137.34C127.969 137.34 128.465 137.452 128.913 137.676C129.361 137.9 129.713 138.215 129.969 138.62L129.025 139.324C128.843 139.068 128.614 138.876 128.337 138.748C128.07 138.609 127.771 138.54 127.441 138.54C127.078 138.54 126.779 138.62 126.545 138.78C126.321 138.94 126.209 139.148 126.209 139.404C126.209 139.671 126.326 139.895 126.561 140.076C126.795 140.247 127.254 140.465 127.937 140.732C128.79 141.063 129.387 141.409 129.729 141.772C130.081 142.124 130.257 142.583 130.257 143.148C130.257 143.905 129.979 144.513 129.425 144.972C128.87 145.431 128.139 145.66 127.233 145.66Z" fill="#111827"/>
<defs>
<clipPath id="clip0_22_1155">
<rect width="101.216" height="80" fill="white" transform="translate(49.3918 34.5)"/>
</clipPath>
</defs>
</svg>
