<svg width="200" height="180" viewBox="0 0 200 180" fill="none" xmlns="http://www.w3.org/2000/svg">
<rect width="200" height="180" rx="20" fill="#F0F0F0"/>
<g clip-path="url(#clip0_22_900)">
<path d="M134.415 68.4924H101.784V77.2927H134.415V68.4924Z" fill="#14B8A6"/>
<path d="M98.2048 97.9673V101.394C98.2063 102.962 97.8988 104.515 97.2998 105.964C96.7008 107.413 95.822 108.73 94.7138 109.839C93.6055 110.948 92.2895 111.828 90.8409 112.429C89.3924 113.029 87.8397 113.338 86.2716 113.338H77.5183C74.3504 113.338 71.3121 112.08 69.072 109.84C66.8319 107.6 65.5735 104.561 65.5735 101.394V97.979C65.5766 101.037 66.7928 103.969 68.9552 106.131C71.1176 108.294 74.0495 109.51 77.1076 109.513H86.6706C88.1862 109.513 89.6871 109.214 91.0872 108.634C92.4874 108.054 93.7594 107.203 94.8306 106.131C95.9018 105.058 96.7512 103.786 97.3301 102.385C97.9091 100.984 98.2063 99.483 98.2048 97.9673Z" fill="#14B8A6"/>
<path d="M92.2909 53.1448H70.9005V54.9283H92.2909V53.1448Z" fill="#14B8A6"/>
<path d="M86.2717 114.5H77.5184C74.0442 114.494 70.7141 113.111 68.2575 110.654C65.8009 108.198 64.4181 104.868 64.4119 101.394V55.0691H99.3782V101.394C99.372 104.868 97.9891 108.198 95.5325 110.654C93.0759 113.111 89.7458 114.494 86.2717 114.5ZM66.7586 57.4158V101.394C66.7586 104.248 67.8919 106.986 69.9094 109.006C71.9269 111.026 74.6636 112.162 77.5184 112.165H86.2717C89.1264 112.162 91.8631 111.026 93.8807 109.006C95.8982 106.986 97.0314 104.248 97.0314 101.394V57.4158H66.7586Z" fill="#111827"/>
<path d="M135.588 69.7127H100.61V47.6534C100.607 45.9297 100.944 44.2223 101.601 42.6288C102.258 41.0353 103.223 39.5869 104.44 38.3664C105.657 37.1459 107.103 36.1773 108.695 35.5159C110.286 34.8545 111.993 34.5133 113.717 34.5117H122.505C125.98 34.5148 129.312 35.8967 131.769 38.354C134.227 40.8112 135.609 44.1431 135.612 47.6182L135.588 69.7127ZM102.957 67.3659H133.241V47.6534C133.248 44.7986 132.12 42.0582 130.107 40.0341C128.094 38.01 125.36 36.8678 122.505 36.8584H113.74C110.887 36.8616 108.152 37.9962 106.135 40.0133C104.118 42.0305 102.983 44.7655 102.98 47.6182L102.957 67.3659Z" fill="#111827"/>
<path d="M93.4644 57.4158H70.748V34.6995H93.4644V57.4158ZM73.0948 55.0691H91.1176V37.0462H73.0948V55.0691Z" fill="#111827"/>
<path d="M99.1787 61.2293H64.4119V55.0691H99.1787V61.2293ZM66.7586 58.8825H96.8319V57.4158H66.7586V58.8825Z" fill="#111827"/>
<path d="M87.445 44.0512C87.1556 44.0512 86.878 43.9362 86.6734 43.7316C86.4687 43.5269 86.3538 43.2493 86.3538 42.9599V38.6889C86.3538 38.3995 86.4687 38.1219 86.6734 37.9173C86.878 37.7126 87.1556 37.5977 87.445 37.5977C87.7344 37.5977 88.012 37.7126 88.2166 37.9173C88.4213 38.1219 88.5362 38.3995 88.5362 38.6889V42.9599C88.5362 43.2493 88.4213 43.5269 88.2166 43.7316C88.012 43.9362 87.7344 44.0512 87.445 44.0512Z" fill="#111827"/>
<path d="M76.2863 44.0512C76.143 44.0512 76.0011 44.0229 75.8687 43.9681C75.7363 43.9133 75.616 43.8329 75.5147 43.7316C75.4134 43.6302 75.333 43.5099 75.2781 43.3775C75.2233 43.2451 75.1951 43.1032 75.1951 42.9599V38.6889C75.1951 38.3995 75.31 38.1219 75.5147 37.9173C75.7193 37.7126 75.9969 37.5977 76.2863 37.5977C76.5757 37.5977 76.8533 37.7126 77.0579 37.9173C77.2626 38.1219 77.3775 38.3995 77.3775 38.6889V42.9599C77.3775 43.2493 77.2626 43.5269 77.0579 43.7316C76.8533 43.9362 76.5757 44.0512 76.2863 44.0512Z" fill="#111827"/>
<path d="M135.588 78.466H100.61V67.366H135.588V78.466ZM102.957 76.1193H133.241V69.7127H102.957V76.1193Z" fill="#111827"/>
</g>
<path d="M84.876 145.66C83.884 145.66 83.02 145.431 82.284 144.972C81.5587 144.503 80.9987 143.836 80.604 142.972C80.22 142.108 80.028 141.084 80.028 139.9C80.028 138.716 80.22 137.692 80.604 136.828C80.9987 135.964 81.5587 135.303 82.284 134.844C83.02 134.375 83.884 134.14 84.876 134.14C85.868 134.14 86.7267 134.375 87.452 134.844C88.1773 135.303 88.732 135.964 89.116 136.828C89.5107 137.692 89.708 138.716 89.708 139.9C89.708 141.084 89.5107 142.108 89.116 142.972C88.732 143.836 88.1773 144.503 87.452 144.972C86.7267 145.431 85.868 145.66 84.876 145.66ZM84.876 144.268C85.8253 144.268 86.5773 143.879 87.132 143.1C87.6867 142.311 87.964 141.244 87.964 139.9C87.964 138.545 87.6867 137.479 87.132 136.7C86.5773 135.921 85.8253 135.532 84.876 135.532C83.9267 135.532 83.1693 135.927 82.604 136.716C82.0493 137.495 81.772 138.556 81.772 139.9C81.772 140.785 81.8947 141.559 82.14 142.22C82.396 142.881 82.7587 143.388 83.228 143.74C83.6973 144.092 84.2467 144.268 84.876 144.268ZM94.2344 145.66C93.4877 145.66 92.901 145.436 92.4744 144.988C92.0584 144.529 91.8504 143.9 91.8504 143.1V138.716H90.4104V137.5H91.8504V135.388L93.3704 134.94H93.4344V137.5H95.7224V138.716H93.4344V142.908C93.4344 143.431 93.5357 143.815 93.7384 144.06C93.9517 144.305 94.2717 144.428 94.6984 144.428C95.125 144.428 95.5037 144.364 95.8344 144.236L95.9304 145.372C95.5357 145.564 94.9704 145.66 94.2344 145.66ZM97.3964 133.628H98.9804V138.652C99.215 138.247 99.567 137.927 100.036 137.692C100.506 137.457 101.023 137.34 101.588 137.34C102.516 137.34 103.242 137.649 103.764 138.268C104.287 138.887 104.548 139.745 104.548 140.844V145.5H102.964V140.892C102.964 140.135 102.815 139.553 102.516 139.148C102.228 138.743 101.807 138.54 101.252 138.54C100.591 138.54 100.047 138.78 99.6204 139.26C99.1937 139.74 98.9804 140.364 98.9804 141.132V145.5H97.3964V133.628ZM113.325 142.108H107.629C107.714 142.833 107.944 143.383 108.317 143.756C108.701 144.129 109.224 144.316 109.885 144.316C110.824 144.316 111.581 143.948 112.157 143.212L113.037 144.06C112.728 144.561 112.285 144.956 111.709 145.244C111.133 145.521 110.498 145.66 109.805 145.66C108.61 145.66 107.677 145.297 107.005 144.572C106.344 143.836 106.013 142.817 106.013 141.516C106.013 140.215 106.349 139.196 107.021 138.46C107.693 137.713 108.616 137.34 109.789 137.34C110.898 137.34 111.762 137.708 112.381 138.444C113.01 139.169 113.325 140.188 113.325 141.5V142.108ZM111.821 140.86C111.821 140.167 111.634 139.623 111.261 139.228C110.888 138.833 110.376 138.636 109.725 138.636C109.117 138.636 108.632 138.839 108.269 139.244C107.906 139.649 107.688 140.225 107.613 140.972H111.821V140.86ZM114.883 139.452C114.883 138.545 114.867 137.895 114.835 137.5H116.323C116.366 137.927 116.387 138.396 116.387 138.908V139.068H116.435C116.648 138.524 116.984 138.103 117.443 137.804C117.912 137.495 118.462 137.34 119.091 137.34C119.262 137.34 119.416 137.356 119.555 137.388V138.668C119.48 138.647 119.315 138.636 119.059 138.636C118.59 138.636 118.152 138.775 117.747 139.052C117.352 139.319 117.038 139.687 116.803 140.156C116.579 140.615 116.467 141.121 116.467 141.676V145.5H114.883V139.452Z" fill="#111827"/>
<defs>
<clipPath id="clip0_22_900">
<rect width="71.1763" height="80" fill="white" transform="translate(64.4119 34.5)"/>
</clipPath>
</defs>
</svg>
