<svg width="200" height="180" viewBox="0 0 200 180" fill="none" xmlns="http://www.w3.org/2000/svg">
<rect width="200" height="180" rx="20" fill="#F0F0F0"/>
<g clip-path="url(#clip0_22_1164)">
<path d="M142.878 80.4662C142.482 80.4662 142.101 80.3087 141.821 80.0283C141.541 79.7478 141.383 79.3675 141.383 78.9709C141.383 78.5743 141.541 78.194 141.821 77.9136C142.101 77.6332 142.482 77.4756 142.878 77.4756C143.275 77.4756 143.655 77.6332 143.936 77.9136C144.216 78.194 144.374 78.5743 144.374 78.9709C144.374 79.3675 144.216 79.7478 143.936 80.0283C143.655 80.3087 143.275 80.4662 142.878 80.4662Z" fill="#111827"/>
<path d="M142.878 86.986C142.482 86.986 142.101 86.8285 141.821 86.548C141.541 86.2676 141.383 85.8873 141.383 85.4907C141.383 85.0941 141.541 84.7138 141.821 84.4333C142.101 84.1529 142.482 83.9954 142.878 83.9954C143.275 83.9954 143.655 84.1529 143.936 84.4333C144.216 84.7138 144.374 85.0941 144.374 85.4907C144.374 85.8873 144.216 86.2676 143.936 86.548C143.655 86.8285 143.275 86.986 142.878 86.986Z" fill="#111827"/>
<path d="M142.878 91.6214C142.494 91.6219 142.125 91.4747 141.847 91.2102C141.568 90.9458 141.402 90.5844 141.383 90.2009C141.383 89.8043 141.541 89.424 141.821 89.1435C142.101 88.8631 142.482 88.7056 142.878 88.7056C143.275 88.7056 143.655 88.8631 143.936 89.1435C144.216 89.424 144.374 89.8043 144.374 90.2009C144.355 90.5844 144.189 90.9458 143.91 91.2102C143.632 91.4747 143.262 91.6219 142.878 91.6214Z" fill="#111827"/>
<path d="M142.878 96.2718C142.482 96.2718 142.101 96.1143 141.821 95.8339C141.541 95.5534 141.383 95.1731 141.383 94.7765C141.402 94.393 141.568 94.0316 141.847 93.7672C142.125 93.5027 142.494 93.3555 142.878 93.356C143.262 93.3555 143.632 93.5027 143.91 93.7672C144.189 94.0316 144.355 94.393 144.374 94.7765C144.374 95.1731 144.216 95.5534 143.936 95.8339C143.655 96.1143 143.275 96.2718 142.878 96.2718Z" fill="#111827"/>
<path d="M148.306 108.952H51.6934V113.109H148.306V108.952Z" fill="#14B8A6"/>
<path d="M148.277 114.5H51.6935C51.5103 114.502 51.3286 114.467 51.1589 114.398C50.9893 114.329 50.8352 114.227 50.7057 114.097C50.5761 113.968 50.4738 113.814 50.4046 113.644C50.3354 113.474 50.3008 113.293 50.3028 113.109V72.5711C50.3028 72.2022 50.4493 71.8485 50.7101 71.5877C50.9709 71.3269 51.3247 71.1804 51.6935 71.1804H105.525C105.894 71.1804 106.248 71.3269 106.509 71.5877C106.769 71.8485 106.916 72.2022 106.916 72.5711C106.916 72.9399 106.769 73.2936 106.509 73.5544C106.248 73.8152 105.894 73.9617 105.525 73.9617H53.0841V111.719H146.916V73.9617H114.333C113.964 73.9617 113.61 73.8152 113.349 73.5544C113.089 73.2936 112.942 72.9399 112.942 72.5711C112.942 72.2022 113.089 71.8485 113.349 71.5877C113.61 71.3269 113.964 71.1804 114.333 71.1804H148.277C148.459 71.1804 148.64 71.2164 148.809 71.2863C148.978 71.3562 149.131 71.4586 149.26 71.5877C149.389 71.7169 149.492 71.8702 149.561 72.0389C149.631 72.2076 149.667 72.3884 149.667 72.5711V113.109C149.669 113.293 149.635 113.474 149.566 113.644C149.496 113.814 149.394 113.968 149.264 114.097C149.135 114.227 148.981 114.329 148.811 114.398C148.642 114.467 148.46 114.502 148.277 114.5Z" fill="#111827"/>
<path d="M111.252 106.664H67.0953C66.7264 106.664 66.3727 106.518 66.1119 106.257C65.8511 105.996 65.7046 105.643 65.7046 105.274C65.7046 104.905 65.8511 104.551 66.1119 104.29C66.3727 104.03 66.7264 103.883 67.0953 103.883H111.252C111.621 103.883 111.975 104.03 112.236 104.29C112.496 104.551 112.643 104.905 112.643 105.274C112.643 105.643 112.496 105.996 112.236 106.257C111.975 106.518 111.621 106.664 111.252 106.664Z" fill="#111827"/>
<path d="M121.555 40.7505C121.372 40.7525 121.19 40.7179 121.021 40.6487C120.851 40.5795 120.697 40.4771 120.567 40.3476C120.438 40.2181 120.335 40.064 120.266 39.8943C120.197 39.7247 120.162 39.543 120.164 39.3598V35.8907C120.164 35.5218 120.311 35.1681 120.572 34.9073C120.833 34.6465 121.186 34.5 121.555 34.5C121.924 34.5 122.278 34.6465 122.538 34.9073C122.799 35.1681 122.946 35.5218 122.946 35.8907V39.3598C122.946 39.7286 122.799 40.0824 122.538 40.3432C122.278 40.604 121.924 40.7505 121.555 40.7505Z" fill="#111827"/>
<path d="M121.555 54.5823H112.269C112.075 54.6025 111.88 54.5817 111.694 54.5214C111.509 54.4611 111.339 54.3625 111.194 54.2321C111.049 54.1017 110.934 53.9424 110.854 53.7644C110.775 53.5865 110.734 53.3939 110.734 53.1991C110.734 53.0044 110.775 52.8117 110.854 52.6338C110.934 52.4558 111.049 52.2965 111.194 52.1661C111.339 52.0357 111.509 51.9372 111.694 51.8768C111.88 51.8165 112.075 51.7958 112.269 51.8159H120.164V46.2832C120.164 45.9144 120.311 45.5607 120.572 45.2999C120.832 45.0391 121.186 44.8926 121.555 44.8926C121.924 44.8926 122.278 45.0391 122.538 45.2999C122.799 45.5607 122.946 45.9144 122.946 46.2832V53.1916C122.946 53.5605 122.799 53.9142 122.538 54.175C122.278 54.4358 121.924 54.5823 121.555 54.5823Z" fill="#111827"/>
<path d="M105.555 73.9616C105.372 73.9616 105.192 73.9256 105.023 73.8557C104.854 73.7859 104.701 73.6834 104.572 73.5543C104.443 73.4252 104.34 73.2719 104.27 73.1031C104.2 72.9344 104.164 72.7536 104.164 72.571V66.5896H67.0953C66.7264 66.5896 66.3727 66.4431 66.1119 66.1823C65.8511 65.9215 65.7046 65.5678 65.7046 65.199V53.1317C65.7046 52.9498 65.7406 52.7697 65.8107 52.6018C65.8808 52.4339 65.9835 52.2816 66.1128 52.1536C66.2421 52.0257 66.3956 51.9247 66.5642 51.8564C66.7328 51.7882 66.9133 51.754 67.0953 51.756H95.8354C96.0291 51.7358 96.225 51.7566 96.4102 51.8169C96.5954 51.8772 96.7658 51.9758 96.9105 52.1062C97.0552 52.2366 97.1708 52.3959 97.25 52.5739C97.3292 52.7518 97.3701 52.9444 97.3701 53.1392C97.3701 53.334 97.3292 53.5266 97.25 53.7045C97.1708 53.8825 97.0552 54.0418 96.9105 54.1722C96.7658 54.3026 96.5954 54.4011 96.4102 54.4615C96.225 54.5218 96.0291 54.5425 95.8354 54.5224H68.4859V63.8083H105.555C105.924 63.8083 106.278 63.9549 106.538 64.2157C106.799 64.4765 106.946 64.8302 106.946 65.199V72.5111C106.954 72.6987 106.924 72.886 106.858 73.0617C106.791 73.2374 106.69 73.3979 106.56 73.5334C106.43 73.6689 106.274 73.7767 106.101 73.8503C105.929 73.9239 105.743 73.9618 105.555 73.9616Z" fill="#111827"/>
<path d="M61.5476 80.4662C61.151 80.4662 60.7706 80.3087 60.4902 80.0283C60.2098 79.7478 60.0522 79.3675 60.0522 78.9709C60.0522 78.5743 60.2098 78.194 60.4902 77.9136C60.7706 77.6332 61.151 77.4756 61.5476 77.4756C61.9442 77.4756 62.3245 77.6332 62.6049 77.9136C62.8854 78.194 63.0429 78.5743 63.0429 78.9709C63.0429 79.3675 62.8854 79.7478 62.6049 80.0283C62.3245 80.3087 61.9442 80.4662 61.5476 80.4662Z" fill="#111827"/>
<path d="M66.0337 80.4662C65.6371 80.4662 65.2567 80.3087 64.9763 80.0283C64.6959 79.7478 64.5383 79.3675 64.5383 78.9709C64.5383 78.5743 64.6959 78.194 64.9763 77.9136C65.2567 77.6332 65.6371 77.4756 66.0337 77.4756C66.4302 77.4756 66.8106 77.6332 67.091 77.9136C67.3714 78.194 67.529 78.5743 67.529 78.9709C67.529 79.3675 67.3714 79.7478 67.091 80.0283C66.8106 80.3087 66.4302 80.4662 66.0337 80.4662Z" fill="#111827"/>
<path d="M70.5944 80.4662C70.1979 80.4662 69.8175 80.3087 69.5371 80.0283C69.2567 79.7478 69.0991 79.3675 69.0991 78.9709C69.0991 78.5743 69.2567 78.194 69.5371 77.9136C69.8175 77.6332 70.1979 77.4756 70.5944 77.4756C70.991 77.4756 71.3714 77.6332 71.6518 77.9136C71.9322 78.194 72.0898 78.5743 72.0898 78.9709C72.0898 79.3675 71.9322 79.7478 71.6518 80.0283C71.3714 80.3087 70.991 80.4662 70.5944 80.4662Z" fill="#111827"/>
<path d="M75.1103 80.4662C74.7137 80.4662 74.3334 80.3087 74.053 80.0283C73.7725 79.7478 73.615 79.3675 73.615 78.9709C73.615 78.5743 73.7725 78.194 74.053 77.9136C74.3334 77.6332 74.7137 77.4756 75.1103 77.4756C75.5069 77.4756 75.8872 77.6332 76.1677 77.9136C76.4481 78.194 76.6056 78.5743 76.6056 78.9709C76.6056 79.3675 76.4481 79.7478 76.1677 80.0283C75.8872 80.3087 75.5069 80.4662 75.1103 80.4662Z" fill="#111827"/>
<path d="M79.6262 80.4662C79.2296 80.4662 78.8493 80.3087 78.5688 80.0283C78.2884 79.7478 78.1309 79.3675 78.1309 78.9709C78.1309 78.5743 78.2884 78.194 78.5688 77.9136C78.8493 77.6332 79.2296 77.4756 79.6262 77.4756C80.0228 77.4756 80.4031 77.6332 80.6835 77.9136C80.964 78.194 81.1215 78.5743 81.1215 78.9709C81.1215 79.3675 80.964 79.7478 80.6835 80.0283C80.4031 80.3087 80.0228 80.4662 79.6262 80.4662Z" fill="#111827"/>
<path d="M84.1421 80.4662C83.7455 80.4662 83.3651 80.3087 83.0847 80.0283C82.8043 79.7478 82.6467 79.3675 82.6467 78.9709C82.6467 78.5743 82.8043 78.194 83.0847 77.9136C83.3651 77.6332 83.7455 77.4756 84.1421 77.4756C84.5386 77.4756 84.919 77.6332 85.1994 77.9136C85.4798 78.194 85.6374 78.5743 85.6374 78.9709C85.6374 79.3675 85.4798 79.7478 85.1994 80.0283C84.919 80.3087 84.5386 80.4662 84.1421 80.4662Z" fill="#111827"/>
<path d="M88.6579 80.4662C88.2613 80.4662 87.881 80.3087 87.6006 80.0283C87.3201 79.7478 87.1626 79.3675 87.1626 78.9709C87.1626 78.5743 87.3201 78.194 87.6006 77.9136C87.881 77.6332 88.2613 77.4756 88.6579 77.4756C89.0545 77.4756 89.4349 77.6332 89.7153 77.9136C89.9957 78.194 90.1533 78.5743 90.1533 78.9709C90.1533 79.3675 89.9957 79.7478 89.7153 80.0283C89.4349 80.3087 89.0545 80.4662 88.6579 80.4662Z" fill="#111827"/>
<path d="M93.1738 80.4662C92.7772 80.4662 92.3969 80.3087 92.1164 80.0283C91.836 79.7478 91.6785 79.3675 91.6785 78.9709C91.6785 78.5743 91.836 78.194 92.1164 77.9136C92.3969 77.6332 92.7772 77.4756 93.1738 77.4756C93.5704 77.4756 93.9507 77.6332 94.2312 77.9136C94.5116 78.194 94.6691 78.5743 94.6691 78.9709C94.6691 79.3675 94.5116 79.7478 94.2312 80.0283C93.9507 80.3087 93.5704 80.4662 93.1738 80.4662Z" fill="#111827"/>
<path d="M97.7046 80.4662C97.308 80.4662 96.9276 80.3087 96.6472 80.0283C96.3668 79.7478 96.2092 79.3675 96.2092 78.9709C96.2092 78.5743 96.3668 78.194 96.6472 77.9136C96.9276 77.6332 97.308 77.4756 97.7046 77.4756C98.088 77.4948 98.4495 77.6608 98.7139 77.9392C98.9784 78.2175 99.1256 78.5869 99.1251 78.9709C99.1256 79.3549 98.9784 79.7243 98.7139 80.0027C98.4495 80.2811 98.088 80.447 97.7046 80.4662Z" fill="#111827"/>
<path d="M102.22 80.4662C101.824 80.4662 101.443 80.3087 101.163 80.0283C100.883 79.7478 100.725 79.3675 100.725 78.9709C100.725 78.5743 100.883 78.194 101.163 77.9136C101.443 77.6332 101.824 77.4756 102.22 77.4756C102.617 77.4756 102.997 77.6332 103.278 77.9136C103.558 78.194 103.716 78.5743 103.716 78.9709C103.716 79.3675 103.558 79.7478 103.278 80.0283C102.997 80.3087 102.617 80.4662 102.22 80.4662Z" fill="#111827"/>
<path d="M106.736 80.4662C106.34 80.4662 105.959 80.3087 105.679 80.0283C105.399 79.7478 105.241 79.3675 105.241 78.9709C105.241 78.5743 105.399 78.194 105.679 77.9136C105.959 77.6332 106.34 77.4756 106.736 77.4756C107.133 77.4756 107.513 77.6332 107.794 77.9136C108.074 78.194 108.232 78.5743 108.232 78.9709C108.232 79.3675 108.074 79.7478 107.794 80.0283C107.513 80.3087 107.133 80.4662 106.736 80.4662Z" fill="#111827"/>
<path d="M111.252 80.4662C110.856 80.4662 110.475 80.3087 110.195 80.0283C109.914 79.7478 109.757 79.3675 109.757 78.9709C109.757 78.5743 109.914 78.194 110.195 77.9136C110.475 77.6332 110.856 77.4756 111.252 77.4756C111.649 77.4756 112.029 77.6332 112.31 77.9136C112.59 78.194 112.747 78.5743 112.747 78.9709C112.747 79.3675 112.59 79.7478 112.31 80.0283C112.029 80.3087 111.649 80.4662 111.252 80.4662Z" fill="#111827"/>
<path d="M115.768 80.4662C115.372 80.4662 114.991 80.3087 114.711 80.0283C114.43 79.7478 114.273 79.3675 114.273 78.9709C114.273 78.5743 114.43 78.194 114.711 77.9136C114.991 77.6332 115.372 77.4756 115.768 77.4756C116.165 77.4756 116.545 77.6332 116.826 77.9136C117.106 78.194 117.264 78.5743 117.264 78.9709C117.264 79.3675 117.106 79.7478 116.826 80.0283C116.545 80.3087 116.165 80.4662 115.768 80.4662Z" fill="#111827"/>
<path d="M61.5476 86.986C61.151 86.986 60.7706 86.8285 60.4902 86.548C60.2098 86.2676 60.0522 85.8873 60.0522 85.4907C60.0522 85.0941 60.2098 84.7138 60.4902 84.4333C60.7706 84.1529 61.151 83.9954 61.5476 83.9954C61.9442 83.9954 62.3245 84.1529 62.6049 84.4333C62.8854 84.7138 63.0429 85.0941 63.0429 85.4907C63.0429 85.8873 62.8854 86.2676 62.6049 86.548C62.3245 86.8285 61.9442 86.986 61.5476 86.986Z" fill="#111827"/>
<path d="M66.0337 86.986C65.6371 86.986 65.2567 86.8285 64.9763 86.548C64.6959 86.2676 64.5383 85.8873 64.5383 85.4907C64.5383 85.0941 64.6959 84.7138 64.9763 84.4333C65.2567 84.1529 65.6371 83.9954 66.0337 83.9954C66.4302 83.9954 66.8106 84.1529 67.091 84.4333C67.3714 84.7138 67.529 85.0941 67.529 85.4907C67.529 85.8873 67.3714 86.2676 67.091 86.548C66.8106 86.8285 66.4302 86.986 66.0337 86.986Z" fill="#111827"/>
<path d="M70.5944 86.986C70.1979 86.986 69.8175 86.8285 69.5371 86.548C69.2567 86.2676 69.0991 85.8873 69.0991 85.4907C69.0991 85.0941 69.2567 84.7138 69.5371 84.4333C69.8175 84.1529 70.1979 83.9954 70.5944 83.9954C70.991 83.9954 71.3714 84.1529 71.6518 84.4333C71.9322 84.7138 72.0898 85.0941 72.0898 85.4907C72.0898 85.8873 71.9322 86.2676 71.6518 86.548C71.3714 86.8285 70.991 86.986 70.5944 86.986Z" fill="#111827"/>
<path d="M75.1103 86.986C74.7137 86.986 74.3334 86.8285 74.053 86.548C73.7725 86.2676 73.615 85.8873 73.615 85.4907C73.615 85.0941 73.7725 84.7138 74.053 84.4333C74.3334 84.1529 74.7137 83.9954 75.1103 83.9954C75.5069 83.9954 75.8872 84.1529 76.1677 84.4333C76.4481 84.7138 76.6056 85.0941 76.6056 85.4907C76.6056 85.8873 76.4481 86.2676 76.1677 86.548C75.8872 86.8285 75.5069 86.986 75.1103 86.986Z" fill="#111827"/>
<path d="M79.6262 86.986C79.2296 86.986 78.8493 86.8285 78.5688 86.548C78.2884 86.2676 78.1309 85.8873 78.1309 85.4907C78.1309 85.0941 78.2884 84.7138 78.5688 84.4333C78.8493 84.1529 79.2296 83.9954 79.6262 83.9954C80.0228 83.9954 80.4031 84.1529 80.6835 84.4333C80.964 84.7138 81.1215 85.0941 81.1215 85.4907C81.1215 85.8873 80.964 86.2676 80.6835 86.548C80.4031 86.8285 80.0228 86.986 79.6262 86.986Z" fill="#111827"/>
<path d="M84.1421 86.986C83.7455 86.986 83.3651 86.8285 83.0847 86.548C82.8043 86.2676 82.6467 85.8873 82.6467 85.4907C82.6467 85.0941 82.8043 84.7138 83.0847 84.4333C83.3651 84.1529 83.7455 83.9954 84.1421 83.9954C84.5386 83.9954 84.919 84.1529 85.1994 84.4333C85.4798 84.7138 85.6374 85.0941 85.6374 85.4907C85.6374 85.8873 85.4798 86.2676 85.1994 86.548C84.919 86.8285 84.5386 86.986 84.1421 86.986Z" fill="#111827"/>
<path d="M88.6579 86.986C88.2613 86.986 87.881 86.8285 87.6006 86.548C87.3201 86.2676 87.1626 85.8873 87.1626 85.4907C87.1626 85.0941 87.3201 84.7138 87.6006 84.4333C87.881 84.1529 88.2613 83.9954 88.6579 83.9954C89.0545 83.9954 89.4349 84.1529 89.7153 84.4333C89.9957 84.7138 90.1533 85.0941 90.1533 85.4907C90.1533 85.8873 89.9957 86.2676 89.7153 86.548C89.4349 86.8285 89.0545 86.986 88.6579 86.986Z" fill="#111827"/>
<path d="M93.1738 86.986C92.7772 86.986 92.3969 86.8285 92.1164 86.548C91.836 86.2676 91.6785 85.8873 91.6785 85.4907C91.6785 85.0941 91.836 84.7138 92.1164 84.4333C92.3969 84.1529 92.7772 83.9954 93.1738 83.9954C93.5704 83.9954 93.9507 84.1529 94.2312 84.4333C94.5116 84.7138 94.6691 85.0941 94.6691 85.4907C94.6691 85.8873 94.5116 86.2676 94.2312 86.548C93.9507 86.8285 93.5704 86.986 93.1738 86.986Z" fill="#111827"/>
<path d="M97.7046 86.986C97.308 86.986 96.9276 86.8285 96.6472 86.548C96.3668 86.2676 96.2092 85.8873 96.2092 85.4907C96.2092 85.0941 96.3668 84.7138 96.6472 84.4333C96.9276 84.1529 97.308 83.9954 97.7046 83.9954C98.088 84.0146 98.4495 84.1806 98.7139 84.4589C98.9784 84.7373 99.1256 85.1067 99.1251 85.4907C99.1256 85.8747 98.9784 86.2441 98.7139 86.5225C98.4495 86.8008 98.088 86.9668 97.7046 86.986Z" fill="#111827"/>
<path d="M102.22 86.986C101.824 86.986 101.443 86.8285 101.163 86.548C100.883 86.2676 100.725 85.8873 100.725 85.4907C100.725 85.0941 100.883 84.7138 101.163 84.4333C101.443 84.1529 101.824 83.9954 102.22 83.9954C102.617 83.9954 102.997 84.1529 103.278 84.4333C103.558 84.7138 103.716 85.0941 103.716 85.4907C103.716 85.8873 103.558 86.2676 103.278 86.548C102.997 86.8285 102.617 86.986 102.22 86.986Z" fill="#111827"/>
<path d="M106.736 86.986C106.34 86.986 105.959 86.8285 105.679 86.548C105.399 86.2676 105.241 85.8873 105.241 85.4907C105.241 85.0941 105.399 84.7138 105.679 84.4333C105.959 84.1529 106.34 83.9954 106.736 83.9954C107.133 83.9954 107.513 84.1529 107.794 84.4333C108.074 84.7138 108.232 85.0941 108.232 85.4907C108.232 85.8873 108.074 86.2676 107.794 86.548C107.513 86.8285 107.133 86.986 106.736 86.986Z" fill="#111827"/>
<path d="M111.252 86.986C110.856 86.986 110.475 86.8285 110.195 86.548C109.914 86.2676 109.757 85.8873 109.757 85.4907C109.757 85.0941 109.914 84.7138 110.195 84.4333C110.475 84.1529 110.856 83.9954 111.252 83.9954C111.649 83.9954 112.029 84.1529 112.31 84.4333C112.59 84.7138 112.747 85.0941 112.747 85.4907C112.747 85.8873 112.59 86.2676 112.31 86.548C112.029 86.8285 111.649 86.986 111.252 86.986Z" fill="#111827"/>
<path d="M115.768 86.986C115.372 86.986 114.991 86.8285 114.711 86.548C114.43 86.2676 114.273 85.8873 114.273 85.4907C114.273 85.0941 114.43 84.7138 114.711 84.4333C114.991 84.1529 115.372 83.9954 115.768 83.9954C116.165 83.9954 116.545 84.1529 116.826 84.4333C117.106 84.7138 117.264 85.0941 117.264 85.4907C117.264 85.8873 117.106 86.2676 116.826 86.548C116.545 86.8285 116.165 86.986 115.768 86.986Z" fill="#111827"/>
<path d="M61.5477 91.6214H57.0617C56.6778 91.6219 56.3083 91.4747 56.03 91.2102C55.7516 90.9458 55.5856 90.5844 55.5664 90.2009C55.5664 89.8043 55.7239 89.424 56.0044 89.1435C56.2848 88.8631 56.6651 88.7056 57.0617 88.7056H61.5477C61.9443 88.7056 62.3246 88.8631 62.6051 89.1435C62.8855 89.424 63.043 89.8043 63.043 90.2009C63.0238 90.5844 62.8579 90.9458 62.5795 91.2102C62.3011 91.4747 61.9317 91.6219 61.5477 91.6214Z" fill="#111827"/>
<path d="M66.0337 91.6214C65.6497 91.6219 65.2803 91.4747 65.0019 91.2102C64.7235 90.9458 64.5575 90.5844 64.5383 90.2009C64.5383 89.8043 64.6959 89.424 64.9763 89.1435C65.2567 88.8631 65.6371 88.7056 66.0337 88.7056C66.4302 88.7056 66.8106 88.8631 67.091 89.1435C67.3714 89.424 67.529 89.8043 67.529 90.2009C67.5098 90.5844 67.3438 90.9458 67.0654 91.2102C66.7871 91.4747 66.4176 91.6219 66.0337 91.6214Z" fill="#111827"/>
<path d="M70.5944 91.6214C70.2105 91.6219 69.841 91.4747 69.5627 91.2102C69.2843 90.9458 69.1183 90.5844 69.0991 90.2009C69.0991 89.8043 69.2567 89.424 69.5371 89.1435C69.8175 88.8631 70.1979 88.7056 70.5944 88.7056C70.991 88.7056 71.3714 88.8631 71.6518 89.1435C71.9322 89.424 72.0898 89.8043 72.0898 90.2009C72.0706 90.5844 71.9046 90.9458 71.6262 91.2102C71.3479 91.4747 70.9784 91.6219 70.5944 91.6214Z" fill="#111827"/>
<path d="M75.1103 91.6214C74.7264 91.6219 74.3569 91.4747 74.0785 91.2102C73.8002 90.9458 73.6342 90.5844 73.615 90.2009C73.615 89.8043 73.7725 89.424 74.053 89.1435C74.3334 88.8631 74.7137 88.7056 75.1103 88.7056C75.5069 88.7056 75.8872 88.8631 76.1677 89.1435C76.4481 89.424 76.6056 89.8043 76.6056 90.2009C76.5864 90.5844 76.4204 90.9458 76.1421 91.2102C75.8637 91.4747 75.4943 91.6219 75.1103 91.6214Z" fill="#111827"/>
<path d="M79.6262 91.6214C79.2422 91.6219 78.8728 91.4747 78.5944 91.2102C78.316 90.9458 78.1501 90.5844 78.1309 90.2009C78.1309 89.8043 78.2884 89.424 78.5688 89.1435C78.8493 88.8631 79.2296 88.7056 79.6262 88.7056C80.0228 88.7056 80.4031 88.8631 80.6835 89.1435C80.964 89.424 81.1215 89.8043 81.1215 90.2009C81.1023 90.5844 80.9363 90.9458 80.658 91.2102C80.3796 91.4747 80.0102 91.6219 79.6262 91.6214Z" fill="#111827"/>
<path d="M84.1421 91.6214C83.7581 91.6219 83.3887 91.4747 83.1103 91.2102C82.8319 90.9458 82.6659 90.5844 82.6467 90.2009C82.6467 89.8043 82.8043 89.424 83.0847 89.1435C83.3651 88.8631 83.7455 88.7056 84.1421 88.7056C84.5386 88.7056 84.919 88.8631 85.1994 89.1435C85.4798 89.424 85.6374 89.8043 85.6374 90.2009C85.6182 90.5844 85.4522 90.9458 85.1738 91.2102C84.8955 91.4747 84.526 91.6219 84.1421 91.6214Z" fill="#111827"/>
<path d="M88.6579 91.6214C88.274 91.6219 87.9045 91.4747 87.6261 91.2102C87.3478 90.9458 87.1818 90.5844 87.1626 90.2009C87.1626 89.8043 87.3201 89.424 87.6006 89.1435C87.881 88.8631 88.2613 88.7056 88.6579 88.7056C89.0545 88.7056 89.4349 88.8631 89.7153 89.1435C89.9957 89.424 90.1533 89.8043 90.1533 90.2009C90.1341 90.5844 89.9681 90.9458 89.6897 91.2102C89.4113 91.4747 89.0419 91.6219 88.6579 91.6214Z" fill="#111827"/>
<path d="M93.1738 91.6214C92.7898 91.6219 92.4204 91.4747 92.142 91.2102C91.8637 90.9458 91.6977 90.5844 91.6785 90.2009C91.6785 89.8043 91.836 89.424 92.1164 89.1435C92.3969 88.8631 92.7772 88.7056 93.1738 88.7056C93.5704 88.7056 93.9507 88.8631 94.2312 89.1435C94.5116 89.424 94.6691 89.8043 94.6691 90.2009C94.6499 90.5844 94.4839 90.9458 94.2056 91.2102C93.9272 91.4747 93.5578 91.6219 93.1738 91.6214Z" fill="#111827"/>
<path d="M97.7046 91.6214C97.3206 91.6219 96.9512 91.4747 96.6728 91.2102C96.3944 90.9458 96.2284 90.5844 96.2092 90.2009C96.2092 89.8043 96.3668 89.424 96.6472 89.1435C96.9276 88.8631 97.308 88.7056 97.7046 88.7056C98.088 88.7248 98.4495 88.8907 98.7139 89.1691C98.9784 89.4475 99.1256 89.8169 99.1251 90.2009C99.107 90.5718 98.9515 90.9227 98.6889 91.1853C98.4264 91.4478 98.0755 91.6033 97.7046 91.6214Z" fill="#111827"/>
<path d="M102.22 91.6214C101.836 91.6219 101.467 91.4747 101.189 91.2102C100.91 90.9458 100.744 90.5844 100.725 90.2009C100.725 89.8043 100.883 89.424 101.163 89.1435C101.443 88.8631 101.824 88.7056 102.22 88.7056C102.617 88.7056 102.997 88.8631 103.278 89.1435C103.558 89.424 103.716 89.8043 103.716 90.2009C103.697 90.5844 103.531 90.9458 103.252 91.2102C102.974 91.4747 102.604 91.6219 102.22 91.6214Z" fill="#111827"/>
<path d="M106.736 91.6214C106.352 91.6219 105.983 91.4747 105.705 91.2102C105.426 90.9458 105.26 90.5844 105.241 90.2009C105.241 89.8043 105.399 89.424 105.679 89.1435C105.959 88.8631 106.34 88.7056 106.736 88.7056C107.133 88.7056 107.513 88.8631 107.794 89.1435C108.074 89.424 108.232 89.8043 108.232 90.2009C108.212 90.5844 108.046 90.9458 107.768 91.2102C107.49 91.4747 107.12 91.6219 106.736 91.6214Z" fill="#111827"/>
<path d="M111.252 91.6214C110.868 91.6219 110.499 91.4747 110.22 91.2102C109.942 90.9458 109.776 90.5844 109.757 90.2009C109.757 89.8043 109.914 89.424 110.195 89.1435C110.475 88.8631 110.856 88.7056 111.252 88.7056C111.649 88.7056 112.029 88.8631 112.31 89.1435C112.59 89.424 112.747 89.8043 112.747 90.2009C112.728 90.5844 112.562 90.9458 112.284 91.2102C112.006 91.4747 111.636 91.6219 111.252 91.6214Z" fill="#111827"/>
<path d="M115.768 91.6214C115.384 91.6219 115.015 91.4747 114.737 91.2102C114.458 90.9458 114.292 90.5844 114.273 90.2009C114.273 89.8043 114.43 89.424 114.711 89.1435C114.991 88.8631 115.372 88.7056 115.768 88.7056C116.165 88.7056 116.545 88.8631 116.826 89.1435C117.106 89.424 117.264 89.8043 117.264 90.2009C117.244 90.5844 117.078 90.9458 116.8 91.2102C116.522 91.4747 116.152 91.6219 115.768 91.6214Z" fill="#111827"/>
<path d="M66.0337 96.2718H57.0617C56.6651 96.2718 56.2848 96.1143 56.0044 95.8339C55.7239 95.5534 55.5664 95.1731 55.5664 94.7765C55.5856 94.393 55.7516 94.0316 56.03 93.7672C56.3083 93.5027 56.6778 93.3555 57.0617 93.356H66.0337C66.4177 93.3555 66.7871 93.5027 67.0655 93.7672C67.3439 94.0316 67.5098 94.393 67.529 94.7765C67.529 95.1731 67.3715 95.5534 67.0911 95.8339C66.8106 96.1143 66.4303 96.2718 66.0337 96.2718Z" fill="#111827"/>
<path d="M70.5944 96.2718C70.1979 96.2718 69.8175 96.1143 69.5371 95.8339C69.2567 95.5534 69.0991 95.1731 69.0991 94.7765C69.1183 94.393 69.2843 94.0316 69.5627 93.7672C69.841 93.5027 70.2105 93.3555 70.5944 93.356C70.9784 93.3555 71.3479 93.5027 71.6262 93.7672C71.9046 94.0316 72.0706 94.393 72.0898 94.7765C72.0898 95.1731 71.9322 95.5534 71.6518 95.8339C71.3714 96.1143 70.991 96.2718 70.5944 96.2718Z" fill="#111827"/>
<path d="M75.1103 96.2718C74.7137 96.2718 74.3334 96.1143 74.053 95.8339C73.7725 95.5534 73.615 95.1731 73.615 94.7765C73.6342 94.393 73.8002 94.0316 74.0785 93.7672C74.3569 93.5027 74.7264 93.3555 75.1103 93.356C75.4943 93.3555 75.8637 93.5027 76.1421 93.7672C76.4204 94.0316 76.5864 94.393 76.6056 94.7765C76.6056 95.1731 76.4481 95.5534 76.1677 95.8339C75.8872 96.1143 75.5069 96.2718 75.1103 96.2718Z" fill="#111827"/>
<path d="M79.6262 96.2718C79.2296 96.2718 78.8493 96.1143 78.5688 95.8339C78.2884 95.5534 78.1309 95.1731 78.1309 94.7765C78.1501 94.393 78.316 94.0316 78.5944 93.7672C78.8728 93.5027 79.2422 93.3555 79.6262 93.356C80.0102 93.3555 80.3796 93.5027 80.658 93.7672C80.9363 94.0316 81.1023 94.393 81.1215 94.7765C81.1215 95.1731 80.964 95.5534 80.6835 95.8339C80.4031 96.1143 80.0228 96.2718 79.6262 96.2718Z" fill="#111827"/>
<path d="M84.1421 96.2718C83.7455 96.2718 83.3651 96.1143 83.0847 95.8339C82.8043 95.5534 82.6467 95.1731 82.6467 94.7765C82.6659 94.393 82.8319 94.0316 83.1103 93.7672C83.3887 93.5027 83.7581 93.3555 84.1421 93.356C84.526 93.3555 84.8955 93.5027 85.1738 93.7672C85.4522 94.0316 85.6182 94.393 85.6374 94.7765C85.6374 95.1731 85.4798 95.5534 85.1994 95.8339C84.919 96.1143 84.5386 96.2718 84.1421 96.2718Z" fill="#111827"/>
<path d="M88.6579 96.2718C88.2613 96.2718 87.881 96.1143 87.6006 95.8339C87.3201 95.5534 87.1626 95.1731 87.1626 94.7765C87.1818 94.393 87.3478 94.0316 87.6261 93.7672C87.9045 93.5027 88.274 93.3555 88.6579 93.356C89.0419 93.3555 89.4113 93.5027 89.6897 93.7672C89.9681 94.0316 90.1341 94.393 90.1533 94.7765C90.1533 95.1731 89.9957 95.5534 89.7153 95.8339C89.4349 96.1143 89.0545 96.2718 88.6579 96.2718Z" fill="#111827"/>
<path d="M93.1737 96.272C92.7771 96.272 92.3967 96.1145 92.1163 95.8341C91.8359 95.5536 91.6783 95.1733 91.6783 94.7767C91.6759 94.5831 91.7135 94.391 91.7887 94.2126C91.864 94.0341 91.9753 93.8732 92.1157 93.7398C92.2561 93.6064 92.4226 93.5035 92.6046 93.4375C92.7867 93.3715 92.9804 93.3438 93.1737 93.3561C93.5576 93.3557 93.9271 93.5029 94.2054 93.7674C94.4838 94.0318 94.6498 94.3932 94.669 94.7767C94.669 95.1733 94.5114 95.5536 94.231 95.8341C93.9506 96.1145 93.5702 96.272 93.1737 96.272Z" fill="#111827"/>
<path d="M97.7046 96.2719C97.308 96.2719 96.9276 96.1144 96.6472 95.834C96.3668 95.5535 96.2092 95.1732 96.2092 94.7766C96.2284 94.3931 96.3944 94.0317 96.6728 93.7672C96.9512 93.5028 97.3206 93.3556 97.7046 93.356C97.8917 93.354 98.0773 93.3894 98.2505 93.4601C98.4238 93.5308 98.5812 93.6353 98.7135 93.7677C98.8458 93.9 98.9504 94.0574 99.0211 94.2306C99.0917 94.4039 99.1271 94.5895 99.1251 94.7766C99.1256 95.1606 98.9784 95.53 98.7139 95.8084C98.4495 96.0867 98.088 96.2527 97.7046 96.2719Z" fill="#111827"/>
<path d="M102.22 96.2718C101.824 96.2718 101.443 96.1143 101.163 95.8339C100.883 95.5534 100.725 95.1731 100.725 94.7765C100.744 94.393 100.91 94.0316 101.189 93.7672C101.467 93.5027 101.836 93.3555 102.22 93.356C102.604 93.3555 102.974 93.5027 103.252 93.7672C103.531 94.0316 103.697 94.393 103.716 94.7765C103.716 95.1731 103.558 95.5534 103.278 95.8339C102.997 96.1143 102.617 96.2718 102.22 96.2718Z" fill="#111827"/>
<path d="M106.736 96.2718C106.34 96.2718 105.959 96.1143 105.679 95.8339C105.399 95.5534 105.241 95.1731 105.241 94.7765C105.26 94.393 105.426 94.0316 105.705 93.7672C105.983 93.5027 106.352 93.3555 106.736 93.356C107.12 93.3555 107.49 93.5027 107.768 93.7672C108.046 94.0316 108.212 94.393 108.232 94.7765C108.232 95.1731 108.074 95.5534 107.794 95.8339C107.513 96.1143 107.133 96.2718 106.736 96.2718Z" fill="#111827"/>
<path d="M115.768 96.2718H111.282C110.886 96.2718 110.505 96.1143 110.225 95.8339C109.944 95.5534 109.787 95.1731 109.787 94.7765C109.806 94.393 109.972 94.0316 110.25 93.7672C110.529 93.5027 110.898 93.3555 111.282 93.356H115.768C116.152 93.3555 116.522 93.5027 116.8 93.7672C117.078 94.0316 117.244 94.393 117.264 94.7765C117.264 95.1731 117.106 95.5534 116.826 95.8339C116.545 96.1143 116.165 96.2718 115.768 96.2718Z" fill="#111827"/>
<path d="M61.5476 100.923C61.151 100.923 60.7706 100.765 60.4902 100.485C60.2098 100.204 60.0522 99.8238 60.0522 99.4272C60.0522 99.0306 60.2098 98.6503 60.4902 98.3699C60.7706 98.0894 61.151 97.9319 61.5476 97.9319C61.9442 97.9319 62.3245 98.0894 62.6049 98.3699C62.8854 98.6503 63.0429 99.0306 63.0429 99.4272C63.0429 99.8238 62.8854 100.204 62.6049 100.485C62.3245 100.765 61.9442 100.923 61.5476 100.923Z" fill="#111827"/>
<path d="M61.5476 106.709C61.151 106.709 60.7706 106.552 60.4902 106.271C60.2098 105.991 60.0522 105.611 60.0522 105.214C60.0522 104.817 60.2098 104.437 60.4902 104.157C60.7706 103.876 61.151 103.719 61.5476 103.719C61.9442 103.719 62.3245 103.876 62.6049 104.157C62.8854 104.437 63.0429 104.817 63.0429 105.214C63.0429 105.611 62.8854 105.991 62.6049 106.271C62.3245 106.552 61.9442 106.709 61.5476 106.709Z" fill="#111827"/>
<path d="M66.0337 100.923C65.6371 100.923 65.2567 100.765 64.9763 100.485C64.6959 100.204 64.5383 99.8238 64.5383 99.4272C64.5383 99.0306 64.6959 98.6503 64.9763 98.3699C65.2567 98.0894 65.6371 97.9319 66.0337 97.9319C66.4302 97.9319 66.8106 98.0894 67.091 98.3699C67.3714 98.6503 67.529 99.0306 67.529 99.4272C67.529 99.8238 67.3714 100.204 67.091 100.485C66.8106 100.765 66.4302 100.923 66.0337 100.923Z" fill="#111827"/>
<path d="M70.5944 100.923C70.1979 100.923 69.8175 100.765 69.5371 100.485C69.2567 100.204 69.0991 99.8238 69.0991 99.4272C69.0991 99.0306 69.2567 98.6503 69.5371 98.3699C69.8175 98.0894 70.1979 97.9319 70.5944 97.9319C70.991 97.9319 71.3714 98.0894 71.6518 98.3699C71.9322 98.6503 72.0898 99.0306 72.0898 99.4272C72.0898 99.8238 71.9322 100.204 71.6518 100.485C71.3714 100.765 70.991 100.923 70.5944 100.923Z" fill="#111827"/>
<path d="M75.1103 100.923C74.7137 100.923 74.3334 100.765 74.053 100.485C73.7725 100.204 73.615 99.8238 73.615 99.4272C73.615 99.0306 73.7725 98.6503 74.053 98.3699C74.3334 98.0894 74.7137 97.9319 75.1103 97.9319C75.5069 97.9319 75.8872 98.0894 76.1677 98.3699C76.4481 98.6503 76.6056 99.0306 76.6056 99.4272C76.6056 99.8238 76.4481 100.204 76.1677 100.485C75.8872 100.765 75.5069 100.923 75.1103 100.923Z" fill="#111827"/>
<path d="M79.6262 100.923C79.2296 100.923 78.8493 100.765 78.5688 100.485C78.2884 100.204 78.1309 99.8238 78.1309 99.4272C78.1309 99.0306 78.2884 98.6503 78.5688 98.3699C78.8493 98.0894 79.2296 97.9319 79.6262 97.9319C80.0228 97.9319 80.4031 98.0894 80.6835 98.3699C80.964 98.6503 81.1215 99.0306 81.1215 99.4272C81.1215 99.8238 80.964 100.204 80.6835 100.485C80.4031 100.765 80.0228 100.923 79.6262 100.923Z" fill="#111827"/>
<path d="M84.1421 100.923C83.7455 100.923 83.3651 100.765 83.0847 100.485C82.8043 100.204 82.6467 99.8238 82.6467 99.4272C82.6467 99.0306 82.8043 98.6503 83.0847 98.3699C83.3651 98.0894 83.7455 97.9319 84.1421 97.9319C84.5386 97.9319 84.919 98.0894 85.1994 98.3699C85.4798 98.6503 85.6374 99.0306 85.6374 99.4272C85.6374 99.8238 85.4798 100.204 85.1994 100.485C84.919 100.765 84.5386 100.923 84.1421 100.923Z" fill="#111827"/>
<path d="M88.6579 100.923C88.2613 100.923 87.881 100.765 87.6006 100.485C87.3201 100.204 87.1626 99.8238 87.1626 99.4272C87.1626 99.0306 87.3201 98.6503 87.6006 98.3699C87.881 98.0894 88.2613 97.9319 88.6579 97.9319C89.0545 97.9319 89.4349 98.0894 89.7153 98.3699C89.9957 98.6503 90.1533 99.0306 90.1533 99.4272C90.1533 99.8238 89.9957 100.204 89.7153 100.485C89.4349 100.765 89.0545 100.923 88.6579 100.923Z" fill="#111827"/>
<path d="M93.1738 100.923C92.7772 100.923 92.3969 100.765 92.1164 100.485C91.836 100.204 91.6785 99.8238 91.6785 99.4272C91.6785 99.0306 91.836 98.6503 92.1164 98.3699C92.3969 98.0894 92.7772 97.9319 93.1738 97.9319C93.5704 97.9319 93.9507 98.0894 94.2312 98.3699C94.5116 98.6503 94.6691 99.0306 94.6691 99.4272C94.6691 99.8238 94.5116 100.204 94.2312 100.485C93.9507 100.765 93.5704 100.923 93.1738 100.923Z" fill="#111827"/>
<path d="M97.7046 100.923C97.308 100.923 96.9276 100.765 96.6472 100.485C96.3668 100.204 96.2092 99.8238 96.2092 99.4272C96.2092 99.0306 96.3668 98.6503 96.6472 98.3699C96.9276 98.0894 97.308 97.9319 97.7046 97.9319C98.088 97.9511 98.4495 98.1171 98.7139 98.3954C98.9784 98.6738 99.1256 99.0432 99.1251 99.4272C99.1256 99.8112 98.9784 100.181 98.7139 100.459C98.4495 100.737 98.088 100.903 97.7046 100.923Z" fill="#111827"/>
<path d="M102.22 100.923C101.824 100.923 101.443 100.765 101.163 100.485C100.883 100.204 100.725 99.8238 100.725 99.4272C100.725 99.0306 100.883 98.6503 101.163 98.3699C101.443 98.0894 101.824 97.9319 102.22 97.9319C102.617 97.9319 102.997 98.0894 103.278 98.3699C103.558 98.6503 103.716 99.0306 103.716 99.4272C103.716 99.8238 103.558 100.204 103.278 100.485C102.997 100.765 102.617 100.923 102.22 100.923Z" fill="#111827"/>
<path d="M106.736 100.923C106.34 100.923 105.959 100.765 105.679 100.485C105.399 100.204 105.241 99.8238 105.241 99.4272C105.241 99.0306 105.399 98.6503 105.679 98.3699C105.959 98.0894 106.34 97.9319 106.736 97.9319C107.133 97.9319 107.513 98.0894 107.794 98.3699C108.074 98.6503 108.232 99.0306 108.232 99.4272C108.232 99.8238 108.074 100.204 107.794 100.485C107.513 100.765 107.133 100.923 106.736 100.923Z" fill="#111827"/>
<path d="M111.252 100.923C110.856 100.923 110.475 100.765 110.195 100.485C109.914 100.204 109.757 99.8238 109.757 99.4272C109.757 99.0306 109.914 98.6503 110.195 98.3699C110.475 98.0894 110.856 97.9319 111.252 97.9319C111.649 97.9319 112.029 98.0894 112.31 98.3699C112.59 98.6503 112.747 99.0306 112.747 99.4272C112.747 99.8238 112.59 100.204 112.31 100.485C112.029 100.765 111.649 100.923 111.252 100.923Z" fill="#111827"/>
<path d="M115.768 100.923C115.372 100.923 114.991 100.765 114.711 100.485C114.43 100.204 114.273 99.8238 114.273 99.4272C114.273 99.0306 114.43 98.6503 114.711 98.3699C114.991 98.0894 115.372 97.9319 115.768 97.9319C116.165 97.9319 116.545 98.0894 116.826 98.3699C117.106 98.6503 117.264 99.0306 117.264 99.4272C117.264 99.8238 117.106 100.204 116.826 100.485C116.545 100.765 116.165 100.923 115.768 100.923Z" fill="#111827"/>
<path d="M114.751 104.257C115.028 104.001 115.391 103.858 115.768 103.858C116.145 103.858 116.509 104.001 116.785 104.257C117.042 104.534 117.184 104.897 117.184 105.274C117.184 105.651 117.042 106.014 116.785 106.291C116.509 106.547 116.145 106.69 115.768 106.69C115.391 106.69 115.028 106.547 114.751 106.291C114.495 106.014 114.353 105.651 114.353 105.274C114.353 104.897 114.495 104.534 114.751 104.257Z" fill="#111827"/>
<path d="M129.331 80.4662C128.934 80.4662 128.554 80.3087 128.273 80.0283C127.993 79.7478 127.835 79.3675 127.835 78.9709C127.835 78.5743 127.993 78.194 128.273 77.9136C128.554 77.6332 128.934 77.4756 129.331 77.4756C129.727 77.4756 130.108 77.6332 130.388 77.9136C130.669 78.194 130.826 78.5743 130.826 78.9709C130.826 79.3675 130.669 79.7478 130.388 80.0283C130.108 80.3087 129.727 80.4662 129.331 80.4662Z" fill="#111827"/>
<path d="M133.847 80.4662C133.45 80.4662 133.07 80.3087 132.789 80.0283C132.509 79.7478 132.351 79.3675 132.351 78.9709C132.351 78.5743 132.509 78.194 132.789 77.9136C133.07 77.6332 133.45 77.4756 133.847 77.4756C134.243 77.4756 134.624 77.6332 134.904 77.9136C135.184 78.194 135.342 78.5743 135.342 78.9709C135.342 79.3675 135.184 79.7478 134.904 80.0283C134.624 80.3087 134.243 80.4662 133.847 80.4662Z" fill="#111827"/>
<path d="M138.363 80.4662C137.966 80.4662 137.586 80.3087 137.305 80.0283C137.025 79.7478 136.867 79.3675 136.867 78.9709C136.867 78.5743 137.025 78.194 137.305 77.9136C137.586 77.6332 137.966 77.4756 138.363 77.4756C138.759 77.4756 139.139 77.6332 139.42 77.9136C139.7 78.194 139.858 78.5743 139.858 78.9709C139.858 79.3675 139.7 79.7478 139.42 80.0283C139.139 80.3087 138.759 80.4662 138.363 80.4662Z" fill="#111827"/>
<path d="M129.331 86.986C128.934 86.986 128.554 86.8285 128.273 86.548C127.993 86.2676 127.835 85.8873 127.835 85.4907C127.835 85.0941 127.993 84.7138 128.273 84.4333C128.554 84.1529 128.934 83.9954 129.331 83.9954C129.727 83.9954 130.108 84.1529 130.388 84.4333C130.669 84.7138 130.826 85.0941 130.826 85.4907C130.826 85.8873 130.669 86.2676 130.388 86.548C130.108 86.8285 129.727 86.986 129.331 86.986Z" fill="#111827"/>
<path d="M133.847 86.986C133.45 86.986 133.07 86.8285 132.789 86.548C132.509 86.2676 132.351 85.8873 132.351 85.4907C132.351 85.0941 132.509 84.7138 132.789 84.4333C133.07 84.1529 133.45 83.9954 133.847 83.9954C134.243 83.9954 134.624 84.1529 134.904 84.4333C135.184 84.7138 135.342 85.0941 135.342 85.4907C135.342 85.8873 135.184 86.2676 134.904 86.548C134.624 86.8285 134.243 86.986 133.847 86.986Z" fill="#111827"/>
<path d="M138.363 86.986C137.966 86.986 137.586 86.8285 137.305 86.548C137.025 86.2676 136.867 85.8873 136.867 85.4907C136.867 85.0941 137.025 84.7138 137.305 84.4333C137.586 84.1529 137.966 83.9954 138.363 83.9954C138.759 83.9954 139.139 84.1529 139.42 84.4333C139.7 84.7138 139.858 85.0941 139.858 85.4907C139.858 85.8873 139.7 86.2676 139.42 86.548C139.139 86.8285 138.759 86.986 138.363 86.986Z" fill="#111827"/>
<path d="M129.331 91.6214C128.947 91.6219 128.577 91.4747 128.299 91.2102C128.021 90.9458 127.855 90.5844 127.835 90.2009C127.835 89.8043 127.993 89.424 128.273 89.1435C128.554 88.8631 128.934 88.7056 129.331 88.7056C129.727 88.7056 130.108 88.8631 130.388 89.1435C130.669 89.424 130.826 89.8043 130.826 90.2009C130.807 90.5844 130.641 90.9458 130.363 91.2102C130.084 91.4747 129.715 91.6219 129.331 91.6214Z" fill="#111827"/>
<path d="M133.847 91.6214C133.463 91.6219 133.093 91.4747 132.815 91.2102C132.536 90.9458 132.371 90.5844 132.351 90.2009C132.351 89.8043 132.509 89.424 132.789 89.1435C133.07 88.8631 133.45 88.7056 133.847 88.7056C134.243 88.7056 134.624 88.8631 134.904 89.1435C135.184 89.424 135.342 89.8043 135.342 90.2009C135.323 90.5844 135.157 90.9458 134.878 91.2102C134.6 91.4747 134.231 91.6219 133.847 91.6214Z" fill="#111827"/>
<path d="M138.363 91.6214C137.979 91.6219 137.609 91.4747 137.331 91.2102C137.052 90.9458 136.886 90.5844 136.867 90.2009C136.867 89.8043 137.025 89.424 137.305 89.1435C137.586 88.8631 137.966 88.7056 138.363 88.7056C138.759 88.7056 139.139 88.8631 139.42 89.1435C139.7 89.424 139.858 89.8043 139.858 90.2009C139.839 90.5844 139.673 90.9458 139.394 91.2102C139.116 91.4747 138.746 91.6219 138.363 91.6214Z" fill="#111827"/>
<path d="M129.331 96.2718C128.934 96.2718 128.554 96.1143 128.273 95.8339C127.993 95.5534 127.835 95.1731 127.835 94.7765C127.855 94.393 128.021 94.0316 128.299 93.7672C128.577 93.5027 128.947 93.3555 129.331 93.356C129.715 93.3555 130.084 93.5027 130.363 93.7672C130.641 94.0316 130.807 94.393 130.826 94.7765C130.826 95.1731 130.669 95.5534 130.388 95.8339C130.108 96.1143 129.727 96.2718 129.331 96.2718Z" fill="#111827"/>
<path d="M133.847 96.2718C133.45 96.2718 133.07 96.1143 132.789 95.8339C132.509 95.5534 132.351 95.1731 132.351 94.7765C132.371 94.393 132.536 94.0316 132.815 93.7672C133.093 93.5027 133.463 93.3555 133.847 93.356C134.231 93.3555 134.6 93.5027 134.878 93.7672C135.157 94.0316 135.323 94.393 135.342 94.7765C135.342 95.1731 135.184 95.5534 134.904 95.8339C134.624 96.1143 134.243 96.2718 133.847 96.2718Z" fill="#111827"/>
<path d="M138.363 96.2718C137.966 96.2718 137.586 96.1143 137.305 95.8339C137.025 95.5534 136.867 95.1731 136.867 94.7765C136.886 94.393 137.052 94.0316 137.331 93.7672C137.609 93.5027 137.979 93.3555 138.363 93.356C138.746 93.3555 139.116 93.5027 139.394 93.7672C139.673 94.0316 139.839 94.393 139.858 94.7765C139.858 95.1731 139.7 95.5534 139.42 95.8339C139.139 96.1143 138.759 96.2718 138.363 96.2718Z" fill="#111827"/>
<path d="M129.331 100.923C128.934 100.923 128.554 100.765 128.273 100.485C127.993 100.204 127.835 99.8238 127.835 99.4272C127.835 99.0306 127.993 98.6503 128.273 98.3699C128.554 98.0894 128.934 97.9319 129.331 97.9319C129.727 97.9319 130.108 98.0894 130.388 98.3699C130.669 98.6503 130.826 99.0306 130.826 99.4272C130.826 99.8238 130.669 100.204 130.388 100.485C130.108 100.765 129.727 100.923 129.331 100.923Z" fill="#111827"/>
<path d="M133.847 100.923C133.45 100.923 133.07 100.765 132.789 100.485C132.509 100.204 132.351 99.8238 132.351 99.4272C132.351 99.0306 132.509 98.6503 132.789 98.3699C133.07 98.0894 133.45 97.9319 133.847 97.9319C134.243 97.9319 134.624 98.0894 134.904 98.3699C135.184 98.6503 135.342 99.0306 135.342 99.4272C135.342 99.8238 135.184 100.204 134.904 100.485C134.624 100.765 134.243 100.923 133.847 100.923Z" fill="#111827"/>
<path d="M138.363 100.923C137.966 100.923 137.586 100.765 137.305 100.485C137.025 100.204 136.867 99.8238 136.867 99.4272C136.867 99.0306 137.025 98.6503 137.305 98.3699C137.586 98.0894 137.966 97.9319 138.363 97.9319C138.759 97.9319 139.139 98.0894 139.42 98.3699C139.7 98.6503 139.858 99.0306 139.858 99.4272C139.858 99.8238 139.7 100.204 139.42 100.485C139.139 100.765 138.759 100.923 138.363 100.923Z" fill="#111827"/>
<path d="M142.878 100.923C142.482 100.923 142.101 100.765 141.821 100.485C141.541 100.204 141.383 99.8238 141.383 99.4272C141.383 99.0306 141.541 98.6503 141.821 98.3699C142.101 98.0894 142.482 97.9319 142.878 97.9319C143.275 97.9319 143.655 98.0894 143.936 98.3699C144.216 98.6503 144.374 99.0306 144.374 99.4272C144.374 99.8238 144.216 100.204 143.936 100.485C143.655 100.765 143.275 100.923 142.878 100.923Z" fill="#111827"/>
</g>
<path d="M71.372 145.5L67.996 140.092L66.46 141.964V145.5H64.716V134.3H66.46V139.644L70.748 134.3H72.78L69.148 138.716L73.292 145.5H71.372ZM81.0126 142.108H75.3166C75.402 142.833 75.6313 143.383 76.0046 143.756C76.3886 144.129 76.9113 144.316 77.5726 144.316C78.5113 144.316 79.2686 143.948 79.8446 143.212L80.7246 144.06C80.4153 144.561 79.9726 144.956 79.3966 145.244C78.8206 145.521 78.186 145.66 77.4926 145.66C76.298 145.66 75.3646 145.297 74.6926 144.572C74.0313 143.836 73.7006 142.817 73.7006 141.516C73.7006 140.215 74.0366 139.196 74.7086 138.46C75.3806 137.713 76.3033 137.34 77.4766 137.34C78.586 137.34 79.45 137.708 80.0686 138.444C80.698 139.169 81.0126 140.188 81.0126 141.5V142.108ZM79.5086 140.86C79.5086 140.167 79.322 139.623 78.9486 139.228C78.5753 138.833 78.0633 138.636 77.4126 138.636C76.8046 138.636 76.3193 138.839 75.9566 139.244C75.594 139.649 75.3753 140.225 75.3006 140.972H79.5086V140.86ZM88.69 137.5L85.73 145.724C85.0153 147.697 83.874 148.684 82.306 148.684C82.0073 148.684 81.666 148.636 81.282 148.54V147.308C81.506 147.393 81.7727 147.436 82.082 147.436C82.6047 147.436 83.0473 147.249 83.41 146.876C83.7727 146.503 84.1193 145.884 84.45 145.02L81.474 137.5H83.17L85.186 143.308L86.978 137.5H88.69ZM93.7394 145.66C93.2487 145.66 92.774 145.537 92.3154 145.292C91.8567 145.036 91.51 144.705 91.2754 144.3H91.2434C91.254 144.556 91.2487 144.956 91.2274 145.5H89.7554C89.7874 145.159 89.8034 144.476 89.8034 143.452V133.628H91.3874V138.492H91.4194C91.9207 137.724 92.7154 137.34 93.8034 137.34C94.8274 137.34 95.6327 137.697 96.2194 138.412C96.8167 139.127 97.1154 140.108 97.1154 141.356C97.1154 142.689 96.8114 143.74 96.2034 144.508C95.606 145.276 94.7847 145.66 93.7394 145.66ZM93.4834 144.412C94.1234 144.412 94.6247 144.145 94.9874 143.612C95.35 143.079 95.5314 142.337 95.5314 141.388C95.5314 140.481 95.35 139.783 94.9874 139.292C94.6354 138.791 94.134 138.54 93.4834 138.54C92.8647 138.54 92.358 138.748 91.9634 139.164C91.5794 139.58 91.3874 140.119 91.3874 140.78V142.3C91.3874 142.951 91.574 143.468 91.9474 143.852C92.3314 144.225 92.8434 144.412 93.4834 144.412ZM102.121 145.66C100.895 145.66 99.9294 145.292 99.2254 144.556C98.5214 143.809 98.1694 142.791 98.1694 141.5C98.1694 140.209 98.5214 139.196 99.2254 138.46C99.9294 137.713 100.895 137.34 102.121 137.34C103.348 137.34 104.313 137.713 105.017 138.46C105.732 139.196 106.089 140.209 106.089 141.5C106.089 142.791 105.732 143.809 105.017 144.556C104.313 145.292 103.348 145.66 102.121 145.66ZM102.121 144.46C102.857 144.46 103.439 144.199 103.865 143.676C104.292 143.143 104.505 142.417 104.505 141.5C104.505 140.583 104.292 139.863 103.865 139.34C103.439 138.807 102.857 138.54 102.121 138.54C101.375 138.54 100.793 138.807 100.377 139.34C99.9614 139.863 99.7534 140.583 99.7534 141.5C99.7534 142.417 99.9614 143.143 100.377 143.676C100.793 144.199 101.375 144.46 102.121 144.46ZM109.937 145.66C109.414 145.66 108.945 145.553 108.529 145.34C108.123 145.127 107.803 144.833 107.569 144.46C107.345 144.076 107.233 143.644 107.233 143.164C107.233 142.353 107.542 141.735 108.161 141.308C108.779 140.871 109.659 140.652 110.801 140.652H112.305V140.252C112.305 139.719 112.161 139.308 111.873 139.02C111.585 138.732 111.163 138.588 110.609 138.588C110.129 138.588 109.681 138.684 109.265 138.876C108.849 139.057 108.507 139.324 108.241 139.676L107.489 138.732C107.873 138.284 108.337 137.943 108.881 137.708C109.435 137.463 110.033 137.34 110.673 137.34C111.697 137.34 112.491 137.591 113.057 138.092C113.622 138.583 113.905 139.281 113.905 140.188V143.9C113.905 144.38 113.969 144.913 114.097 145.5H112.705C112.598 145.244 112.523 144.887 112.481 144.428H112.449C111.841 145.249 111.003 145.66 109.937 145.66ZM110.241 144.428C110.817 144.428 111.302 144.273 111.697 143.964C112.102 143.644 112.305 143.26 112.305 142.812V141.756H110.737C110.107 141.756 109.622 141.879 109.281 142.124C108.95 142.359 108.785 142.705 108.785 143.164C108.785 143.559 108.913 143.868 109.169 144.092C109.435 144.316 109.793 144.428 110.241 144.428ZM115.946 139.452C115.946 138.545 115.93 137.895 115.898 137.5H117.386C117.428 137.927 117.45 138.396 117.45 138.908V139.068H117.498C117.711 138.524 118.047 138.103 118.506 137.804C118.975 137.495 119.524 137.34 120.154 137.34C120.324 137.34 120.479 137.356 120.618 137.388V138.668C120.543 138.647 120.378 138.636 120.122 138.636C119.652 138.636 119.215 138.775 118.81 139.052C118.415 139.319 118.1 139.687 117.866 140.156C117.642 140.615 117.53 141.121 117.53 141.676V145.5H115.946V139.452ZM124.669 145.66C123.624 145.66 122.802 145.276 122.205 144.508C121.608 143.74 121.309 142.689 121.309 141.356C121.309 140.545 121.448 139.841 121.725 139.244C122.002 138.636 122.397 138.167 122.909 137.836C123.421 137.505 124.018 137.34 124.701 137.34C125.661 137.34 126.429 137.724 127.005 138.492H127.037V133.628H128.621V143.452C128.621 144.476 128.637 145.159 128.669 145.5H127.197C127.176 145.265 127.165 144.865 127.165 144.3H127.133C126.888 144.705 126.541 145.036 126.093 145.292C125.645 145.537 125.17 145.66 124.669 145.66ZM124.925 144.412C125.565 144.412 126.077 144.225 126.461 143.852C126.845 143.468 127.037 142.951 127.037 142.3V140.78C127.037 140.119 126.84 139.58 126.445 139.164C126.061 138.748 125.554 138.54 124.925 138.54C124.285 138.54 123.784 138.791 123.421 139.292C123.069 139.783 122.893 140.481 122.893 141.388C122.893 142.337 123.069 143.079 123.421 143.612C123.784 144.145 124.285 144.412 124.925 144.412ZM132.811 145.66C132.182 145.66 131.616 145.532 131.115 145.276C130.614 145.02 130.262 144.679 130.059 144.252L131.067 143.564C131.248 143.841 131.494 144.06 131.803 144.22C132.112 144.38 132.448 144.46 132.811 144.46C133.227 144.46 133.568 144.343 133.835 144.108C134.112 143.873 134.251 143.575 134.251 143.212C134.251 142.924 134.144 142.689 133.931 142.508C133.718 142.316 133.323 142.113 132.747 141.9C131.819 141.548 131.163 141.191 130.779 140.828C130.406 140.455 130.219 139.996 130.219 139.452C130.219 138.812 130.47 138.3 130.971 137.916C131.483 137.532 132.16 137.34 133.003 137.34C133.547 137.34 134.043 137.452 134.491 137.676C134.939 137.9 135.291 138.215 135.547 138.62L134.603 139.324C134.422 139.068 134.192 138.876 133.915 138.748C133.648 138.609 133.35 138.54 133.019 138.54C132.656 138.54 132.358 138.62 132.123 138.78C131.899 138.94 131.787 139.148 131.787 139.404C131.787 139.671 131.904 139.895 132.139 140.076C132.374 140.247 132.832 140.465 133.515 140.732C134.368 141.063 134.966 141.409 135.307 141.772C135.659 142.124 135.835 142.583 135.835 143.148C135.835 143.905 135.558 144.513 135.003 144.972C134.448 145.431 133.718 145.66 132.811 145.66Z" fill="#111827"/>
<defs>
<clipPath id="clip0_22_1164">
<rect width="99.3944" height="80" fill="white" transform="translate(50.3027 34.5)"/>
</clipPath>
</defs>
</svg>
