<svg width="200" height="180" viewBox="0 0 200 180" fill="none" xmlns="http://www.w3.org/2000/svg">
<rect width="200" height="180" rx="20" fill="#F0F0F0"/>
<g clip-path="url(#clip0_22_811)">
<path d="M103.785 66.71H95.6776V69.4328H103.785V66.71Z" fill="#14B8A6"/>
<path d="M104.347 95.5989L103.956 95.5012H89.0964C79.3284 98.4683 71.3797 112.766 62.5763 108.835C60.9524 108.102 60.1343 106.161 59.9145 103.499C59.6093 108.114 60.2442 111.631 62.5763 112.681C71.3797 116.625 79.3284 102.327 89.0964 99.3596H103.956H104.212C104.021 98.1087 104.067 96.833 104.347 95.5989Z" fill="#14B8A6"/>
<path d="M140.281 103.499C140.049 106.16 139.255 108.102 137.619 108.834C131.624 111.521 126.007 105.721 119.951 100.825C119.484 101.734 118.869 102.559 118.132 103.267C118.243 103.322 118.349 103.388 118.449 103.462C125.092 108.529 131.136 115.562 137.619 112.656C139.951 111.631 140.598 108.114 140.281 103.499Z" fill="#14B8A6"/>
<path d="M65.5799 114.5C64.3496 114.495 63.1343 114.229 62.0146 113.719C60.2197 112.913 54.7619 110.459 63.0403 83.1936C64.3411 78.8643 67.0096 75.073 70.646 72.3876C74.2823 69.7022 78.6908 68.2671 83.2112 68.2973H116.801C121.319 68.2717 125.724 69.7088 129.357 72.3937C132.991 75.0787 135.658 78.8674 136.96 83.1936C145.238 110.459 139.78 112.913 137.985 113.719C132.1 116.356 126.667 111.814 121.404 107.43C120.183 106.405 118.962 105.355 117.656 104.39C117.416 104.207 117.259 103.937 117.219 103.638C117.179 103.339 117.259 103.036 117.442 102.797C117.625 102.557 117.896 102.4 118.194 102.36C118.493 102.32 118.796 102.4 119.035 102.583C120.342 103.584 121.624 104.647 122.857 105.684C127.802 109.811 132.466 113.706 137.057 111.643C140.452 110.117 139.609 99.7259 134.786 83.8529C133.59 80.0144 131.201 76.6571 127.967 74.2683C124.733 71.8795 120.822 70.5835 116.801 70.5684H83.2112C79.179 70.5421 75.2467 71.822 72.0025 74.2167C68.7583 76.6113 66.3766 79.992 65.2136 83.8529C60.3296 99.7259 59.536 110.117 62.9426 111.643C67.5335 113.706 72.1978 109.811 77.1428 105.684C80.8058 102.656 84.4688 99.5794 88.6569 98.2729C88.766 98.2552 88.8774 98.2552 88.9865 98.2729H103.858C104.159 98.2729 104.448 98.3926 104.661 98.6055C104.874 98.8185 104.994 99.1073 104.994 99.4085C104.994 99.7096 104.874 99.9984 104.661 100.211C104.448 100.424 104.159 100.544 103.858 100.544H89.2063C85.5433 101.765 82.0268 104.634 78.6324 107.467C74.42 110.91 70.1221 114.5 65.5799 114.5Z" fill="#111827"/>
<path d="M112.479 106.869C110.444 106.871 108.455 106.27 106.762 105.141C105.07 104.013 103.75 102.407 102.97 100.528C102.191 98.6488 101.986 96.5807 102.383 94.5853C102.779 92.5899 103.758 90.7569 105.197 89.3183C106.635 87.8798 108.468 86.9004 110.464 86.5041C112.459 86.1078 114.527 86.3124 116.406 87.0921C118.285 87.8717 119.891 89.1913 121.02 90.8839C122.148 92.5764 122.75 94.5658 122.747 96.6002C122.744 99.3226 121.661 101.933 119.736 103.858C117.811 105.783 115.201 106.866 112.479 106.869ZM112.479 88.7613C110.928 88.7589 109.411 89.2166 108.12 90.0765C106.83 90.9364 105.823 92.1598 105.228 93.5919C104.633 95.0241 104.476 96.6006 104.777 98.1219C105.078 99.6433 105.823 101.041 106.919 102.139C108.015 103.236 109.412 103.984 110.933 104.287C112.454 104.591 114.03 104.436 115.463 103.843C116.896 103.251 118.121 102.246 118.983 100.956C119.845 99.6671 120.305 98.1511 120.305 96.6002C120.302 94.5243 119.477 92.5342 118.01 91.0652C116.543 89.5961 114.554 88.7678 112.479 88.7613Z" fill="#111827"/>
<path d="M112.479 102.253C111.36 102.253 110.267 101.922 109.338 101.301C108.408 100.679 107.684 99.7964 107.256 98.7634C106.828 97.7304 106.716 96.5937 106.934 95.4971C107.152 94.4005 107.691 93.3932 108.481 92.6026C109.272 91.812 110.279 91.2735 111.376 91.0554C112.472 90.8373 113.609 90.9492 114.642 91.3771C115.675 91.805 116.558 92.5296 117.179 93.4593C117.8 94.3889 118.132 95.4819 118.132 96.6C118.129 98.0983 117.532 99.5344 116.472 100.594C115.413 101.653 113.977 102.25 112.479 102.253ZM112.479 93.3888C111.843 93.3888 111.223 93.5771 110.694 93.93C110.166 94.2828 109.755 94.7844 109.512 95.3711C109.269 95.9579 109.205 96.6036 109.329 97.2265C109.453 97.8494 109.759 98.4216 110.208 98.8707C110.657 99.3198 111.229 99.6256 111.852 99.7495C112.475 99.8734 113.121 99.8099 113.707 99.5668C114.294 99.3238 114.796 98.9122 115.149 98.3841C115.501 97.856 115.69 97.2351 115.69 96.6C115.687 95.7493 115.347 94.9344 114.746 94.3329C114.144 93.7314 113.329 93.392 112.479 93.3888Z" fill="#111827"/>
<path d="M123.504 81.9969C122.78 81.9969 122.072 81.7821 121.469 81.3796C120.867 80.9771 120.397 80.405 120.12 79.7357C119.843 79.0664 119.77 78.3298 119.912 77.6193C120.053 76.9087 120.402 76.256 120.914 75.7438C121.426 75.2315 122.079 74.8826 122.79 74.7413C123.5 74.5999 124.237 74.6725 124.906 74.9497C125.575 75.227 126.147 75.6965 126.55 76.2988C126.952 76.9012 127.167 77.6094 127.167 78.3339C127.167 79.3054 126.781 80.2371 126.094 80.924C125.408 81.611 124.476 81.9969 123.504 81.9969ZM123.504 77.1129C123.263 77.1129 123.027 77.1845 122.826 77.3187C122.625 77.4528 122.469 77.6435 122.376 77.8666C122.284 78.0897 122.26 78.3352 122.307 78.5721C122.354 78.8089 122.47 79.0265 122.641 79.1973C122.812 79.368 123.029 79.4843 123.266 79.5314C123.503 79.5786 123.748 79.5544 123.972 79.462C124.195 79.3695 124.385 79.213 124.52 79.0123C124.654 78.8115 124.725 78.5754 124.725 78.3339C124.716 78.0165 124.583 77.7152 124.355 77.4941C124.127 77.273 123.822 77.1494 123.504 77.1495V77.1129Z" fill="#111827"/>
<path d="M123.504 93.6087C122.78 93.6087 122.072 93.3939 121.469 92.9914C120.867 92.5889 120.397 92.0168 120.12 91.3475C119.843 90.6782 119.77 89.9417 119.912 89.2311C120.053 88.5206 120.402 87.8679 120.914 87.3556C121.426 86.8433 122.079 86.4944 122.79 86.3531C123.5 86.2118 124.237 86.2843 124.906 86.5615C125.575 86.8388 126.147 87.3083 126.55 87.9107C126.952 88.513 127.167 89.2212 127.167 89.9457C127.167 90.9172 126.781 91.8489 126.094 92.5359C125.408 93.2228 124.476 93.6087 123.504 93.6087ZM123.504 88.7247C123.263 88.7247 123.027 88.7963 122.826 88.9305C122.625 89.0647 122.469 89.2554 122.376 89.4785C122.284 89.7016 122.26 89.9471 122.307 90.1839C122.354 90.4208 122.47 90.6383 122.641 90.8091C122.812 90.9799 123.029 91.0961 123.266 91.1433C123.503 91.1904 123.748 91.1662 123.972 91.0738C124.195 90.9814 124.385 90.8249 124.52 90.6241C124.654 90.4233 124.725 90.1872 124.725 89.9457C124.716 89.6283 124.583 89.327 124.355 89.1059C124.127 88.8848 123.822 88.7612 123.504 88.7613V88.7247Z" fill="#111827"/>
<path d="M129.316 87.7967C128.592 87.7967 127.884 87.5819 127.281 87.1794C126.679 86.7769 126.209 86.2048 125.932 85.5355C125.655 84.8662 125.582 84.1296 125.724 83.4191C125.865 82.7085 126.214 82.0558 126.726 81.5436C127.238 81.0313 127.891 80.6824 128.602 80.5411C129.312 80.3998 130.049 80.4723 130.718 80.7495C131.387 81.0268 131.959 81.4963 132.362 82.0986C132.764 82.701 132.979 83.4092 132.979 84.1337C132.979 85.1052 132.593 86.0369 131.906 86.7238C131.219 87.4108 130.288 87.7967 129.316 87.7967ZM129.316 82.9127C129.075 82.9127 128.839 82.9843 128.638 83.1185C128.437 83.2526 128.281 83.4433 128.188 83.6664C128.096 83.8895 128.072 84.1351 128.119 84.3719C128.166 84.6088 128.282 84.8263 128.453 84.9971C128.624 85.1678 128.841 85.2841 129.078 85.3313C129.315 85.3784 129.56 85.3542 129.783 85.2618C130.007 85.1693 130.197 85.0129 130.331 84.8121C130.466 84.6113 130.537 84.3752 130.537 84.1337C130.525 83.8184 130.39 83.5202 130.163 83.3017C129.935 83.0832 129.632 82.9613 129.316 82.9615V82.9127Z" fill="#111827"/>
<path d="M117.692 87.7967C116.968 87.7967 116.26 87.5819 115.657 87.1794C115.055 86.7769 114.585 86.2048 114.308 85.5355C114.031 84.8662 113.958 84.1296 114.1 83.4191C114.241 82.7085 114.59 82.0558 115.102 81.5436C115.614 81.0313 116.267 80.6824 116.978 80.5411C117.688 80.3998 118.425 80.4723 119.094 80.7495C119.763 81.0268 120.335 81.4963 120.738 82.0986C121.14 82.701 121.355 83.4092 121.355 84.1337C121.355 85.1052 120.969 86.0369 120.282 86.7238C119.595 87.4108 118.664 87.7967 117.692 87.7967ZM117.692 82.9127C117.451 82.9127 117.215 82.9843 117.014 83.1185C116.813 83.2526 116.657 83.4433 116.564 83.6664C116.472 83.8895 116.448 84.1351 116.495 84.3719C116.542 84.6088 116.658 84.8263 116.829 84.9971C117 85.1678 117.217 85.2841 117.454 85.3313C117.691 85.3784 117.936 85.3542 118.16 85.2618C118.383 85.1693 118.573 85.0129 118.708 84.8121C118.842 84.6113 118.913 84.3752 118.913 84.1337C118.901 83.8184 118.766 83.5202 118.539 83.3017C118.311 83.0832 118.008 82.9613 117.692 82.9615V82.9127Z" fill="#111827"/>
<path d="M82.1733 92.9738H78.8888C78.4161 92.9738 77.9626 92.786 77.6283 92.4517C77.294 92.1174 77.1062 91.6639 77.1062 91.1911V87.6014H73.5286C73.2935 87.603 73.0604 87.5581 72.8427 87.4692C72.625 87.3803 72.4271 87.2493 72.2602 87.0836C72.0934 86.9179 71.961 86.7208 71.8706 86.5038C71.7803 86.2867 71.7338 86.0539 71.7338 85.8187V82.4976C71.7289 82.2594 71.7718 82.0226 71.8599 81.8013C71.9481 81.58 72.0797 81.3785 72.247 81.2089C72.4144 81.0393 72.614 80.905 72.8341 80.8138C73.0542 80.7227 73.2904 80.6766 73.5286 80.6783H77.1062V77.0886C77.1062 76.6158 77.294 76.1623 77.6283 75.828C77.9626 75.4937 78.4161 75.3059 78.8888 75.3059H82.1733C82.6473 75.3059 83.102 75.4933 83.4382 75.8273C83.7745 76.1612 83.965 76.6146 83.9682 77.0886V80.6783H87.5457C88.0185 80.6783 88.472 80.8661 88.8063 81.2004C89.1406 81.5348 89.3284 81.9882 89.3284 82.461V85.7821C89.3284 86.2549 89.1406 86.7083 88.8063 87.0426C88.472 87.3769 88.0185 87.5648 87.5457 87.5648H84.0048V91.1545C84.0082 91.3954 83.963 91.6344 83.872 91.8575C83.7809 92.0805 83.646 92.2829 83.4751 92.4527C83.3042 92.6225 83.1008 92.7561 82.8772 92.8456C82.6535 92.9351 82.4142 92.9787 82.1733 92.9738ZM79.5116 90.5318H81.5628V86.9543C81.5611 86.715 81.6076 86.4778 81.6995 86.2568C81.7914 86.0359 81.9268 85.8357 82.0977 85.6682C82.2686 85.5007 82.4715 85.3693 82.6943 85.2819C82.917 85.1945 83.1551 85.1528 83.3943 85.1594H86.9719V83.1203H83.3943C83.1592 83.1203 82.9264 83.0738 82.7093 82.9834C82.4922 82.8931 82.2952 82.7607 82.1295 82.5939C81.9638 82.427 81.8327 82.2291 81.7439 82.0114C81.655 81.7937 81.6101 81.5606 81.6117 81.3254V77.7479H79.5482V81.3254C79.5482 81.8015 79.3591 82.258 79.0225 82.5946C78.6859 82.9312 78.2293 83.1203 77.7533 83.1203H74.1758V85.1228H77.7533C78.2293 85.1228 78.6859 85.3119 79.0225 85.6485C79.3591 85.9851 79.5482 86.4416 79.5482 86.9176L79.5116 90.5318Z" fill="#111827"/>
<path d="M96.4224 91.1055H90.4151C90.1139 91.1055 89.8251 90.9859 89.6121 90.773C89.3992 90.56 89.2795 90.2712 89.2795 89.97C89.2795 89.6689 89.3992 89.38 89.6121 89.1671C89.8251 88.9541 90.1139 88.8345 90.4151 88.8345H96.4224C96.7236 88.8345 97.0124 88.9541 97.2253 89.1671C97.4383 89.38 97.5579 89.6689 97.5579 89.97C97.5579 90.2712 97.4383 90.56 97.2253 90.773C97.0124 90.9859 96.7236 91.1055 96.4224 91.1055Z" fill="#111827"/>
<path d="M94.0415 94.5001H90.8302C90.5291 94.5001 90.2402 94.3804 90.0273 94.1675C89.8143 93.9545 89.6947 93.6657 89.6947 93.3645C89.6947 93.0634 89.8143 92.7745 90.0273 92.5616C90.2402 92.3486 90.5291 92.229 90.8302 92.229H94.0415C94.3426 92.229 94.6315 92.3486 94.8444 92.5616C95.0574 92.7745 95.177 93.0634 95.177 93.3645C95.177 93.6657 95.0574 93.9545 94.8444 94.1675C94.6315 94.3804 94.3426 94.5001 94.0415 94.5001Z" fill="#111827"/>
<path d="M98.9256 63.0226C98.6244 63.0226 98.3356 62.903 98.1226 62.6901C97.9097 62.4771 97.79 62.1883 97.79 61.8871V60.9347C97.79 59.9633 97.4041 59.0315 96.7172 58.3446C96.0302 57.6577 95.0985 57.2717 94.127 57.2717H82.7839C81.2036 57.2717 79.6881 56.644 78.5706 55.5265C77.4532 54.4091 76.8254 52.8935 76.8254 51.3132C76.8254 49.733 77.4532 48.2174 78.5706 47.1C79.6881 45.9825 81.2036 45.3548 82.7839 45.3548H104.432C105.683 45.3574 106.922 45.107 108.074 44.6186C109.226 44.1303 110.267 43.4141 111.135 42.513C112.003 41.612 112.68 40.5448 113.125 39.3755C113.57 38.2062 113.773 36.959 113.724 35.7089C113.718 35.5597 113.742 35.411 113.794 35.2711C113.846 35.1311 113.925 35.0028 114.026 34.8934C114.128 34.784 114.25 34.6956 114.386 34.6334C114.521 34.5711 114.668 34.5362 114.817 34.5306C114.966 34.525 115.115 34.5488 115.255 34.6007C115.395 34.6526 115.523 34.7315 115.632 34.833C115.742 34.9344 115.83 35.0565 115.892 35.1921C115.955 35.3277 115.99 35.4743 115.995 35.6234C116.053 37.178 115.796 38.7282 115.241 40.1815C114.686 41.6347 113.843 42.9611 112.764 44.0815C111.685 45.2018 110.391 46.0931 108.959 46.7021C107.528 47.3111 105.988 47.6252 104.432 47.6258H82.7839C81.8124 47.6258 80.8807 48.0117 80.1938 48.6987C79.5068 49.3856 79.1209 50.3173 79.1209 51.2888C79.1209 52.2603 79.5068 53.192 80.1938 53.879C80.8807 54.5659 81.8124 54.9518 82.7839 54.9518H94.1026C95.6819 54.9551 97.1956 55.5839 98.3123 56.7006C99.4291 57.8173 100.058 59.331 100.061 60.9103V61.8627C100.064 62.0139 100.037 62.1642 99.9818 62.3048C99.9262 62.4454 99.843 62.5734 99.7373 62.6815C99.6315 62.7895 99.5052 62.8754 99.3658 62.9339C99.2264 62.9925 99.0768 63.0227 98.9256 63.0226Z" fill="#111827"/>
<path d="M105.006 70.6539H94.4567V61.1423H105.006V70.6539ZM96.8987 68.2119H102.564V63.5843H96.8987V68.2119Z" fill="#111827"/>
</g>
<path d="M69.472 145.66C68.4693 145.66 67.5947 145.425 66.848 144.956C66.112 144.487 65.5413 143.82 65.136 142.956C64.7307 142.092 64.528 141.073 64.528 139.9C64.528 138.727 64.7307 137.708 65.136 136.844C65.5413 135.98 66.1173 135.313 66.864 134.844C67.6213 134.375 68.5067 134.14 69.52 134.14C70.3413 134.14 71.072 134.3 71.712 134.62C72.352 134.94 72.8213 135.388 73.12 135.964L72.128 136.892C71.552 136.007 70.6933 135.564 69.552 135.564C68.5067 135.564 67.7013 135.943 67.136 136.7C66.5707 137.447 66.288 138.513 66.288 139.9C66.288 141.276 66.5653 142.343 67.12 143.1C67.6747 143.857 68.4587 144.236 69.472 144.236C70.0907 144.236 70.6187 144.129 71.056 143.916C71.4933 143.692 71.8507 143.356 72.128 142.908L73.12 143.836C72.8107 144.412 72.336 144.86 71.696 145.18C71.0667 145.5 70.3253 145.66 69.472 145.66ZM78.0589 145.66C76.8322 145.66 75.8669 145.292 75.1629 144.556C74.4589 143.809 74.1069 142.791 74.1069 141.5C74.1069 140.209 74.4589 139.196 75.1629 138.46C75.8669 137.713 76.8322 137.34 78.0589 137.34C79.2855 137.34 80.2509 137.713 80.9549 138.46C81.6695 139.196 82.0269 140.209 82.0269 141.5C82.0269 142.791 81.6695 143.809 80.9549 144.556C80.2509 145.292 79.2855 145.66 78.0589 145.66ZM78.0589 144.46C78.7949 144.46 79.3762 144.199 79.8029 143.676C80.2295 143.143 80.4429 142.417 80.4429 141.5C80.4429 140.583 80.2295 139.863 79.8029 139.34C79.3762 138.807 78.7949 138.54 78.0589 138.54C77.3122 138.54 76.7309 138.807 76.3149 139.34C75.8989 139.863 75.6909 140.583 75.6909 141.5C75.6909 142.417 75.8989 143.143 76.3149 143.676C76.7309 144.199 77.3122 144.46 78.0589 144.46ZM83.4741 139.548C83.4741 138.556 83.4528 137.873 83.4101 137.5H84.8821C84.9355 137.895 84.9621 138.364 84.9621 138.908H85.0101C85.2235 138.428 85.5701 138.049 86.0501 137.772C86.5408 137.484 87.0848 137.34 87.6821 137.34C89.5595 137.34 90.4981 138.556 90.4981 140.988V145.5H88.9141V140.972C88.9141 140.172 88.7808 139.58 88.5141 139.196C88.2475 138.812 87.8368 138.62 87.2821 138.62C86.6315 138.62 86.0981 138.855 85.6821 139.324C85.2661 139.793 85.0581 140.391 85.0581 141.116V145.5H83.4741V139.548ZM95.4375 145.66C94.6908 145.66 94.1042 145.436 93.6775 144.988C93.2615 144.529 93.0535 143.9 93.0535 143.1V138.716H91.6135V137.5H93.0535V135.388L94.5735 134.94H94.6375V137.5H96.9255V138.716H94.6375V142.908C94.6375 143.431 94.7388 143.815 94.9415 144.06C95.1548 144.305 95.4748 144.428 95.9015 144.428C96.3282 144.428 96.7068 144.364 97.0375 144.236L97.1335 145.372C96.7388 145.564 96.1735 145.66 95.4375 145.66ZM98.6955 139.452C98.6955 138.545 98.6795 137.895 98.6475 137.5H100.136C100.178 137.927 100.2 138.396 100.2 138.908V139.068H100.248C100.461 138.524 100.797 138.103 101.256 137.804C101.725 137.495 102.274 137.34 102.904 137.34C103.074 137.34 103.229 137.356 103.368 137.388V138.668C103.293 138.647 103.128 138.636 102.872 138.636C102.402 138.636 101.965 138.775 101.56 139.052C101.165 139.319 100.85 139.687 100.616 140.156C100.392 140.615 100.28 141.121 100.28 141.676V145.5H98.6955V139.452ZM107.903 145.66C106.676 145.66 105.711 145.292 105.007 144.556C104.303 143.809 103.951 142.791 103.951 141.5C103.951 140.209 104.303 139.196 105.007 138.46C105.711 137.713 106.676 137.34 107.903 137.34C109.129 137.34 110.095 137.713 110.799 138.46C111.513 139.196 111.871 140.209 111.871 141.5C111.871 142.791 111.513 143.809 110.799 144.556C110.095 145.292 109.129 145.66 107.903 145.66ZM107.903 144.46C108.639 144.46 109.22 144.199 109.647 143.676C110.073 143.143 110.287 142.417 110.287 141.5C110.287 140.583 110.073 139.863 109.647 139.34C109.22 138.807 108.639 138.54 107.903 138.54C107.156 138.54 106.575 138.807 106.159 139.34C105.743 139.863 105.535 140.583 105.535 141.5C105.535 142.417 105.743 143.143 106.159 143.676C106.575 144.199 107.156 144.46 107.903 144.46ZM115.318 145.66C114.71 145.66 114.251 145.489 113.942 145.148C113.633 144.796 113.478 144.279 113.478 143.596V133.628H115.062V143.596C115.062 143.927 115.121 144.161 115.238 144.3C115.366 144.439 115.569 144.508 115.846 144.508C116.07 144.508 116.347 144.439 116.678 144.3L116.918 145.212C116.502 145.511 115.969 145.66 115.318 145.66ZM120.021 145.66C119.413 145.66 118.954 145.489 118.645 145.148C118.336 144.796 118.181 144.279 118.181 143.596V133.628H119.765V143.596C119.765 143.927 119.824 144.161 119.941 144.3C120.069 144.439 120.272 144.508 120.549 144.508C120.773 144.508 121.05 144.439 121.381 144.3L121.621 145.212C121.205 145.511 120.672 145.66 120.021 145.66ZM129.216 142.108H123.52C123.605 142.833 123.834 143.383 124.208 143.756C124.592 144.129 125.114 144.316 125.776 144.316C126.714 144.316 127.472 143.948 128.048 143.212L128.928 144.06C128.618 144.561 128.176 144.956 127.6 145.244C127.024 145.521 126.389 145.66 125.696 145.66C124.501 145.66 123.568 145.297 122.896 144.572C122.234 143.836 121.904 142.817 121.904 141.516C121.904 140.215 122.24 139.196 122.912 138.46C123.584 137.713 124.506 137.34 125.68 137.34C126.789 137.34 127.653 137.708 128.272 138.444C128.901 139.169 129.216 140.188 129.216 141.5V142.108ZM127.712 140.86C127.712 140.167 127.525 139.623 127.152 139.228C126.778 138.833 126.266 138.636 125.616 138.636C125.008 138.636 124.522 138.839 124.16 139.244C123.797 139.649 123.578 140.225 123.504 140.972H127.712V140.86ZM130.774 139.452C130.774 138.545 130.758 137.895 130.726 137.5H132.214C132.256 137.927 132.278 138.396 132.278 138.908V139.068H132.326C132.539 138.524 132.875 138.103 133.334 137.804C133.803 137.495 134.352 137.34 134.982 137.34C135.152 137.34 135.307 137.356 135.446 137.388V138.668C135.371 138.647 135.206 138.636 134.95 138.636C134.48 138.636 134.043 138.775 133.638 139.052C133.243 139.319 132.928 139.687 132.694 140.156C132.47 140.615 132.358 141.121 132.358 141.676V145.5H130.774V139.452Z" fill="#111827"/>
<defs>
<clipPath id="clip0_22_811">
<rect width="82.8327" height="80" fill="white" transform="translate(58.5836 34.5)"/>
</clipPath>
</defs>
</svg>
