<svg width="32" height="32" viewBox="0 0 32 32" fill="none" xmlns="http://www.w3.org/2000/svg">
<path d="M12.25 24.25C12.6642 24.25 13 23.9142 13 23.5C13 23.0858 12.6642 22.75 12.25 22.75C11.8358 22.75 11.5 23.0858 11.5 23.5C11.5 23.9142 11.8358 24.25 12.25 24.25Z" stroke="#111827" stroke-width="1.5" stroke-linecap="round" stroke-linejoin="round"/>
<path d="M22.75 24.25C23.1642 24.25 23.5 23.9142 23.5 23.5C23.5 23.0858 23.1642 22.75 22.75 22.75C22.3358 22.75 22 23.0858 22 23.5C22 23.9142 22.3358 24.25 22.75 24.25Z" stroke="black" stroke-width="1.5" stroke-linecap="round" stroke-linejoin="round"/>
<path d="M6.25 7.75H9.25L11.5 20.5H23.5" stroke="#111827" stroke-width="1.5" stroke-linecap="round" stroke-linejoin="round"/>
<path d="M11.5 16.5H23.1925C23.2792 16.5001 23.3633 16.4701 23.4304 16.4151C23.4975 16.3601 23.5434 16.2836 23.5605 16.1986L24.9105 9.44859C24.9214 9.39417 24.92 9.338 24.9066 9.28414C24.8931 9.23029 24.8679 9.18009 24.8327 9.13717C24.7975 9.09426 24.7532 9.05969 24.703 9.03597C24.6528 9.01225 24.598 8.99996 24.5425 9H10" stroke="#111827" stroke-width="1.5" stroke-linecap="round" stroke-linejoin="round"/>
</svg>
