<svg width="8" height="13" viewBox="0 0 8 13" fill="none" xmlns="http://www.w3.org/2000/svg">
<path d="M2.70873 12.3038V6.75026H0.839844V4.58594H2.70873V2.98981C2.70873 1.13752 3.84005 0.128906 5.49242 0.128906C6.28392 0.128906 6.96418 0.187836 7.16243 0.214175V2.14993L6.01642 2.15045C5.11776 2.15045 4.94376 2.57748 4.94376 3.20411V4.58594H7.08697L6.80791 6.75026H4.94376V12.3038H2.70873Z" fill="black"/>
<path d="M4.44376 6.75026V11.8038H3.20873V6.75026V6.25026H2.70873H1.33984V5.08594H2.70873H3.20873V4.58594V2.98981C3.20873 2.16704 3.45762 1.5908 3.83241 1.22036C4.20876 0.848394 4.76771 0.628906 5.49242 0.628906C5.94735 0.628906 6.36251 0.648965 6.66243 0.670165V1.65016L6.01642 1.65045C6.01634 1.65045 6.01626 1.65045 6.01619 1.65045C5.50035 1.65049 5.05342 1.77247 4.76061 2.12026C4.48399 2.44881 4.44376 2.8694 4.44376 3.20411V4.58594V5.08594H4.94376H6.51836L6.36824 6.25026H4.94376H4.44376V6.75026Z" stroke="black" stroke-opacity="0.2"/>
</svg>
