<svg width="32" height="32" viewBox="0 0 32 32" fill="none" xmlns="http://www.w3.org/2000/svg">
<rect x="0.00488281" width="32" height="32" rx="16" fill="#14B8A6"/>
<path d="M21.0049 23V21.3333C21.0049 20.4493 20.6958 19.6014 20.1457 18.9763C19.5956 18.3512 18.8495 18 18.0715 18H12.9382C12.1602 18 11.4141 18.3512 10.864 18.9763C10.3139 19.6014 10.0049 20.4493 10.0049 21.3333V23" stroke="white" stroke-width="1.5" stroke-linecap="round" stroke-linejoin="round"/>
<path d="M16.0049 15C17.6617 15 19.0049 13.6569 19.0049 12C19.0049 10.3431 17.6617 9 16.0049 9C14.348 9 13.0049 10.3431 13.0049 12C13.0049 13.6569 14.348 15 16.0049 15Z" stroke="white" stroke-width="1.5" stroke-linecap="round" stroke-linejoin="round"/>
</svg>
