<svg width="80" height="81" viewBox="0 0 80 81" fill="none" xmlns="http://www.w3.org/2000/svg">
<g clip-path="url(#clip0_22_1307)">
<path d="M39.9881 22.7168C36.4709 22.7168 33.0327 23.7598 30.1083 25.7138C27.1839 27.6678 24.9046 30.4452 23.5586 33.6946C22.2127 36.944 21.8605 40.5196 22.5467 43.9692C23.2328 47.4188 24.9265 50.5874 27.4135 53.0744C29.9005 55.5614 33.0691 57.2551 36.5187 57.9413C39.9683 58.6274 43.5439 58.2753 46.7934 56.9293C50.0428 55.5834 52.8201 53.3041 54.7742 50.3796C56.7282 47.4552 57.7711 44.017 57.7711 40.4999C57.7711 35.7835 55.8976 31.2603 52.5626 27.9253C49.2276 24.5904 44.7044 22.7168 39.9881 22.7168ZM39.9881 48.6027C38.3855 48.6027 36.8189 48.1275 35.4864 47.2371C34.1539 46.3468 33.1154 45.0813 32.5021 43.6007C31.8888 42.1201 31.7283 40.4909 32.041 38.9191C32.3536 37.3473 33.1253 35.9035 34.2585 34.7704C35.3917 33.6372 36.8355 32.8654 38.4073 32.5528C39.9791 32.2402 41.6083 32.4006 43.0889 33.0139C44.5695 33.6272 45.8349 34.6657 46.7253 35.9982C47.6156 37.3307 48.0908 38.8973 48.0908 40.4999C48.0924 41.5644 47.8839 42.6188 47.4773 43.6026C47.0706 44.5863 46.4738 45.4802 45.7211 46.2329C44.9684 46.9856 44.0745 47.5824 43.0907 47.9891C42.1069 48.3957 41.0526 48.6042 39.9881 48.6027Z" fill="#14B8A6"/>
<path d="M80.0957 38.8087C80.1875 44.119 79.2209 49.3944 77.2522 54.3271C75.2835 59.2598 72.3522 63.7511 68.6294 67.5389C64.9065 71.3267 60.4665 74.3352 55.5686 76.3888C50.6706 78.4425 45.4128 79.5001 40.1017 79.5001C34.7906 79.5001 29.5327 78.4425 24.6348 76.3888C19.7369 74.3352 15.2969 71.3267 11.574 67.5389C7.85115 63.7511 4.91985 59.2598 2.95118 54.3271C0.982504 49.3944 0.0158725 44.119 0.107671 38.8087C0.107671 37.781 0.107667 36.7412 0.215226 35.7254C1.01163 45.7575 5.55921 55.1212 12.9515 61.9499C20.3439 68.7786 30.038 72.5709 40.1017 72.5709C50.1654 72.5709 59.8595 68.7786 67.2519 61.9499C74.6442 55.1212 79.1918 45.7575 79.9882 35.7254C80.0599 36.7412 80.0957 37.781 80.0957 38.8087Z" fill="#14B8A6"/>
<path d="M39.988 0.488037C32.0768 0.488037 24.3432 2.83399 17.7652 7.22925C11.1873 11.6245 6.06038 17.8717 3.03287 25.1807C0.00536594 32.4897 -0.786764 40.5324 0.756645 48.2917C2.30005 56.0509 6.10967 63.1782 11.7038 68.7723C17.2979 74.3664 24.4252 78.176 32.1844 79.7195C39.9437 81.2629 47.9863 80.4707 55.2954 77.4432C62.6044 74.4157 68.8516 69.2888 73.2468 62.7109C77.6421 56.1329 79.988 48.3993 79.988 40.488C79.988 29.8794 75.7738 19.7052 68.2723 12.2038C60.7709 4.70231 50.5967 0.488037 39.988 0.488037ZM39.988 78.2652C30.0774 78.1675 20.602 74.1789 13.605 67.1594C6.60803 60.1399 2.64991 50.6518 2.58405 40.7409C2.5182 30.8299 6.34991 21.2901 13.253 14.1782C20.1561 7.06637 29.5776 2.95224 39.4861 2.72288H39.988C50.0072 2.72288 59.6159 6.70295 66.7005 13.7875C73.7851 20.8721 77.7652 30.4809 77.7652 40.5C77.7652 50.5191 73.7851 60.1279 66.7005 67.2124C59.6159 74.297 50.0072 78.2771 39.988 78.2771V78.2652Z" fill="#111827"/>
<path d="M9.1306 40.1894C8.83583 40.1894 8.55315 40.0723 8.34471 39.8638C8.13627 39.6554 8.01917 39.3727 8.01917 39.0779C8.02865 30.8938 11.284 23.0475 17.0711 17.2604C22.8582 11.4733 30.7044 8.21798 38.8886 8.2085C39.1834 8.2085 39.4661 8.3256 39.6745 8.53403C39.8829 8.74247 40.0001 9.02517 40.0001 9.31994C40.0001 9.61471 39.8829 9.89741 39.6745 10.1058C39.4661 10.3143 39.1834 10.4314 38.8886 10.4314C31.2816 10.4314 23.9861 13.4533 18.6071 18.8323C13.2281 24.2113 10.2062 31.5067 10.2062 39.1138C10.1972 39.3962 10.081 39.6646 9.88122 39.8644C9.68142 40.0642 9.41302 40.1804 9.1306 40.1894Z" fill="#111827"/>
<path d="M18.1416 39.9264C17.858 39.9299 17.584 39.8237 17.3769 39.6299C17.1698 39.4362 17.0455 39.1699 17.0301 38.8867C16.8445 35.8732 17.3288 32.8561 18.4483 30.0522C19.5677 27.2483 21.2946 24.7272 23.5046 22.6703C25.7147 20.6134 28.353 19.0717 31.23 18.1561C34.1069 17.2404 37.151 16.9736 40.1434 17.3748C40.2901 17.3945 40.4316 17.4428 40.5596 17.5171C40.6877 17.5914 40.7999 17.6901 40.8898 17.8078C40.9797 17.9254 41.0455 18.0596 41.0835 18.2027C41.1215 18.3458 41.131 18.4949 41.1114 18.6417C41.0918 18.7884 41.0434 18.9298 40.9692 19.0579C40.8949 19.186 40.7961 19.2981 40.6785 19.388C40.5609 19.4779 40.4266 19.5438 40.2836 19.5818C40.1405 19.6198 39.9913 19.6293 39.8446 19.6097C37.1824 19.2522 34.474 19.4884 31.9138 20.3013C29.3536 21.1142 27.0051 22.4837 25.0367 24.3116C23.0684 26.1394 21.529 28.3802 20.529 30.8733C19.5291 33.3664 19.0933 36.0499 19.253 38.7313C19.2644 38.8783 19.2464 39.026 19.2001 39.166C19.1538 39.306 19.0802 39.4353 18.9834 39.5466C18.8866 39.6578 18.7687 39.7486 18.6365 39.8139C18.5043 39.8791 18.3604 39.9173 18.2133 39.9264H18.1416Z" fill="#111827"/>
<path d="M44.0036 73.389C43.7088 73.389 43.4261 73.2719 43.2176 73.0635C43.0092 72.8551 42.8921 72.5724 42.8921 72.2776C42.8921 71.9828 43.0092 71.7001 43.2176 71.4917C43.4261 71.2832 43.7088 71.1661 44.0036 71.1661C51.6106 71.1661 58.9061 68.1443 64.2851 62.7653C69.6641 57.3863 72.686 50.0908 72.686 42.4837C72.686 42.189 72.803 41.9063 73.0115 41.6978C73.2199 41.4894 73.5026 41.3723 73.7974 41.3723C74.0922 41.3723 74.3749 41.4894 74.5833 41.6978C74.7917 41.9063 74.9088 42.189 74.9088 42.4837C74.9088 50.6803 71.6528 58.5412 65.8569 64.3371C60.061 70.133 52.2002 73.389 44.0036 73.389Z" fill="#111827"/>
<path d="M45.1031 64.3421H44.1828C44.0346 64.3363 43.889 64.3003 43.7552 64.2362C43.6214 64.172 43.5021 64.0812 43.4047 63.9692C43.3073 63.8573 43.2339 63.7266 43.1889 63.5852C43.1439 63.4438 43.1283 63.2947 43.1431 63.147C43.1522 62.9999 43.1904 62.856 43.2556 62.7238C43.3208 62.5916 43.4117 62.4737 43.5229 62.3769C43.6341 62.2801 43.7635 62.2065 43.9035 62.1602C44.0434 62.1139 44.1912 62.0959 44.3382 62.1073C47.027 62.278 49.7201 61.8502 52.2236 60.8545C54.727 59.8588 56.9784 58.3201 58.8155 56.3493C60.6525 54.3785 62.0294 52.0248 62.847 49.4576C63.6646 46.8905 63.9024 44.1739 63.5434 41.5038C63.5163 41.2194 63.601 40.9356 63.7794 40.7126C63.9579 40.4895 64.2162 40.3446 64.4995 40.3087C64.7833 40.2846 65.0655 40.3703 65.2879 40.5482C65.5103 40.7261 65.6559 40.9826 65.6946 41.2647C66.0883 44.1814 65.8462 47.1487 64.985 49.9629C64.1238 52.7772 62.6639 55.3718 60.7054 57.5687C58.747 59.7656 56.3364 61.5127 53.6391 62.6901C50.9418 63.8675 48.0217 64.4474 45.0792 64.3899L45.1031 64.3421Z" fill="#111827"/>
<path d="M39.9881 22.7168C36.4709 22.7168 33.0327 23.7598 30.1083 25.7138C27.1839 27.6678 24.9046 30.4452 23.5586 33.6946C22.2127 36.944 21.8605 40.5196 22.5467 43.9692C23.2328 47.4188 24.9265 50.5874 27.4135 53.0744C29.9005 55.5614 33.0691 57.2551 36.5187 57.9413C39.9683 58.6274 43.5439 58.2753 46.7934 56.9293C50.0428 55.5834 52.8201 53.3041 54.7742 50.3796C56.7282 47.4552 57.7711 44.017 57.7711 40.4999C57.7711 35.7835 55.8976 31.2603 52.5626 27.9253C49.2276 24.5904 44.7044 22.7168 39.9881 22.7168ZM39.9881 56.0601C36.9396 56.0581 33.9591 55.1593 31.4178 53.4757C28.8764 51.7921 26.8865 49.3981 25.6959 46.5918C24.5053 43.7855 24.1665 40.6909 24.7219 37.6935C25.2772 34.696 26.7021 31.9282 28.8191 29.7347C30.936 27.5412 33.6516 26.019 36.6274 25.3576C39.6032 24.6962 42.7078 24.9248 45.5546 26.0151C48.4014 27.1053 50.8646 29.009 52.6374 31.489C54.4101 33.9689 55.4141 36.9156 55.5243 39.9621C55.5599 40.1275 55.5599 40.2986 55.5243 40.464C55.5322 42.5093 55.1362 44.536 54.3589 46.4279C53.5817 48.3197 52.4385 50.0395 50.9951 51.4885C49.5516 52.9375 47.8362 54.0873 45.9474 54.8718C44.0585 55.6563 42.0333 56.0601 39.9881 56.0601Z" fill="#111827"/>
<path d="M39.988 32.3972C38.3854 32.3972 36.8189 32.8724 35.4864 33.7628C34.1539 34.6531 33.1153 35.9186 32.5021 37.3992C31.8888 38.8798 31.7283 40.509 32.0409 42.0808C32.3536 43.6526 33.1253 45.0963 34.2585 46.2295C35.3917 47.3627 36.8355 48.1344 38.4073 48.4471C39.9791 48.7597 41.6082 48.5993 43.0888 47.986C44.5694 47.3727 45.8349 46.3342 46.7252 45.0017C47.6156 43.6692 48.0908 42.1026 48.0908 40.5C48.0908 38.351 47.2371 36.29 45.7176 34.7705C44.198 33.2509 42.137 32.3972 39.988 32.3972ZM39.988 46.3799C38.4286 46.3799 36.933 45.7604 35.8303 44.6577C34.7276 43.555 34.1082 42.0594 34.1082 40.5C34.1082 38.9405 34.7276 37.445 35.8303 36.3423C36.933 35.2396 38.4286 34.6201 39.988 34.6201H40.0956C40.1632 34.6143 40.2312 34.6143 40.2988 34.6201C41.8149 34.7158 43.2348 35.3958 44.2599 36.517C45.285 37.6382 45.8352 39.1132 45.795 40.6319C45.7547 42.1505 45.1271 43.5943 44.0441 44.6596C42.9611 45.725 41.5071 46.3288 39.988 46.344V46.3799Z" fill="#111827"/>
</g>
<defs>
<clipPath id="clip0_22_1307">
<rect width="80" height="80" fill="white" transform="translate(0 0.5)"/>
</clipPath>
</defs>
</svg>
