<svg width="84" height="81" viewBox="0 0 84 81" fill="none" xmlns="http://www.w3.org/2000/svg">
<g clip-path="url(#clip0_22_822)">
<path d="M45.7851 32.71H37.6776V35.4328H45.7851V32.71Z" fill="#14B8A6"/>
<path d="M46.3468 61.5989L45.956 61.5012H31.0964C21.3284 64.4683 13.3797 78.7662 4.5763 74.8346C2.95236 74.102 2.13429 72.1606 1.91451 69.4988C1.60926 74.1142 2.24418 77.6307 4.5763 78.6807C13.3797 82.6246 21.3284 68.3266 31.0964 65.3596H45.956H46.2124C46.0212 64.1087 46.0667 62.833 46.3468 61.5989Z" fill="#14B8A6"/>
<path d="M82.2808 69.4987C82.0488 72.1605 81.2552 74.1019 79.619 74.8345C73.6239 77.5207 68.0073 71.7209 61.9511 66.8247C61.4843 67.7339 60.8694 68.5592 60.1318 69.2667C60.2432 69.3224 60.3494 69.3878 60.4493 69.4621C67.0915 74.5292 73.1355 81.5622 79.619 78.6562C81.9511 77.6306 82.5983 74.1141 82.2808 69.4987Z" fill="#14B8A6"/>
<path d="M7.57994 80.5C6.34955 80.4951 5.13425 80.2288 4.01462 79.7186C2.21975 78.9127 -3.23813 76.4585 5.04026 49.1936C6.34115 44.8643 9.0096 41.073 12.646 38.3876C16.2823 35.7022 20.6908 34.2671 25.2112 34.2973H58.8009C63.3188 34.2717 67.7236 35.7088 71.3571 38.3937C74.9906 41.0787 77.6576 44.8674 78.9597 49.1936C87.2381 76.4585 81.7802 78.9127 79.9853 79.7186C74.1001 82.356 68.6666 77.8138 63.4041 73.4304C62.1831 72.4048 60.9621 71.3547 59.6556 70.3901C59.416 70.2072 59.2589 69.9365 59.2188 69.6377C59.1787 69.3389 59.259 69.0364 59.442 68.7967C59.6249 68.5571 59.8956 68.4 60.1944 68.3599C60.4932 68.3198 60.7957 68.4001 61.0354 68.5831C62.3419 69.5843 63.6239 70.6465 64.8571 71.6844C69.8022 75.8114 74.4664 79.7064 79.0574 77.6429C82.4517 76.1166 81.6092 65.7259 76.7863 49.8529C75.5897 46.0144 73.201 42.6571 69.9669 40.2683C66.7328 37.8795 62.8216 36.5835 58.8009 36.5684H25.2112C21.179 36.5421 17.2467 37.822 14.0025 40.2167C10.7583 42.6113 8.37656 45.992 7.21364 49.8529C2.32963 65.7259 1.53598 76.1166 4.94258 77.6429C9.53354 79.7064 14.1978 75.8114 19.1428 71.6844C22.8058 68.6563 26.4688 65.5794 30.6569 64.2729C30.766 64.2552 30.8774 64.2552 30.9865 64.2729H45.8583C46.1595 64.2729 46.4483 64.3926 46.6613 64.6055C46.8742 64.8185 46.9939 65.1073 46.9939 65.4085C46.9939 65.7096 46.8742 65.9984 46.6613 66.2114C46.4483 66.4243 46.1595 66.544 45.8583 66.544H31.2063C27.5433 67.765 24.0268 70.6343 20.6324 73.4671C16.42 76.9103 12.1221 80.5 7.57994 80.5Z" fill="#111827"/>
<path d="M54.4786 72.8688C52.4442 72.8712 50.4548 72.27 48.7623 71.1413C47.0697 70.0125 45.7501 68.407 44.9705 66.5279C44.1908 64.6488 43.9862 62.5807 44.3825 60.5853C44.7788 58.5899 45.7582 56.7569 47.1967 55.3183C48.6353 53.8798 50.4683 52.9004 52.4637 52.5041C54.4591 52.1078 56.5273 52.3124 58.4063 53.0921C60.2854 53.8717 61.8909 55.1913 63.0197 56.8839C64.1484 58.5764 64.7496 60.5658 64.7472 62.6002C64.744 65.3226 63.6611 67.9326 61.736 69.8576C59.811 71.7827 57.201 72.8656 54.4786 72.8688ZM54.4786 54.7613C52.9277 54.7589 51.4109 55.2166 50.1202 56.0765C48.8296 56.9364 47.8229 58.1598 47.2278 59.5919C46.6326 61.0241 46.4756 62.6006 46.7767 64.1219C47.0778 65.6433 47.8234 67.0412 48.9192 68.1387C50.015 69.2362 51.4117 69.984 52.9326 70.2875C54.4535 70.5909 56.0303 70.4364 57.4633 69.8435C58.8964 69.2505 60.1214 68.2458 60.9833 66.9565C61.8452 65.6671 62.3052 64.1511 62.3052 62.6002C62.302 60.5243 61.4768 58.5342 60.01 57.0652C58.5433 55.5961 56.5545 54.7678 54.4786 54.7613Z" fill="#111827"/>
<path d="M54.4786 68.2533C53.3605 68.2533 52.2675 67.9217 51.3378 67.3005C50.4081 66.6793 49.6835 65.7964 49.2556 64.7634C48.8278 63.7304 48.7158 62.5937 48.9339 61.4971C49.1521 60.4005 49.6905 59.3932 50.4811 58.6026C51.2717 57.812 52.279 57.2735 53.3757 57.0554C54.4723 56.8373 55.609 56.9492 56.642 57.3771C57.675 57.805 58.5579 58.5296 59.179 59.4593C59.8002 60.3889 60.1318 61.4819 60.1318 62.6C60.1286 64.0983 59.5319 65.5344 58.4724 66.5939C57.413 67.6534 55.9769 68.25 54.4786 68.2533ZM54.4786 59.3888C53.8434 59.3888 53.2226 59.5771 52.6945 59.93C52.1664 60.2828 51.7548 60.7844 51.5118 61.3711C51.2687 61.9579 51.2051 62.6036 51.329 63.2265C51.4529 63.8494 51.7588 64.4216 52.2079 64.8707C52.657 65.3198 53.2292 65.6256 53.8521 65.7495C54.475 65.8734 55.1207 65.8099 55.7074 65.5668C56.2942 65.3238 56.7958 64.9122 57.1486 64.3841C57.5015 63.856 57.6898 63.2351 57.6898 62.6C57.6866 61.7493 57.3472 60.9344 56.7457 60.3329C56.1442 59.7314 55.3292 59.392 54.4786 59.3888Z" fill="#111827"/>
<path d="M65.5043 47.9969C64.7798 47.9969 64.0716 47.7821 63.4693 47.3796C62.8669 46.9771 62.3974 46.405 62.1201 45.7357C61.8429 45.0664 61.7704 44.3298 61.9117 43.6193C62.053 42.9087 62.4019 42.256 62.9142 41.7438C63.4265 41.2315 64.0791 40.8826 64.7897 40.7413C65.5003 40.5999 66.2368 40.6725 66.9061 40.9497C67.5754 41.227 68.1475 41.6965 68.55 42.2988C68.9525 42.9012 69.1673 43.6094 69.1673 44.3339C69.1673 45.3054 68.7814 46.2371 68.0944 46.924C67.4075 47.611 66.4758 47.9969 65.5043 47.9969ZM65.5043 43.1129C65.2628 43.1129 65.0267 43.1845 64.826 43.3187C64.6252 43.4528 64.4687 43.6435 64.3762 43.8666C64.2838 44.0897 64.2597 44.3352 64.3068 44.5721C64.3539 44.8089 64.4702 45.0265 64.6409 45.1973C64.8117 45.368 65.0293 45.4843 65.2661 45.5314C65.503 45.5786 65.7485 45.5544 65.9716 45.462C66.1947 45.3695 66.3854 45.213 66.5195 45.0123C66.6537 44.8115 66.7253 44.5754 66.7253 44.3339C66.7158 44.0165 66.583 43.7152 66.355 43.4941C66.127 43.273 65.8219 43.1494 65.5043 43.1495V43.1129Z" fill="#111827"/>
<path d="M65.5043 59.6087C64.7798 59.6087 64.0716 59.3939 63.4693 58.9914C62.8669 58.5889 62.3974 58.0168 62.1201 57.3475C61.8429 56.6782 61.7704 55.9417 61.9117 55.2311C62.053 54.5206 62.4019 53.8679 62.9142 53.3556C63.4265 52.8433 64.0791 52.4944 64.7897 52.3531C65.5003 52.2118 66.2368 52.2843 66.9061 52.5615C67.5754 52.8388 68.1475 53.3083 68.55 53.9107C68.9525 54.513 69.1673 55.2212 69.1673 55.9457C69.1673 56.9172 68.7814 57.8489 68.0944 58.5359C67.4075 59.2228 66.4758 59.6087 65.5043 59.6087ZM65.5043 54.7247C65.2628 54.7247 65.0267 54.7963 64.826 54.9305C64.6252 55.0647 64.4687 55.2554 64.3762 55.4785C64.2838 55.7016 64.2597 55.9471 64.3068 56.1839C64.3539 56.4208 64.4702 56.6383 64.6409 56.8091C64.8117 56.9799 65.0293 57.0961 65.2661 57.1433C65.503 57.1904 65.7485 57.1662 65.9716 57.0738C66.1947 56.9814 66.3854 56.8249 66.5195 56.6241C66.6537 56.4233 66.7253 56.1872 66.7253 55.9457C66.7158 55.6283 66.583 55.327 66.355 55.1059C66.127 54.8848 65.8219 54.7612 65.5043 54.7613V54.7247Z" fill="#111827"/>
<path d="M71.3162 53.7967C70.5917 53.7967 69.8835 53.5819 69.2812 53.1794C68.6788 52.7769 68.2093 52.2048 67.932 51.5355C67.6548 50.8662 67.5822 50.1296 67.7236 49.4191C67.8649 48.7085 68.2138 48.0558 68.7261 47.5436C69.2383 47.0313 69.891 46.6824 70.6016 46.5411C71.3121 46.3998 72.0486 46.4723 72.718 46.7495C73.3873 47.0268 73.9594 47.4963 74.3619 48.0986C74.7644 48.701 74.9792 49.4092 74.9792 50.1337C74.9792 51.1052 74.5933 52.0369 73.9063 52.7238C73.2194 53.4108 72.2877 53.7967 71.3162 53.7967ZM71.3162 48.9127C71.0747 48.9127 70.8386 48.9843 70.6379 49.1185C70.4371 49.2526 70.2806 49.4433 70.1881 49.6664C70.0957 49.8895 70.0715 50.1351 70.1187 50.3719C70.1658 50.6088 70.2821 50.8263 70.4528 50.9971C70.6236 51.1678 70.8411 51.2841 71.078 51.3313C71.3149 51.3784 71.5604 51.3542 71.7835 51.2618C72.0066 51.1693 72.1973 51.0129 72.3314 50.8121C72.4656 50.6113 72.5372 50.3752 72.5372 50.1337C72.5246 49.8184 72.3904 49.5202 72.1628 49.3017C71.9351 49.0832 71.6317 48.9613 71.3162 48.9615V48.9127Z" fill="#111827"/>
<path d="M59.6923 53.7967C58.9678 53.7967 58.2596 53.5819 57.6572 53.1794C57.0549 52.7769 56.5854 52.2048 56.3081 51.5355C56.0309 50.8662 55.9583 50.1296 56.0997 49.4191C56.241 48.7085 56.5899 48.0558 57.1022 47.5436C57.6145 47.0313 58.2671 46.6824 58.9777 46.5411C59.6882 46.3998 60.4247 46.4723 61.0941 46.7495C61.7634 47.0268 62.3355 47.4963 62.738 48.0986C63.1405 48.701 63.3553 49.4092 63.3553 50.1337C63.3553 51.1052 62.9694 52.0369 62.2824 52.7238C61.5955 53.4108 60.6638 53.7967 59.6923 53.7967ZM59.6923 48.9127C59.4508 48.9127 59.2147 48.9843 59.014 49.1185C58.8132 49.2526 58.6567 49.4433 58.5642 49.6664C58.4718 49.8895 58.4477 50.1351 58.4948 50.3719C58.5419 50.6088 58.6582 50.8263 58.8289 50.9971C58.9997 51.1678 59.2173 51.2841 59.4541 51.3313C59.691 51.3784 59.9365 51.3542 60.1596 51.2618C60.3827 51.1693 60.5734 51.0129 60.7075 50.8121C60.8417 50.6113 60.9133 50.3752 60.9133 50.1337C60.9007 49.8184 60.7665 49.5202 60.5389 49.3017C60.3112 49.0832 60.0078 48.9613 59.6923 48.9615V48.9127Z" fill="#111827"/>
<path d="M24.1733 58.9738H20.8888C20.4161 58.9738 19.9626 58.786 19.6283 58.4517C19.294 58.1174 19.1062 57.6639 19.1062 57.1911V53.6014H15.5286C15.2935 53.603 15.0604 53.5581 14.8427 53.4692C14.625 53.3803 14.4271 53.2493 14.2602 53.0836C14.0934 52.9179 13.961 52.7208 13.8706 52.5038C13.7803 52.2867 13.7338 52.0539 13.7338 51.8187V48.4976C13.7289 48.2594 13.7718 48.0226 13.8599 47.8013C13.9481 47.58 14.0797 47.3785 14.247 47.2089C14.4144 47.0393 14.614 46.905 14.8341 46.8138C15.0542 46.7227 15.2904 46.6766 15.5286 46.6783H19.1062V43.0886C19.1062 42.6158 19.294 42.1623 19.6283 41.828C19.9626 41.4937 20.4161 41.3059 20.8888 41.3059H24.1733C24.6473 41.3059 25.102 41.4933 25.4382 41.8273C25.7745 42.1612 25.965 42.6146 25.9682 43.0886V46.6783H29.5457C30.0185 46.6783 30.472 46.8661 30.8063 47.2004C31.1406 47.5348 31.3284 47.9882 31.3284 48.461V51.7821C31.3284 52.2549 31.1406 52.7083 30.8063 53.0426C30.472 53.3769 30.0185 53.5648 29.5457 53.5648H26.0048V57.1545C26.0082 57.3954 25.963 57.6344 25.872 57.8575C25.7809 58.0805 25.646 58.2829 25.4751 58.4527C25.3042 58.6225 25.1008 58.7561 24.8772 58.8456C24.6535 58.9351 24.4142 58.9787 24.1733 58.9738ZM21.5116 56.5318H23.5628V52.9543C23.5611 52.715 23.6076 52.4778 23.6995 52.2568C23.7914 52.0359 23.9268 51.8357 24.0977 51.6682C24.2686 51.5007 24.4715 51.3693 24.6943 51.2819C24.917 51.1945 25.1551 51.1528 25.3943 51.1594H28.9719V49.1203H25.3943C25.1592 49.1203 24.9264 49.0738 24.7093 48.9834C24.4922 48.8931 24.2952 48.7607 24.1295 48.5939C23.9638 48.427 23.8327 48.2291 23.7439 48.0114C23.655 47.7937 23.6101 47.5606 23.6117 47.3254V43.7479H21.5482V47.3254C21.5482 47.8015 21.3591 48.258 21.0225 48.5946C20.6859 48.9312 20.2293 49.1203 19.7533 49.1203H16.1758V51.1228H19.7533C20.2293 51.1228 20.6859 51.3119 21.0225 51.6485C21.3591 51.9851 21.5482 52.4416 21.5482 52.9176L21.5116 56.5318Z" fill="#111827"/>
<path d="M38.4224 57.1055H32.4151C32.1139 57.1055 31.8251 56.9859 31.6121 56.773C31.3992 56.56 31.2795 56.2712 31.2795 55.97C31.2795 55.6689 31.3992 55.38 31.6121 55.1671C31.8251 54.9541 32.1139 54.8345 32.4151 54.8345H38.4224C38.7236 54.8345 39.0124 54.9541 39.2253 55.1671C39.4383 55.38 39.5579 55.6689 39.5579 55.97C39.5579 56.2712 39.4383 56.56 39.2253 56.773C39.0124 56.9859 38.7236 57.1055 38.4224 57.1055Z" fill="#111827"/>
<path d="M36.0415 60.5001H32.8302C32.5291 60.5001 32.2402 60.3804 32.0273 60.1675C31.8143 59.9545 31.6947 59.6657 31.6947 59.3645C31.6947 59.0634 31.8143 58.7745 32.0273 58.5616C32.2402 58.3486 32.5291 58.229 32.8302 58.229H36.0415C36.3426 58.229 36.6315 58.3486 36.8444 58.5616C37.0574 58.7745 37.177 59.0634 37.177 59.3645C37.177 59.6657 37.0574 59.9545 36.8444 60.1675C36.6315 60.3804 36.3426 60.5001 36.0415 60.5001Z" fill="#111827"/>
<path d="M40.9256 29.0226C40.6244 29.0226 40.3356 28.903 40.1226 28.6901C39.9097 28.4771 39.79 28.1883 39.79 27.8871V26.9347C39.79 25.9633 39.4041 25.0315 38.7172 24.3446C38.0302 23.6577 37.0985 23.2717 36.127 23.2717H24.7839C23.2036 23.2717 21.6881 22.644 20.5706 21.5265C19.4532 20.4091 18.8254 18.8935 18.8254 17.3132C18.8254 15.733 19.4532 14.2174 20.5706 13.1C21.6881 11.9825 23.2036 11.3548 24.7839 11.3548H46.4323C47.6834 11.3574 48.9221 11.107 50.0739 10.6186C51.2257 10.1303 52.2669 9.41407 53.1349 8.51303C54.0029 7.61199 54.6797 6.54475 55.1246 5.37546C55.5696 4.20617 55.7735 2.95897 55.7241 1.70885C55.7185 1.55973 55.7423 1.41097 55.7942 1.27105C55.8461 1.13113 55.925 1.0028 56.0265 0.893391C56.1279 0.783978 56.25 0.695627 56.3856 0.633376C56.5212 0.571126 56.6678 0.536201 56.8169 0.530589C56.966 0.524977 57.1148 0.548789 57.2547 0.60067C57.3946 0.652551 57.5229 0.731485 57.6324 0.832961C57.7418 0.934436 57.8301 1.05646 57.8924 1.19208C57.9546 1.3277 57.9895 1.47426 57.9952 1.62338C58.0526 3.17799 57.7961 4.72823 57.2409 6.18147C56.6857 7.63472 55.8433 8.96114 54.764 10.0815C53.6847 11.2018 52.3906 12.0931 50.9591 12.7021C49.5275 13.3111 47.988 13.6252 46.4323 13.6258H24.7839C23.8124 13.6258 22.8807 14.0117 22.1938 14.6987C21.5068 15.3856 21.1209 16.3173 21.1209 17.2888C21.1209 18.2603 21.5068 19.192 22.1938 19.879C22.8807 20.5659 23.8124 20.9518 24.7839 20.9518H36.1026C37.6819 20.9551 39.1956 21.5839 40.3123 22.7006C41.4291 23.8173 42.0579 25.331 42.0611 26.9103V27.8627C42.0643 28.0139 42.0374 28.1642 41.9818 28.3048C41.9262 28.4454 41.843 28.5734 41.7373 28.6815C41.6315 28.7895 41.5052 28.8754 41.3658 28.9339C41.2264 28.9925 41.0768 29.0227 40.9256 29.0226Z" fill="#111827"/>
<path d="M47.0061 36.6539H36.4567V27.1423H47.0061V36.6539ZM38.8987 34.2119H44.5641V29.5843H38.8987V34.2119Z" fill="#111827"/>
</g>
<defs>
<clipPath id="clip0_22_822">
<rect width="82.8327" height="80" fill="white" transform="translate(0.583618 0.5)"/>
</clipPath>
</defs>
</svg>
