<svg width="60" height="81" viewBox="0 0 60 81" fill="none" xmlns="http://www.w3.org/2000/svg">
<g clip-path="url(#clip0_22_1127)">
<path d="M53.4954 1.92847H6.13278C3.90424 1.92847 2.09766 3.73212 2.09766 5.95704V6.94275C2.09766 9.16767 3.90424 10.9713 6.13278 10.9713H53.4954C55.7239 10.9713 57.5305 9.16767 57.5305 6.94275V5.95704C57.5305 3.73212 55.7239 1.92847 53.4954 1.92847Z" fill="#14B8A6"/>
<path d="M57.9025 71.9285H2.09766L3.52855 78.357H56.4716L57.9025 71.9285Z" fill="#14B8A6"/>
<path d="M52.6513 80.5H7.36284C5.5881 80.4968 3.88714 79.9065 2.6322 78.8583C1.37727 77.8101 0.670552 76.3893 0.666748 74.9069V6.08112C0.670562 4.59981 1.37774 3.18026 2.63308 2.13394C3.88843 1.08762 5.58942 0.499997 7.36284 0.5H52.6513C54.4234 0.5 56.1229 1.08801 57.376 2.13467C58.6291 3.18133 59.333 4.60091 59.333 6.08112V74.8467C59.3425 75.5853 59.1768 76.318 58.8455 77.0028C58.5141 77.6876 58.0237 78.3107 57.4025 78.8363C56.7813 79.3619 56.0416 79.7796 55.2261 80.0651C54.4107 80.3506 53.5356 80.4985 52.6513 80.5ZM7.36284 2.90566C6.35325 2.90565 5.38479 3.23982 4.66955 3.83499C3.95432 4.43016 3.55059 5.23783 3.54678 6.08112V74.8467C3.53721 75.2703 3.62886 75.6913 3.81634 76.085C4.00383 76.4787 4.28339 76.8372 4.6387 77.1396C4.99401 77.442 5.41792 77.6822 5.88566 77.8461C6.3534 78.01 6.85559 78.0944 7.36284 78.0943H52.6513C53.6609 78.0912 54.6279 77.7539 55.3404 77.1565C56.0529 76.5591 56.453 75.7502 56.453 74.9069V6.08112C56.453 5.23893 56.0525 4.43124 55.3395 3.83572C54.6266 3.24021 53.6596 2.90566 52.6513 2.90566H7.36284Z" fill="#111827"/>
<path d="M50.3474 8.51437C49.9679 8.51437 49.6039 8.36386 49.3356 8.09595C49.0673 7.82804 48.9165 7.46468 48.9165 7.0858C48.9165 6.70692 49.0673 6.34356 49.3356 6.07565C49.6039 5.80774 49.9679 5.65723 50.3474 5.65723C50.7269 5.65723 51.0908 5.80774 51.3592 6.07565C51.6275 6.34356 51.7783 6.70692 51.7783 7.0858C51.7783 7.46468 51.6275 7.82804 51.3592 8.09595C51.0908 8.36386 50.7269 8.51437 50.3474 8.51437Z" fill="#111827"/>
<path d="M45.9546 8.51437C45.5751 8.51437 45.2111 8.36386 44.9428 8.09595C44.6744 7.82804 44.5237 7.46468 44.5237 7.0858C44.5237 6.70692 44.6744 6.34356 44.9428 6.07565C45.2111 5.80774 45.5751 5.65723 45.9546 5.65723C46.3341 5.65723 46.698 5.80774 46.9664 6.07565C47.2347 6.34356 47.3855 6.70692 47.3855 7.0858C47.3855 7.46468 47.2347 7.82804 46.9664 8.09595C46.698 8.36386 46.3341 8.51437 45.9546 8.51437Z" fill="#111827"/>
</g>
<defs>
<clipPath id="clip0_22_1127">
<rect width="58.6667" height="80" fill="white" transform="translate(0.666748 0.5)"/>
</clipPath>
</defs>
</svg>
