<svg width="104" height="81" viewBox="0 0 104 81" fill="none" xmlns="http://www.w3.org/2000/svg">
<g clip-path="url(#clip0_22_857)">
<path d="M84.7022 72.5709C84.4241 72.632 84.1402 72.663 83.8554 72.6632C82.7161 72.6632 81.6235 72.2107 80.818 71.4051C80.0124 70.5995 79.5598 69.5069 79.5598 68.3676V39.9304C79.5618 39.3616 79.6763 38.7989 79.8968 38.2746C80.1172 37.7503 80.4392 37.2749 80.8442 36.8756C81.2492 36.4763 81.7292 36.1611 82.2566 35.9481C82.784 35.7352 83.3483 35.6287 83.917 35.6348C84.2018 35.635 84.4857 35.666 84.7638 35.7271C84.2726 35.8404 83.8239 36.0914 83.4705 36.4508C83.211 36.7091 83.0054 37.0162 82.8653 37.3545C82.7252 37.6928 82.6536 38.0554 82.6545 38.4215V69.8765C82.6476 70.4894 82.8452 71.087 83.2161 71.575C83.587 72.063 84.1099 72.4134 84.7022 72.5709Z" fill="#14B8A6"/>
<path d="M19.7908 72.5709C20.0741 72.632 20.3631 72.6629 20.653 72.6632C21.791 72.6592 22.8812 72.2053 23.6859 71.4006C24.4906 70.5959 24.9445 69.5057 24.9486 68.3676V39.9304C24.9445 38.7924 24.4906 37.7021 23.6859 36.8974C22.8812 36.0927 21.791 35.6388 20.653 35.6348C20.3631 35.6351 20.0741 35.666 19.7908 35.7271C20.2881 35.8359 20.7429 36.0874 21.0995 36.4508C21.6178 36.9763 21.9106 37.6834 21.9155 38.4215V69.8765C21.9154 70.499 21.7057 71.1033 21.3203 71.5921C20.9348 72.0808 20.3961 72.4256 19.7908 72.5709Z" fill="#14B8A6"/>
<path d="M20.5759 19.0373C22.2234 19.8995 27.0887 13.7255 33.509 9.58385C38.1591 6.65893 43.5206 5.06165 49.0132 4.96491H54.7407C59.4466 5.2645 64.0562 6.43386 68.3358 8.41372C73.3402 10.7082 77.777 14.0779 81.3304 18.2829C81.4564 18.4199 81.5746 18.5638 81.6845 18.714C82.3268 17.8918 82.6455 16.8627 82.5803 15.8215C82.515 14.7802 82.0704 13.799 81.3304 13.0635C77.8227 9.53108 73.6482 6.73076 69.0493 4.82511C64.4503 2.91947 59.5187 1.94646 54.5406 1.9626H49.4597C44.3236 1.95946 39.2412 3.00739 34.5252 5.04189C29.121 7.35136 23.7476 9.01418 22.0078 13.7717C21.2688 15.7886 19.5906 18.5138 20.5759 19.0373Z" fill="#14B8A6"/>
<path d="M17.3888 72.2782H15.8492C11.7411 72.27 7.80389 70.6335 4.90049 67.7272C1.99709 64.8209 0.364419 60.882 0.360352 56.774V51.5084C0.364428 47.4017 1.9976 43.4644 4.90143 40.5606C7.80527 37.6568 11.7425 36.0236 15.8492 36.0195H17.3888V72.2782ZM14.3095 39.1912C11.3091 39.5697 8.54963 41.0295 6.54854 43.2971C4.54744 45.5646 3.4421 48.4841 3.43964 51.5084V56.774C3.44867 59.7964 4.55632 62.7124 6.55619 64.9785C8.55607 67.2446 11.3117 68.7063 14.3095 69.0911V39.1912Z" fill="#111827"/>
<path d="M20.1448 74.1873C18.5984 74.1833 17.1166 73.5672 16.0232 72.4738C14.9297 71.3803 14.3136 69.8984 14.3096 68.3521V39.9302C14.3096 38.3826 14.9243 36.8984 16.0186 35.8041C17.113 34.7098 18.5972 34.095 20.1448 34.095C21.6924 34.095 23.1767 34.7098 24.271 35.8041C25.3653 36.8984 25.9801 38.3826 25.9801 39.9302V68.3521C25.9801 69.8997 25.3653 71.3839 24.271 72.4782C23.1767 73.5726 21.6924 74.1873 20.1448 74.1873ZM20.1448 37.2358C19.4139 37.2358 18.7129 37.5262 18.196 38.0431C17.6792 38.5599 17.3889 39.2609 17.3889 39.9918V68.3521C17.3889 69.083 17.6792 69.784 18.196 70.3008C18.7129 70.8177 19.4139 71.1081 20.1448 71.1081C20.8757 71.1081 21.5768 70.8177 22.0936 70.3008C22.6104 69.784 22.9008 69.083 22.9008 68.3521V39.9302C22.9008 39.1993 22.6104 38.4983 22.0936 37.9815C21.5768 37.4646 20.8757 37.1743 20.1448 37.1743V37.2358Z" fill="#111827"/>
<path d="M88.151 72.2782H86.6113V36.0195H88.151C92.2576 36.0236 96.1949 37.6568 99.0987 40.5606C102.003 43.4644 103.636 47.4017 103.64 51.5084V56.774C103.636 60.882 102.003 64.8209 99.0997 67.7272C96.1963 70.6335 92.259 72.27 88.151 72.2782ZM89.6906 39.1912V69.1065C92.6884 68.7217 95.444 67.26 97.4439 64.9939C99.4438 62.7278 100.551 59.8118 100.561 56.7894V51.5084C100.558 48.4841 99.4527 45.5646 97.4516 43.2971C95.4505 41.0295 92.6911 39.5697 89.6906 39.1912Z" fill="#111827"/>
<path d="M83.9169 74.1873C82.3693 74.1873 80.8851 73.5726 79.7908 72.4782C78.6965 71.3839 78.0817 69.8997 78.0817 68.3521V39.9302C78.0817 38.3826 78.6965 36.8984 79.7908 35.8041C80.8851 34.7098 82.3693 34.095 83.9169 34.095C85.4645 34.095 86.9488 34.7098 88.0431 35.8041C89.1374 36.8984 89.7522 38.3826 89.7522 39.9302V68.3521C89.7481 69.8984 89.1321 71.3803 88.0386 72.4738C86.9452 73.5672 85.4633 74.1833 83.9169 74.1873ZM83.9169 37.2358C83.186 37.2358 82.485 37.5262 81.9682 38.0431C81.4513 38.5599 81.161 39.2609 81.161 39.9918V68.3521C81.161 69.083 81.4513 69.784 81.9682 70.3008C82.485 70.8177 83.186 71.1081 83.9169 71.1081C84.6479 71.1081 85.3488 70.8177 85.8657 70.3008C86.3825 69.784 86.6729 69.083 86.6729 68.3521V39.9302C86.6729 39.1993 86.3825 38.4983 85.8657 37.9815C85.3488 37.4646 84.6479 37.1743 83.9169 37.1743V37.2358Z" fill="#111827"/>
<path d="M89.6907 39.9302H86.6114C86.6073 39.2972 86.3866 38.6846 85.9861 38.1944C85.5855 37.7042 85.0292 37.366 84.4097 37.2358L78.2511 35.9733L84.2865 34.2489C84.6321 34.1503 84.9894 34.0986 85.3488 34.095C86.4963 34.095 87.5967 34.5508 88.4081 35.3621C89.2194 36.1735 89.6752 37.2739 89.6752 38.4214L89.6907 39.9302Z" fill="#111827"/>
<path d="M85.3641 74.2029C85.0047 74.1994 84.6474 74.1476 84.3018 74.049L78.2664 72.3246L84.4249 71.0621C85.0445 70.9319 85.6008 70.5937 86.0014 70.1035C86.4019 69.6133 86.6226 69.0007 86.6267 68.3677H89.706V69.9073C89.6978 71.0521 89.2363 72.147 88.4225 72.9521C87.6087 73.7573 86.5089 74.207 85.3641 74.2029Z" fill="#111827"/>
<path d="M88.151 41.3623C87.9624 41.3644 87.7753 41.3287 87.6006 41.2575C87.426 41.1863 87.2673 41.0809 87.134 40.9475C87.0006 40.8141 86.8952 40.6555 86.8239 40.4808C86.7527 40.3062 86.7171 40.119 86.7192 39.9304C86.7428 32.8104 84.3793 25.888 80.0063 20.2691C79.8701 20.1241 79.7657 19.9522 79.6997 19.7645C79.6337 19.5768 79.6075 19.3774 79.6228 19.179C79.6381 18.9806 79.6946 18.7876 79.7887 18.6123C79.8828 18.437 80.0124 18.2832 80.1692 18.1607C80.326 18.0383 80.5066 17.9498 80.6995 17.9011C80.8924 17.8523 81.0934 17.8443 81.2896 17.8775C81.4858 17.9108 81.6729 17.9845 81.8389 18.0941C82.005 18.2037 82.1465 18.3467 82.2542 18.5139C87.0263 24.6307 89.607 32.1724 89.5829 39.9304C89.5829 40.1185 89.5459 40.3047 89.4739 40.4784C89.402 40.6521 89.2965 40.8099 89.1635 40.9429C89.0306 41.0759 88.8727 41.1813 88.699 41.2533C88.5253 41.3253 88.3391 41.3623 88.151 41.3623Z" fill="#111827"/>
<path d="M15.8645 41.3623C15.6759 41.3644 15.4888 41.3287 15.3141 41.2575C15.1395 41.1863 14.9808 41.0809 14.8474 40.9475C14.714 40.8141 14.6087 40.6555 14.5374 40.4808C14.4662 40.3062 14.4306 40.119 14.4326 39.9304C14.4048 32.4763 16.7864 25.2127 21.2225 19.2222C21.3255 19.0517 21.4629 18.9046 21.626 18.7902C21.7891 18.6759 21.9742 18.5968 22.1696 18.5581C22.365 18.5194 22.5663 18.5218 22.7607 18.5653C22.9551 18.6088 23.1382 18.6924 23.2985 18.8107C23.4587 18.929 23.5925 19.0794 23.6913 19.2524C23.7901 19.4253 23.8518 19.617 23.8723 19.8151C23.8928 20.0132 23.8718 20.2134 23.8105 20.403C23.7493 20.5925 23.6491 20.7672 23.5165 20.9158C19.4779 26.4297 17.3188 33.0958 17.3579 39.9304C17.3581 40.1238 17.3192 40.3151 17.2434 40.493C17.1676 40.6709 17.0566 40.8315 16.917 40.9653C16.7775 41.0991 16.6123 41.2033 16.4314 41.2715C16.2505 41.3397 16.0576 41.3706 15.8645 41.3623Z" fill="#111827"/>
<path d="M25.1179 22.594C23.9745 22.5986 22.8552 22.2664 21.8995 21.6387C20.9438 21.0111 20.1941 20.1158 19.7441 19.0647C19.2941 18.0136 19.1637 16.8533 19.3691 15.7285C19.5746 14.6038 20.1068 13.5644 20.8993 12.7403C24.5691 8.8546 28.9974 5.76341 33.91 3.65801C38.8226 1.55261 44.115 0.477805 49.4597 0.500096H54.5406C59.7131 0.491454 64.8362 1.50742 69.614 3.48937C74.3918 5.47131 78.7297 8.37998 82.3773 12.0474C83.4717 13.1418 84.0865 14.626 84.0865 16.1737C84.0865 17.7213 83.4717 19.2056 82.3773 20.2999C81.283 21.3943 79.7987 22.0091 78.2511 22.0091C76.7034 22.0091 75.2192 21.3943 74.1248 20.2999C71.5552 17.7099 68.4967 15.6562 65.1268 14.258C61.7569 12.8598 58.1428 12.1451 54.4944 12.1552H49.4135C45.6489 12.1401 41.9213 12.899 38.4623 14.3849C35.0032 15.8707 31.8865 18.0518 29.3057 20.7926C28.7659 21.3607 28.1164 21.8133 27.3966 22.1229C26.6767 22.4325 25.9015 22.5928 25.1179 22.594ZM49.4597 3.57939C44.5325 3.55849 39.6535 4.54934 35.1248 6.49059C30.5961 8.43184 26.5142 11.2821 23.1317 14.865C22.6246 15.3942 22.3478 16.1029 22.3619 16.8357C22.3688 17.198 22.4488 17.5552 22.5969 17.8859C22.7451 18.2166 22.9584 18.514 23.2241 18.7603C23.7603 19.2496 24.4647 19.5132 25.1903 19.496C25.916 19.4788 26.6071 19.1821 27.1194 18.6679C29.9877 15.6242 33.4507 13.2023 37.2936 11.5523C41.1366 9.90228 45.2775 9.0594 49.4597 9.07592H54.5406C58.5936 9.06767 62.6082 9.86205 66.3527 11.4132C70.0971 12.9644 73.4974 15.2417 76.3573 18.1136C76.6098 18.3838 76.9141 18.6003 77.252 18.7504C77.5899 18.9005 77.9545 18.9811 78.3242 18.9873C78.6939 18.9936 79.0611 18.9254 79.4039 18.7868C79.7467 18.6481 80.0581 18.442 80.3195 18.1805C80.581 17.9191 80.7871 17.6077 80.9257 17.2649C81.0643 16.9221 81.1326 16.5549 81.1263 16.1853C81.1201 15.8156 81.0395 15.4509 80.8894 15.113C80.7393 14.7751 80.5227 14.4708 80.2526 14.2183C76.8836 10.8324 72.8763 8.14852 68.4627 6.3223C64.0491 4.49608 59.317 3.56377 54.5406 3.57939H49.4597Z" fill="#111827"/>
</g>
<defs>
<clipPath id="clip0_22_857">
<rect width="103.279" height="80" fill="white" transform="translate(0.360352 0.5)"/>
</clipPath>
</defs>
</svg>
