<svg width="100" height="81" viewBox="0 0 100 81" fill="none" xmlns="http://www.w3.org/2000/svg">
<g clip-path="url(#clip0_22_1165)">
<path d="M92.8784 46.4662C92.4818 46.4662 92.1015 46.3087 91.821 46.0283C91.5406 45.7478 91.3831 45.3675 91.3831 44.9709C91.3831 44.5743 91.5406 44.194 91.821 43.9136C92.1015 43.6332 92.4818 43.4756 92.8784 43.4756C93.275 43.4756 93.6553 43.6332 93.9357 43.9136C94.2162 44.194 94.3737 44.5743 94.3737 44.9709C94.3737 45.3675 94.2162 45.7478 93.9357 46.0283C93.6553 46.3087 93.275 46.4662 92.8784 46.4662Z" fill="#111827"/>
<path d="M92.8784 52.986C92.4818 52.986 92.1015 52.8285 91.821 52.548C91.5406 52.2676 91.3831 51.8873 91.3831 51.4907C91.3831 51.0941 91.5406 50.7138 91.821 50.4333C92.1015 50.1529 92.4818 49.9954 92.8784 49.9954C93.275 49.9954 93.6553 50.1529 93.9357 50.4333C94.2162 50.7138 94.3737 51.0941 94.3737 51.4907C94.3737 51.8873 94.2162 52.2676 93.9357 52.548C93.6553 52.8285 93.275 52.986 92.8784 52.986Z" fill="#111827"/>
<path d="M92.8784 57.6214C92.4944 57.6219 92.125 57.4747 91.8466 57.2102C91.5682 56.9458 91.4023 56.5844 91.3831 56.2009C91.3831 55.8043 91.5406 55.424 91.821 55.1435C92.1015 54.8631 92.4818 54.7056 92.8784 54.7056C93.275 54.7056 93.6553 54.8631 93.9357 55.1435C94.2162 55.424 94.3737 55.8043 94.3737 56.2009C94.3545 56.5844 94.1885 56.9458 93.9102 57.2102C93.6318 57.4747 93.2623 57.6219 92.8784 57.6214Z" fill="#111827"/>
<path d="M92.8784 62.2718C92.4818 62.2718 92.1015 62.1143 91.821 61.8339C91.5406 61.5534 91.3831 61.1731 91.3831 60.7765C91.4023 60.393 91.5682 60.0316 91.8466 59.7672C92.125 59.5027 92.4944 59.3555 92.8784 59.356C93.2623 59.3555 93.6318 59.5027 93.9102 59.7672C94.1885 60.0316 94.3545 60.393 94.3737 60.7765C94.3737 61.1731 94.2162 61.5534 93.9357 61.8339C93.6553 62.1143 93.275 62.2718 92.8784 62.2718Z" fill="#111827"/>
<path d="M98.3064 74.9524H1.69336V79.1094H98.3064V74.9524Z" fill="#14B8A6"/>
<path d="M98.2767 80.5H1.69348C1.5103 80.502 1.32856 80.4674 1.15893 80.3983C0.989303 80.3291 0.835207 80.2267 0.705671 80.0972C0.576136 79.9677 0.473781 79.8136 0.404603 79.6439C0.335425 79.4743 0.300814 79.2926 0.302817 79.1094V38.5711C0.302817 38.2022 0.449345 37.8485 0.710144 37.5877C0.970942 37.3269 1.32466 37.1804 1.69348 37.1804H55.5253C55.8941 37.1804 56.2478 37.3269 56.5086 37.5877C56.7694 37.8485 56.9159 38.2022 56.9159 38.5711C56.9159 38.9399 56.7694 39.2936 56.5086 39.5544C56.2478 39.8152 55.8941 39.9617 55.5253 39.9617H3.08413V77.7187H96.9159V39.9617H64.3327C63.9639 39.9617 63.6102 39.8152 63.3494 39.5544C63.0886 39.2936 62.9421 38.9399 62.9421 38.5711C62.9421 38.2022 63.0886 37.8485 63.3494 37.5877C63.6102 37.3269 63.9639 37.1804 64.3327 37.1804H98.2767C98.4593 37.1804 98.6401 37.2164 98.8088 37.2863C98.9776 37.3562 99.1309 37.4586 99.26 37.5877C99.3891 37.7169 99.4916 37.8702 99.5615 38.0389C99.6313 38.2076 99.6673 38.3884 99.6673 38.5711V79.1094C99.6693 79.2926 99.6347 79.4743 99.5655 79.6439C99.4964 79.8136 99.394 79.9677 99.2645 80.0972C99.1349 80.2267 98.9808 80.3291 98.8112 80.3983C98.6416 80.4674 98.4598 80.502 98.2767 80.5Z" fill="#111827"/>
<path d="M61.2523 72.6644H17.0953C16.7264 72.6644 16.3727 72.5179 16.1119 72.2571C15.8511 71.9963 15.7046 71.6425 15.7046 71.2737C15.7046 70.9049 15.8511 70.5512 16.1119 70.2904C16.3727 70.0296 16.7264 69.8831 17.0953 69.8831H61.2523C61.6211 69.8831 61.9748 70.0296 62.2356 70.2904C62.4964 70.5512 62.6429 70.9049 62.6429 71.2737C62.6429 71.6425 62.4964 71.9963 62.2356 72.2571C61.9748 72.5179 61.6211 72.6644 61.2523 72.6644Z" fill="#111827"/>
<path d="M71.5551 6.75047C71.3719 6.75247 71.1901 6.71786 71.0205 6.64868C70.8509 6.5795 70.6968 6.47715 70.5672 6.34761C70.4377 6.21808 70.3354 6.06397 70.2662 5.89434C70.197 5.72472 70.1624 5.54299 70.1644 5.35981V1.89065C70.1644 1.52183 70.3109 1.1681 70.5717 0.907304C70.8325 0.646506 71.1862 0.5 71.5551 0.5C71.9239 0.5 72.2776 0.646506 72.5384 0.907304C72.7992 1.1681 72.9457 1.52183 72.9457 1.89065V5.35981C72.9457 5.72864 72.7992 6.08235 72.5384 6.34315C72.2776 6.60395 71.9239 6.75047 71.5551 6.75047Z" fill="#111827"/>
<path d="M71.555 20.5823H62.269C62.0753 20.6025 61.8795 20.5817 61.6943 20.5214C61.5091 20.4611 61.3387 20.3625 61.194 20.2321C61.0493 20.1017 60.9336 19.9424 60.8545 19.7644C60.7753 19.5865 60.7344 19.3939 60.7344 19.1991C60.7344 19.0044 60.7753 18.8117 60.8545 18.6338C60.9336 18.4558 61.0493 18.2965 61.194 18.1661C61.3387 18.0357 61.5091 17.9372 61.6943 17.8768C61.8795 17.8165 62.0753 17.7958 62.269 17.8159H70.1644V12.2832C70.1644 11.9144 70.3109 11.5607 70.5717 11.2999C70.8325 11.0391 71.1862 10.8926 71.555 10.8926C71.9239 10.8926 72.2776 11.0391 72.5384 11.2999C72.7992 11.5607 72.9457 11.9144 72.9457 12.2832V19.1916C72.9457 19.5605 72.7992 19.9142 72.5384 20.175C72.2776 20.4358 71.9239 20.5823 71.555 20.5823Z" fill="#111827"/>
<path d="M55.555 39.9616C55.3724 39.9616 55.1916 39.9256 55.0229 39.8557C54.8542 39.7859 54.7008 39.6834 54.5717 39.5543C54.4426 39.4252 54.3401 39.2719 54.2703 39.1031C54.2004 38.9344 54.1644 38.7536 54.1644 38.571V32.5896H17.0953C16.7264 32.5896 16.3727 32.4431 16.1119 32.1823C15.8511 31.9215 15.7046 31.5678 15.7046 31.199V19.1317C15.7046 18.9498 15.7406 18.7697 15.8107 18.6018C15.8808 18.4339 15.9835 18.2816 16.1128 18.1536C16.2421 18.0257 16.3956 17.9247 16.5642 17.8564C16.7328 17.7882 16.9133 17.754 17.0953 17.756H45.8354C46.0291 17.7358 46.225 17.7566 46.4102 17.8169C46.5954 17.8772 46.7658 17.9758 46.9105 18.1062C47.0552 18.2366 47.1708 18.3959 47.25 18.5739C47.3292 18.7518 47.3701 18.9444 47.3701 19.1392C47.3701 19.334 47.3292 19.5266 47.25 19.7045C47.1708 19.8825 47.0552 20.0418 46.9105 20.1722C46.7658 20.3026 46.5954 20.4011 46.4102 20.4615C46.225 20.5218 46.0291 20.5425 45.8354 20.5224H18.4859V29.8083H55.555C55.9239 29.8083 56.2776 29.9549 56.5384 30.2157C56.7992 30.4765 56.9457 30.8302 56.9457 31.199V38.5111C56.9538 38.6987 56.9238 38.886 56.8575 39.0617C56.7913 39.2374 56.6901 39.3979 56.5602 39.5334C56.4302 39.6689 56.2742 39.7767 56.1014 39.8503C55.9287 39.9239 55.7428 39.9618 55.555 39.9616Z" fill="#111827"/>
<path d="M11.5476 46.4662C11.151 46.4662 10.7706 46.3087 10.4902 46.0283C10.2098 45.7478 10.0522 45.3675 10.0522 44.9709C10.0522 44.5743 10.2098 44.194 10.4902 43.9136C10.7706 43.6332 11.151 43.4756 11.5476 43.4756C11.9442 43.4756 12.3245 43.6332 12.6049 43.9136C12.8854 44.194 13.0429 44.5743 13.0429 44.9709C13.0429 45.3675 12.8854 45.7478 12.6049 46.0283C12.3245 46.3087 11.9442 46.4662 11.5476 46.4662Z" fill="#111827"/>
<path d="M16.0337 46.4662C15.6371 46.4662 15.2567 46.3087 14.9763 46.0283C14.6959 45.7478 14.5383 45.3675 14.5383 44.9709C14.5383 44.5743 14.6959 44.194 14.9763 43.9136C15.2567 43.6332 15.6371 43.4756 16.0337 43.4756C16.4302 43.4756 16.8106 43.6332 17.091 43.9136C17.3714 44.194 17.529 44.5743 17.529 44.9709C17.529 45.3675 17.3714 45.7478 17.091 46.0283C16.8106 46.3087 16.4302 46.4662 16.0337 46.4662Z" fill="#111827"/>
<path d="M20.5944 46.4662C20.1979 46.4662 19.8175 46.3087 19.5371 46.0283C19.2567 45.7478 19.0991 45.3675 19.0991 44.9709C19.0991 44.5743 19.2567 44.194 19.5371 43.9136C19.8175 43.6332 20.1979 43.4756 20.5944 43.4756C20.991 43.4756 21.3714 43.6332 21.6518 43.9136C21.9322 44.194 22.0898 44.5743 22.0898 44.9709C22.0898 45.3675 21.9322 45.7478 21.6518 46.0283C21.3714 46.3087 20.991 46.4662 20.5944 46.4662Z" fill="#111827"/>
<path d="M25.1103 46.4662C24.7137 46.4662 24.3334 46.3087 24.053 46.0283C23.7725 45.7478 23.615 45.3675 23.615 44.9709C23.615 44.5743 23.7725 44.194 24.053 43.9136C24.3334 43.6332 24.7137 43.4756 25.1103 43.4756C25.5069 43.4756 25.8872 43.6332 26.1677 43.9136C26.4481 44.194 26.6056 44.5743 26.6056 44.9709C26.6056 45.3675 26.4481 45.7478 26.1677 46.0283C25.8872 46.3087 25.5069 46.4662 25.1103 46.4662Z" fill="#111827"/>
<path d="M29.6262 46.4662C29.2296 46.4662 28.8493 46.3087 28.5688 46.0283C28.2884 45.7478 28.1309 45.3675 28.1309 44.9709C28.1309 44.5743 28.2884 44.194 28.5688 43.9136C28.8493 43.6332 29.2296 43.4756 29.6262 43.4756C30.0228 43.4756 30.4031 43.6332 30.6835 43.9136C30.964 44.194 31.1215 44.5743 31.1215 44.9709C31.1215 45.3675 30.964 45.7478 30.6835 46.0283C30.4031 46.3087 30.0228 46.4662 29.6262 46.4662Z" fill="#111827"/>
<path d="M34.1421 46.4662C33.7455 46.4662 33.3651 46.3087 33.0847 46.0283C32.8043 45.7478 32.6467 45.3675 32.6467 44.9709C32.6467 44.5743 32.8043 44.194 33.0847 43.9136C33.3651 43.6332 33.7455 43.4756 34.1421 43.4756C34.5386 43.4756 34.919 43.6332 35.1994 43.9136C35.4798 44.194 35.6374 44.5743 35.6374 44.9709C35.6374 45.3675 35.4798 45.7478 35.1994 46.0283C34.919 46.3087 34.5386 46.4662 34.1421 46.4662Z" fill="#111827"/>
<path d="M38.6579 46.4662C38.2613 46.4662 37.881 46.3087 37.6006 46.0283C37.3201 45.7478 37.1626 45.3675 37.1626 44.9709C37.1626 44.5743 37.3201 44.194 37.6006 43.9136C37.881 43.6332 38.2613 43.4756 38.6579 43.4756C39.0545 43.4756 39.4349 43.6332 39.7153 43.9136C39.9957 44.194 40.1533 44.5743 40.1533 44.9709C40.1533 45.3675 39.9957 45.7478 39.7153 46.0283C39.4349 46.3087 39.0545 46.4662 38.6579 46.4662Z" fill="#111827"/>
<path d="M43.1738 46.4662C42.7772 46.4662 42.3969 46.3087 42.1164 46.0283C41.836 45.7478 41.6785 45.3675 41.6785 44.9709C41.6785 44.5743 41.836 44.194 42.1164 43.9136C42.3969 43.6332 42.7772 43.4756 43.1738 43.4756C43.5704 43.4756 43.9507 43.6332 44.2312 43.9136C44.5116 44.194 44.6691 44.5743 44.6691 44.9709C44.6691 45.3675 44.5116 45.7478 44.2312 46.0283C43.9507 46.3087 43.5704 46.4662 43.1738 46.4662Z" fill="#111827"/>
<path d="M47.7046 46.4662C47.308 46.4662 46.9276 46.3087 46.6472 46.0283C46.3668 45.7478 46.2092 45.3675 46.2092 44.9709C46.2092 44.5743 46.3668 44.194 46.6472 43.9136C46.9276 43.6332 47.308 43.4756 47.7046 43.4756C48.088 43.4948 48.4495 43.6608 48.7139 43.9392C48.9784 44.2175 49.1256 44.5869 49.1251 44.9709C49.1256 45.3549 48.9784 45.7243 48.7139 46.0027C48.4495 46.2811 48.088 46.447 47.7046 46.4662Z" fill="#111827"/>
<path d="M52.2204 46.4662C51.8238 46.4662 51.4435 46.3087 51.1631 46.0283C50.8826 45.7478 50.7251 45.3675 50.7251 44.9709C50.7251 44.5743 50.8826 44.194 51.1631 43.9136C51.4435 43.6332 51.8238 43.4756 52.2204 43.4756C52.617 43.4756 52.9974 43.6332 53.2778 43.9136C53.5582 44.194 53.7158 44.5743 53.7158 44.9709C53.7158 45.3675 53.5582 45.7478 53.2778 46.0283C52.9974 46.3087 52.617 46.4662 52.2204 46.4662Z" fill="#111827"/>
<path d="M56.7363 46.4662C56.3397 46.4662 55.9594 46.3087 55.6789 46.0283C55.3985 45.7478 55.241 45.3675 55.241 44.9709C55.241 44.5743 55.3985 44.194 55.6789 43.9136C55.9594 43.6332 56.3397 43.4756 56.7363 43.4756C57.1329 43.4756 57.5132 43.6332 57.7937 43.9136C58.0741 44.194 58.2316 44.5743 58.2316 44.9709C58.2316 45.3675 58.0741 45.7478 57.7937 46.0283C57.5132 46.3087 57.1329 46.4662 56.7363 46.4662Z" fill="#111827"/>
<path d="M61.2522 46.4662C60.8556 46.4662 60.4752 46.3087 60.1948 46.0283C59.9144 45.7478 59.7568 45.3675 59.7568 44.9709C59.7568 44.5743 59.9144 44.194 60.1948 43.9136C60.4752 43.6332 60.8556 43.4756 61.2522 43.4756C61.6487 43.4756 62.0291 43.6332 62.3095 43.9136C62.5899 44.194 62.7475 44.5743 62.7475 44.9709C62.7475 45.3675 62.5899 45.7478 62.3095 46.0283C62.0291 46.3087 61.6487 46.4662 61.2522 46.4662Z" fill="#111827"/>
<path d="M65.7683 46.4662C65.3717 46.4662 64.9913 46.3087 64.7109 46.0283C64.4305 45.7478 64.2729 45.3675 64.2729 44.9709C64.2729 44.5743 64.4305 44.194 64.7109 43.9136C64.9913 43.6332 65.3717 43.4756 65.7683 43.4756C66.1649 43.4756 66.5452 43.6332 66.8256 43.9136C67.1061 44.194 67.2636 44.5743 67.2636 44.9709C67.2636 45.3675 67.1061 45.7478 66.8256 46.0283C66.5452 46.3087 66.1649 46.4662 65.7683 46.4662Z" fill="#111827"/>
<path d="M11.5476 52.986C11.151 52.986 10.7706 52.8285 10.4902 52.548C10.2098 52.2676 10.0522 51.8873 10.0522 51.4907C10.0522 51.0941 10.2098 50.7138 10.4902 50.4333C10.7706 50.1529 11.151 49.9954 11.5476 49.9954C11.9442 49.9954 12.3245 50.1529 12.6049 50.4333C12.8854 50.7138 13.0429 51.0941 13.0429 51.4907C13.0429 51.8873 12.8854 52.2676 12.6049 52.548C12.3245 52.8285 11.9442 52.986 11.5476 52.986Z" fill="#111827"/>
<path d="M16.0337 52.986C15.6371 52.986 15.2567 52.8285 14.9763 52.548C14.6959 52.2676 14.5383 51.8873 14.5383 51.4907C14.5383 51.0941 14.6959 50.7138 14.9763 50.4333C15.2567 50.1529 15.6371 49.9954 16.0337 49.9954C16.4302 49.9954 16.8106 50.1529 17.091 50.4333C17.3714 50.7138 17.529 51.0941 17.529 51.4907C17.529 51.8873 17.3714 52.2676 17.091 52.548C16.8106 52.8285 16.4302 52.986 16.0337 52.986Z" fill="#111827"/>
<path d="M20.5944 52.986C20.1979 52.986 19.8175 52.8285 19.5371 52.548C19.2567 52.2676 19.0991 51.8873 19.0991 51.4907C19.0991 51.0941 19.2567 50.7138 19.5371 50.4333C19.8175 50.1529 20.1979 49.9954 20.5944 49.9954C20.991 49.9954 21.3714 50.1529 21.6518 50.4333C21.9322 50.7138 22.0898 51.0941 22.0898 51.4907C22.0898 51.8873 21.9322 52.2676 21.6518 52.548C21.3714 52.8285 20.991 52.986 20.5944 52.986Z" fill="#111827"/>
<path d="M25.1103 52.986C24.7137 52.986 24.3334 52.8285 24.053 52.548C23.7725 52.2676 23.615 51.8873 23.615 51.4907C23.615 51.0941 23.7725 50.7138 24.053 50.4333C24.3334 50.1529 24.7137 49.9954 25.1103 49.9954C25.5069 49.9954 25.8872 50.1529 26.1677 50.4333C26.4481 50.7138 26.6056 51.0941 26.6056 51.4907C26.6056 51.8873 26.4481 52.2676 26.1677 52.548C25.8872 52.8285 25.5069 52.986 25.1103 52.986Z" fill="#111827"/>
<path d="M29.6262 52.986C29.2296 52.986 28.8493 52.8285 28.5688 52.548C28.2884 52.2676 28.1309 51.8873 28.1309 51.4907C28.1309 51.0941 28.2884 50.7138 28.5688 50.4333C28.8493 50.1529 29.2296 49.9954 29.6262 49.9954C30.0228 49.9954 30.4031 50.1529 30.6835 50.4333C30.964 50.7138 31.1215 51.0941 31.1215 51.4907C31.1215 51.8873 30.964 52.2676 30.6835 52.548C30.4031 52.8285 30.0228 52.986 29.6262 52.986Z" fill="#111827"/>
<path d="M34.1421 52.986C33.7455 52.986 33.3651 52.8285 33.0847 52.548C32.8043 52.2676 32.6467 51.8873 32.6467 51.4907C32.6467 51.0941 32.8043 50.7138 33.0847 50.4333C33.3651 50.1529 33.7455 49.9954 34.1421 49.9954C34.5386 49.9954 34.919 50.1529 35.1994 50.4333C35.4798 50.7138 35.6374 51.0941 35.6374 51.4907C35.6374 51.8873 35.4798 52.2676 35.1994 52.548C34.919 52.8285 34.5386 52.986 34.1421 52.986Z" fill="#111827"/>
<path d="M38.6579 52.986C38.2613 52.986 37.881 52.8285 37.6006 52.548C37.3201 52.2676 37.1626 51.8873 37.1626 51.4907C37.1626 51.0941 37.3201 50.7138 37.6006 50.4333C37.881 50.1529 38.2613 49.9954 38.6579 49.9954C39.0545 49.9954 39.4349 50.1529 39.7153 50.4333C39.9957 50.7138 40.1533 51.0941 40.1533 51.4907C40.1533 51.8873 39.9957 52.2676 39.7153 52.548C39.4349 52.8285 39.0545 52.986 38.6579 52.986Z" fill="#111827"/>
<path d="M43.1738 52.986C42.7772 52.986 42.3969 52.8285 42.1164 52.548C41.836 52.2676 41.6785 51.8873 41.6785 51.4907C41.6785 51.0941 41.836 50.7138 42.1164 50.4333C42.3969 50.1529 42.7772 49.9954 43.1738 49.9954C43.5704 49.9954 43.9507 50.1529 44.2312 50.4333C44.5116 50.7138 44.6691 51.0941 44.6691 51.4907C44.6691 51.8873 44.5116 52.2676 44.2312 52.548C43.9507 52.8285 43.5704 52.986 43.1738 52.986Z" fill="#111827"/>
<path d="M47.7046 52.986C47.308 52.986 46.9276 52.8285 46.6472 52.548C46.3668 52.2676 46.2092 51.8873 46.2092 51.4907C46.2092 51.0941 46.3668 50.7138 46.6472 50.4333C46.9276 50.1529 47.308 49.9954 47.7046 49.9954C48.088 50.0146 48.4495 50.1806 48.7139 50.4589C48.9784 50.7373 49.1256 51.1067 49.1251 51.4907C49.1256 51.8747 48.9784 52.2441 48.7139 52.5225C48.4495 52.8008 48.088 52.9668 47.7046 52.986Z" fill="#111827"/>
<path d="M52.2204 52.986C51.8238 52.986 51.4435 52.8285 51.1631 52.548C50.8826 52.2676 50.7251 51.8873 50.7251 51.4907C50.7251 51.0941 50.8826 50.7138 51.1631 50.4333C51.4435 50.1529 51.8238 49.9954 52.2204 49.9954C52.617 49.9954 52.9974 50.1529 53.2778 50.4333C53.5582 50.7138 53.7158 51.0941 53.7158 51.4907C53.7158 51.8873 53.5582 52.2676 53.2778 52.548C52.9974 52.8285 52.617 52.986 52.2204 52.986Z" fill="#111827"/>
<path d="M56.7363 52.986C56.3397 52.986 55.9594 52.8285 55.6789 52.548C55.3985 52.2676 55.241 51.8873 55.241 51.4907C55.241 51.0941 55.3985 50.7138 55.6789 50.4333C55.9594 50.1529 56.3397 49.9954 56.7363 49.9954C57.1329 49.9954 57.5132 50.1529 57.7937 50.4333C58.0741 50.7138 58.2316 51.0941 58.2316 51.4907C58.2316 51.8873 58.0741 52.2676 57.7937 52.548C57.5132 52.8285 57.1329 52.986 56.7363 52.986Z" fill="#111827"/>
<path d="M61.2522 52.986C60.8556 52.986 60.4752 52.8285 60.1948 52.548C59.9144 52.2676 59.7568 51.8873 59.7568 51.4907C59.7568 51.0941 59.9144 50.7138 60.1948 50.4333C60.4752 50.1529 60.8556 49.9954 61.2522 49.9954C61.6487 49.9954 62.0291 50.1529 62.3095 50.4333C62.5899 50.7138 62.7475 51.0941 62.7475 51.4907C62.7475 51.8873 62.5899 52.2676 62.3095 52.548C62.0291 52.8285 61.6487 52.986 61.2522 52.986Z" fill="#111827"/>
<path d="M65.7683 52.986C65.3717 52.986 64.9913 52.8285 64.7109 52.548C64.4305 52.2676 64.2729 51.8873 64.2729 51.4907C64.2729 51.0941 64.4305 50.7138 64.7109 50.4333C64.9913 50.1529 65.3717 49.9954 65.7683 49.9954C66.1649 49.9954 66.5452 50.1529 66.8256 50.4333C67.1061 50.7138 67.2636 51.0941 67.2636 51.4907C67.2636 51.8873 67.1061 52.2676 66.8256 52.548C66.5452 52.8285 66.1649 52.986 65.7683 52.986Z" fill="#111827"/>
<path d="M11.5477 57.6214H7.06173C6.67777 57.6219 6.30833 57.4747 6.02995 57.2102C5.75158 56.9458 5.5856 56.5844 5.56641 56.2009C5.56641 55.8043 5.72395 55.424 6.00438 55.1435C6.2848 54.8631 6.66515 54.7056 7.06173 54.7056H11.5477C11.9443 54.7056 12.3246 54.8631 12.6051 55.1435C12.8855 55.424 13.043 55.8043 13.043 56.2009C13.0238 56.5844 12.8579 56.9458 12.5795 57.2102C12.3011 57.4747 11.9317 57.6219 11.5477 57.6214Z" fill="#111827"/>
<path d="M16.0337 57.6214C15.6497 57.6219 15.2803 57.4747 15.0019 57.2102C14.7235 56.9458 14.5575 56.5844 14.5383 56.2009C14.5383 55.8043 14.6959 55.424 14.9763 55.1435C15.2567 54.8631 15.6371 54.7056 16.0337 54.7056C16.4302 54.7056 16.8106 54.8631 17.091 55.1435C17.3714 55.424 17.529 55.8043 17.529 56.2009C17.5098 56.5844 17.3438 56.9458 17.0654 57.2102C16.7871 57.4747 16.4176 57.6219 16.0337 57.6214Z" fill="#111827"/>
<path d="M20.5944 57.6214C20.2105 57.6219 19.841 57.4747 19.5627 57.2102C19.2843 56.9458 19.1183 56.5844 19.0991 56.2009C19.0991 55.8043 19.2567 55.424 19.5371 55.1435C19.8175 54.8631 20.1979 54.7056 20.5944 54.7056C20.991 54.7056 21.3714 54.8631 21.6518 55.1435C21.9322 55.424 22.0898 55.8043 22.0898 56.2009C22.0706 56.5844 21.9046 56.9458 21.6262 57.2102C21.3479 57.4747 20.9784 57.6219 20.5944 57.6214Z" fill="#111827"/>
<path d="M25.1103 57.6214C24.7264 57.6219 24.3569 57.4747 24.0785 57.2102C23.8002 56.9458 23.6342 56.5844 23.615 56.2009C23.615 55.8043 23.7725 55.424 24.053 55.1435C24.3334 54.8631 24.7137 54.7056 25.1103 54.7056C25.5069 54.7056 25.8872 54.8631 26.1677 55.1435C26.4481 55.424 26.6056 55.8043 26.6056 56.2009C26.5864 56.5844 26.4204 56.9458 26.1421 57.2102C25.8637 57.4747 25.4943 57.6219 25.1103 57.6214Z" fill="#111827"/>
<path d="M29.6262 57.6214C29.2422 57.6219 28.8728 57.4747 28.5944 57.2102C28.316 56.9458 28.1501 56.5844 28.1309 56.2009C28.1309 55.8043 28.2884 55.424 28.5688 55.1435C28.8493 54.8631 29.2296 54.7056 29.6262 54.7056C30.0228 54.7056 30.4031 54.8631 30.6835 55.1435C30.964 55.424 31.1215 55.8043 31.1215 56.2009C31.1023 56.5844 30.9363 56.9458 30.658 57.2102C30.3796 57.4747 30.0102 57.6219 29.6262 57.6214Z" fill="#111827"/>
<path d="M34.1421 57.6214C33.7581 57.6219 33.3887 57.4747 33.1103 57.2102C32.8319 56.9458 32.6659 56.5844 32.6467 56.2009C32.6467 55.8043 32.8043 55.424 33.0847 55.1435C33.3651 54.8631 33.7455 54.7056 34.1421 54.7056C34.5386 54.7056 34.919 54.8631 35.1994 55.1435C35.4798 55.424 35.6374 55.8043 35.6374 56.2009C35.6182 56.5844 35.4522 56.9458 35.1738 57.2102C34.8955 57.4747 34.526 57.6219 34.1421 57.6214Z" fill="#111827"/>
<path d="M38.6579 57.6214C38.274 57.6219 37.9045 57.4747 37.6261 57.2102C37.3478 56.9458 37.1818 56.5844 37.1626 56.2009C37.1626 55.8043 37.3201 55.424 37.6006 55.1435C37.881 54.8631 38.2613 54.7056 38.6579 54.7056C39.0545 54.7056 39.4349 54.8631 39.7153 55.1435C39.9957 55.424 40.1533 55.8043 40.1533 56.2009C40.1341 56.5844 39.9681 56.9458 39.6897 57.2102C39.4113 57.4747 39.0419 57.6219 38.6579 57.6214Z" fill="#111827"/>
<path d="M43.1738 57.6214C42.7898 57.6219 42.4204 57.4747 42.142 57.2102C41.8637 56.9458 41.6977 56.5844 41.6785 56.2009C41.6785 55.8043 41.836 55.424 42.1164 55.1435C42.3969 54.8631 42.7772 54.7056 43.1738 54.7056C43.5704 54.7056 43.9507 54.8631 44.2312 55.1435C44.5116 55.424 44.6691 55.8043 44.6691 56.2009C44.6499 56.5844 44.4839 56.9458 44.2056 57.2102C43.9272 57.4747 43.5578 57.6219 43.1738 57.6214Z" fill="#111827"/>
<path d="M47.7046 57.6214C47.3206 57.6219 46.9512 57.4747 46.6728 57.2102C46.3944 56.9458 46.2284 56.5844 46.2092 56.2009C46.2092 55.8043 46.3668 55.424 46.6472 55.1435C46.9276 54.8631 47.308 54.7056 47.7046 54.7056C48.088 54.7248 48.4495 54.8907 48.7139 55.1691C48.9784 55.4475 49.1256 55.8169 49.1251 56.2009C49.107 56.5718 48.9515 56.9227 48.6889 57.1853C48.4264 57.4478 48.0755 57.6033 47.7046 57.6214Z" fill="#111827"/>
<path d="M52.2204 57.6214C51.8365 57.6219 51.467 57.4747 51.1886 57.2102C50.9103 56.9458 50.7443 56.5844 50.7251 56.2009C50.7251 55.8043 50.8826 55.424 51.1631 55.1435C51.4435 54.8631 51.8238 54.7056 52.2204 54.7056C52.617 54.7056 52.9974 54.8631 53.2778 55.1435C53.5582 55.424 53.7158 55.8043 53.7158 56.2009C53.6966 56.5844 53.5306 56.9458 53.2522 57.2102C52.9738 57.4747 52.6044 57.6219 52.2204 57.6214Z" fill="#111827"/>
<path d="M56.7363 57.6214C56.3523 57.6219 55.9829 57.4747 55.7045 57.2102C55.4261 56.9458 55.2602 56.5844 55.241 56.2009C55.241 55.8043 55.3985 55.424 55.6789 55.1435C55.9594 54.8631 56.3397 54.7056 56.7363 54.7056C57.1329 54.7056 57.5132 54.8631 57.7937 55.1435C58.0741 55.424 58.2316 55.8043 58.2316 56.2009C58.2124 56.5844 58.0464 56.9458 57.7681 57.2102C57.4897 57.4747 57.1203 57.6219 56.7363 57.6214Z" fill="#111827"/>
<path d="M61.2522 57.6214C60.8682 57.6219 60.4988 57.4747 60.2204 57.2102C59.942 56.9458 59.776 56.5844 59.7568 56.2009C59.7568 55.8043 59.9144 55.424 60.1948 55.1435C60.4752 54.8631 60.8556 54.7056 61.2522 54.7056C61.6487 54.7056 62.0291 54.8631 62.3095 55.1435C62.5899 55.424 62.7475 55.8043 62.7475 56.2009C62.7283 56.5844 62.5623 56.9458 62.2839 57.2102C62.0055 57.4747 61.6361 57.6219 61.2522 57.6214Z" fill="#111827"/>
<path d="M65.7683 57.6214C65.3843 57.6219 65.0149 57.4747 64.7365 57.2102C64.4581 56.9458 64.2921 56.5844 64.2729 56.2009C64.2729 55.8043 64.4305 55.424 64.7109 55.1435C64.9913 54.8631 65.3717 54.7056 65.7683 54.7056C66.1649 54.7056 66.5452 54.8631 66.8256 55.1435C67.1061 55.424 67.2636 55.8043 67.2636 56.2009C67.2444 56.5844 67.0784 56.9458 66.8001 57.2102C66.5217 57.4747 66.1522 57.6219 65.7683 57.6214Z" fill="#111827"/>
<path d="M16.0337 62.2718H7.06173C6.66515 62.2718 6.2848 62.1143 6.00438 61.8339C5.72395 61.5534 5.56641 61.1731 5.56641 60.7765C5.5856 60.393 5.75158 60.0316 6.02995 59.7672C6.30833 59.5027 6.67777 59.3555 7.06173 59.356H16.0337C16.4177 59.3555 16.7871 59.5027 17.0655 59.7672C17.3439 60.0316 17.5098 60.393 17.529 60.7765C17.529 61.1731 17.3715 61.5534 17.0911 61.8339C16.8106 62.1143 16.4303 62.2718 16.0337 62.2718Z" fill="#111827"/>
<path d="M20.5944 62.2718C20.1979 62.2718 19.8175 62.1143 19.5371 61.8339C19.2567 61.5534 19.0991 61.1731 19.0991 60.7765C19.1183 60.393 19.2843 60.0316 19.5627 59.7672C19.841 59.5027 20.2105 59.3555 20.5944 59.356C20.9784 59.3555 21.3479 59.5027 21.6262 59.7672C21.9046 60.0316 22.0706 60.393 22.0898 60.7765C22.0898 61.1731 21.9322 61.5534 21.6518 61.8339C21.3714 62.1143 20.991 62.2718 20.5944 62.2718Z" fill="#111827"/>
<path d="M25.1103 62.2718C24.7137 62.2718 24.3334 62.1143 24.053 61.8339C23.7725 61.5534 23.615 61.1731 23.615 60.7765C23.6342 60.393 23.8002 60.0316 24.0785 59.7672C24.3569 59.5027 24.7264 59.3555 25.1103 59.356C25.4943 59.3555 25.8637 59.5027 26.1421 59.7672C26.4204 60.0316 26.5864 60.393 26.6056 60.7765C26.6056 61.1731 26.4481 61.5534 26.1677 61.8339C25.8872 62.1143 25.5069 62.2718 25.1103 62.2718Z" fill="#111827"/>
<path d="M29.6262 62.2718C29.2296 62.2718 28.8493 62.1143 28.5688 61.8339C28.2884 61.5534 28.1309 61.1731 28.1309 60.7765C28.1501 60.393 28.316 60.0316 28.5944 59.7672C28.8728 59.5027 29.2422 59.3555 29.6262 59.356C30.0102 59.3555 30.3796 59.5027 30.658 59.7672C30.9363 60.0316 31.1023 60.393 31.1215 60.7765C31.1215 61.1731 30.964 61.5534 30.6835 61.8339C30.4031 62.1143 30.0228 62.2718 29.6262 62.2718Z" fill="#111827"/>
<path d="M34.1421 62.2718C33.7455 62.2718 33.3651 62.1143 33.0847 61.8339C32.8043 61.5534 32.6467 61.1731 32.6467 60.7765C32.6659 60.393 32.8319 60.0316 33.1103 59.7672C33.3887 59.5027 33.7581 59.3555 34.1421 59.356C34.526 59.3555 34.8955 59.5027 35.1738 59.7672C35.4522 60.0316 35.6182 60.393 35.6374 60.7765C35.6374 61.1731 35.4798 61.5534 35.1994 61.8339C34.919 62.1143 34.5386 62.2718 34.1421 62.2718Z" fill="#111827"/>
<path d="M38.6579 62.2718C38.2613 62.2718 37.881 62.1143 37.6006 61.8339C37.3201 61.5534 37.1626 61.1731 37.1626 60.7765C37.1818 60.393 37.3478 60.0316 37.6261 59.7672C37.9045 59.5027 38.274 59.3555 38.6579 59.356C39.0419 59.3555 39.4113 59.5027 39.6897 59.7672C39.9681 60.0316 40.1341 60.393 40.1533 60.7765C40.1533 61.1731 39.9957 61.5534 39.7153 61.8339C39.4349 62.1143 39.0545 62.2718 38.6579 62.2718Z" fill="#111827"/>
<path d="M43.1737 62.272C42.7771 62.272 42.3967 62.1145 42.1163 61.8341C41.8359 61.5536 41.6783 61.1733 41.6783 60.7767C41.6759 60.5831 41.7135 60.391 41.7887 60.2126C41.864 60.0341 41.9753 59.8732 42.1157 59.7398C42.2561 59.6064 42.4226 59.5035 42.6046 59.4375C42.7867 59.3715 42.9804 59.3438 43.1737 59.3561C43.5576 59.3557 43.9271 59.5029 44.2054 59.7674C44.4838 60.0318 44.6498 60.3932 44.669 60.7767C44.669 61.1733 44.5114 61.5536 44.231 61.8341C43.9506 62.1145 43.5702 62.272 43.1737 62.272Z" fill="#111827"/>
<path d="M47.7046 62.2719C47.308 62.2719 46.9276 62.1144 46.6472 61.834C46.3668 61.5535 46.2092 61.1732 46.2092 60.7766C46.2284 60.3931 46.3944 60.0317 46.6728 59.7672C46.9512 59.5028 47.3206 59.3556 47.7046 59.356C47.8917 59.354 48.0773 59.3894 48.2505 59.4601C48.4238 59.5308 48.5812 59.6353 48.7135 59.7677C48.8458 59.9 48.9504 60.0574 49.0211 60.2306C49.0917 60.4039 49.1271 60.5895 49.1251 60.7766C49.1256 61.1606 48.9784 61.53 48.7139 61.8084C48.4495 62.0867 48.088 62.2527 47.7046 62.2719Z" fill="#111827"/>
<path d="M52.2204 62.2718C51.8238 62.2718 51.4435 62.1143 51.1631 61.8339C50.8826 61.5534 50.7251 61.1731 50.7251 60.7765C50.7443 60.393 50.9103 60.0316 51.1886 59.7672C51.467 59.5027 51.8365 59.3555 52.2204 59.356C52.6044 59.3555 52.9738 59.5027 53.2522 59.7672C53.5306 60.0316 53.6966 60.393 53.7158 60.7765C53.7158 61.1731 53.5582 61.5534 53.2778 61.8339C52.9974 62.1143 52.617 62.2718 52.2204 62.2718Z" fill="#111827"/>
<path d="M56.7363 62.2718C56.3397 62.2718 55.9594 62.1143 55.6789 61.8339C55.3985 61.5534 55.241 61.1731 55.241 60.7765C55.2602 60.393 55.4261 60.0316 55.7045 59.7672C55.9829 59.5027 56.3523 59.3555 56.7363 59.356C57.1203 59.3555 57.4897 59.5027 57.7681 59.7672C58.0464 60.0316 58.2124 60.393 58.2316 60.7765C58.2316 61.1731 58.0741 61.5534 57.7937 61.8339C57.5132 62.1143 57.1329 62.2718 56.7363 62.2718Z" fill="#111827"/>
<path d="M65.7682 62.2718H61.2822C60.8856 62.2718 60.5053 62.1143 60.2248 61.8339C59.9444 61.5534 59.7869 61.1731 59.7869 60.7765C59.8061 60.393 59.9721 60.0316 60.2504 59.7672C60.5288 59.5027 60.8982 59.3555 61.2822 59.356H65.7682C66.1521 59.3555 66.5216 59.5027 66.8 59.7672C67.0783 60.0316 67.2443 60.393 67.2635 60.7765C67.2635 61.1731 67.106 61.5534 66.8255 61.8339C66.5451 62.1143 66.1648 62.2718 65.7682 62.2718Z" fill="#111827"/>
<path d="M11.5476 66.9225C11.151 66.9225 10.7706 66.765 10.4902 66.4846C10.2098 66.2041 10.0522 65.8238 10.0522 65.4272C10.0522 65.0306 10.2098 64.6503 10.4902 64.3699C10.7706 64.0894 11.151 63.9319 11.5476 63.9319C11.9442 63.9319 12.3245 64.0894 12.6049 64.3699C12.8854 64.6503 13.0429 65.0306 13.0429 65.4272C13.0429 65.8238 12.8854 66.2041 12.6049 66.4846C12.3245 66.765 11.9442 66.9225 11.5476 66.9225Z" fill="#111827"/>
<path d="M11.5476 72.7094C11.151 72.7094 10.7706 72.5519 10.4902 72.2714C10.2098 71.991 10.0522 71.6107 10.0522 71.2141C10.0522 70.8175 10.2098 70.4371 10.4902 70.1567C10.7706 69.8763 11.151 69.7188 11.5476 69.7188C11.9442 69.7188 12.3245 69.8763 12.6049 70.1567C12.8854 70.4371 13.0429 70.8175 13.0429 71.2141C13.0429 71.6107 12.8854 71.991 12.6049 72.2714C12.3245 72.5519 11.9442 72.7094 11.5476 72.7094Z" fill="#111827"/>
<path d="M16.0337 66.9225C15.6371 66.9225 15.2567 66.765 14.9763 66.4846C14.6959 66.2041 14.5383 65.8238 14.5383 65.4272C14.5383 65.0306 14.6959 64.6503 14.9763 64.3699C15.2567 64.0894 15.6371 63.9319 16.0337 63.9319C16.4302 63.9319 16.8106 64.0894 17.091 64.3699C17.3714 64.6503 17.529 65.0306 17.529 65.4272C17.529 65.8238 17.3714 66.2041 17.091 66.4846C16.8106 66.765 16.4302 66.9225 16.0337 66.9225Z" fill="#111827"/>
<path d="M20.5944 66.9225C20.1979 66.9225 19.8175 66.765 19.5371 66.4846C19.2567 66.2041 19.0991 65.8238 19.0991 65.4272C19.0991 65.0306 19.2567 64.6503 19.5371 64.3699C19.8175 64.0894 20.1979 63.9319 20.5944 63.9319C20.991 63.9319 21.3714 64.0894 21.6518 64.3699C21.9322 64.6503 22.0898 65.0306 22.0898 65.4272C22.0898 65.8238 21.9322 66.2041 21.6518 66.4846C21.3714 66.765 20.991 66.9225 20.5944 66.9225Z" fill="#111827"/>
<path d="M25.1103 66.9225C24.7137 66.9225 24.3334 66.765 24.053 66.4846C23.7725 66.2041 23.615 65.8238 23.615 65.4272C23.615 65.0306 23.7725 64.6503 24.053 64.3699C24.3334 64.0894 24.7137 63.9319 25.1103 63.9319C25.5069 63.9319 25.8872 64.0894 26.1677 64.3699C26.4481 64.6503 26.6056 65.0306 26.6056 65.4272C26.6056 65.8238 26.4481 66.2041 26.1677 66.4846C25.8872 66.765 25.5069 66.9225 25.1103 66.9225Z" fill="#111827"/>
<path d="M29.6262 66.9225C29.2296 66.9225 28.8493 66.765 28.5688 66.4846C28.2884 66.2041 28.1309 65.8238 28.1309 65.4272C28.1309 65.0306 28.2884 64.6503 28.5688 64.3699C28.8493 64.0894 29.2296 63.9319 29.6262 63.9319C30.0228 63.9319 30.4031 64.0894 30.6835 64.3699C30.964 64.6503 31.1215 65.0306 31.1215 65.4272C31.1215 65.8238 30.964 66.2041 30.6835 66.4846C30.4031 66.765 30.0228 66.9225 29.6262 66.9225Z" fill="#111827"/>
<path d="M34.1421 66.9225C33.7455 66.9225 33.3651 66.765 33.0847 66.4846C32.8043 66.2041 32.6467 65.8238 32.6467 65.4272C32.6467 65.0306 32.8043 64.6503 33.0847 64.3699C33.3651 64.0894 33.7455 63.9319 34.1421 63.9319C34.5386 63.9319 34.919 64.0894 35.1994 64.3699C35.4798 64.6503 35.6374 65.0306 35.6374 65.4272C35.6374 65.8238 35.4798 66.2041 35.1994 66.4846C34.919 66.765 34.5386 66.9225 34.1421 66.9225Z" fill="#111827"/>
<path d="M38.6579 66.9225C38.2613 66.9225 37.881 66.765 37.6006 66.4846C37.3201 66.2041 37.1626 65.8238 37.1626 65.4272C37.1626 65.0306 37.3201 64.6503 37.6006 64.3699C37.881 64.0894 38.2613 63.9319 38.6579 63.9319C39.0545 63.9319 39.4349 64.0894 39.7153 64.3699C39.9957 64.6503 40.1533 65.0306 40.1533 65.4272C40.1533 65.8238 39.9957 66.2041 39.7153 66.4846C39.4349 66.765 39.0545 66.9225 38.6579 66.9225Z" fill="#111827"/>
<path d="M43.1738 66.9225C42.7772 66.9225 42.3969 66.765 42.1164 66.4846C41.836 66.2041 41.6785 65.8238 41.6785 65.4272C41.6785 65.0306 41.836 64.6503 42.1164 64.3699C42.3969 64.0894 42.7772 63.9319 43.1738 63.9319C43.5704 63.9319 43.9507 64.0894 44.2312 64.3699C44.5116 64.6503 44.6691 65.0306 44.6691 65.4272C44.6691 65.8238 44.5116 66.2041 44.2312 66.4846C43.9507 66.765 43.5704 66.9225 43.1738 66.9225Z" fill="#111827"/>
<path d="M47.7046 66.9225C47.308 66.9225 46.9276 66.765 46.6472 66.4846C46.3668 66.2041 46.2092 65.8238 46.2092 65.4272C46.2092 65.0306 46.3668 64.6503 46.6472 64.3699C46.9276 64.0894 47.308 63.9319 47.7046 63.9319C48.088 63.9511 48.4495 64.1171 48.7139 64.3954C48.9784 64.6738 49.1256 65.0432 49.1251 65.4272C49.1256 65.8112 48.9784 66.1806 48.7139 66.459C48.4495 66.7374 48.088 66.9033 47.7046 66.9225Z" fill="#111827"/>
<path d="M52.2204 66.9225C51.8238 66.9225 51.4435 66.765 51.1631 66.4846C50.8826 66.2041 50.7251 65.8238 50.7251 65.4272C50.7251 65.0306 50.8826 64.6503 51.1631 64.3699C51.4435 64.0894 51.8238 63.9319 52.2204 63.9319C52.617 63.9319 52.9974 64.0894 53.2778 64.3699C53.5582 64.6503 53.7158 65.0306 53.7158 65.4272C53.7158 65.8238 53.5582 66.2041 53.2778 66.4846C52.9974 66.765 52.617 66.9225 52.2204 66.9225Z" fill="#111827"/>
<path d="M56.7363 66.9225C56.3397 66.9225 55.9594 66.765 55.6789 66.4846C55.3985 66.2041 55.241 65.8238 55.241 65.4272C55.241 65.0306 55.3985 64.6503 55.6789 64.3699C55.9594 64.0894 56.3397 63.9319 56.7363 63.9319C57.1329 63.9319 57.5132 64.0894 57.7937 64.3699C58.0741 64.6503 58.2316 65.0306 58.2316 65.4272C58.2316 65.8238 58.0741 66.2041 57.7937 66.4846C57.5132 66.765 57.1329 66.9225 56.7363 66.9225Z" fill="#111827"/>
<path d="M61.2522 66.9225C60.8556 66.9225 60.4752 66.765 60.1948 66.4846C59.9144 66.2041 59.7568 65.8238 59.7568 65.4272C59.7568 65.0306 59.9144 64.6503 60.1948 64.3699C60.4752 64.0894 60.8556 63.9319 61.2522 63.9319C61.6487 63.9319 62.0291 64.0894 62.3095 64.3699C62.5899 64.6503 62.7475 65.0306 62.7475 65.4272C62.7475 65.8238 62.5899 66.2041 62.3095 66.4846C62.0291 66.765 61.6487 66.9225 61.2522 66.9225Z" fill="#111827"/>
<path d="M65.7683 66.9225C65.3717 66.9225 64.9913 66.765 64.7109 66.4846C64.4305 66.2041 64.2729 65.8238 64.2729 65.4272C64.2729 65.0306 64.4305 64.6503 64.7109 64.3699C64.9913 64.0894 65.3717 63.9319 65.7683 63.9319C66.1649 63.9319 66.5452 64.0894 66.8256 64.3699C67.1061 64.6503 67.2636 65.0306 67.2636 65.4272C67.2636 65.8238 67.1061 66.2041 66.8256 66.4846C66.5452 66.765 66.1649 66.9225 65.7683 66.9225Z" fill="#111827"/>
<path d="M64.7515 70.2571C65.028 70.0006 65.3912 69.8582 65.7683 69.8582C66.1454 69.8582 66.5086 70.0006 66.7851 70.2571C67.0416 70.5336 67.184 70.8968 67.184 71.2739C67.184 71.651 67.0416 72.0142 66.7851 72.2907C66.5086 72.5472 66.1454 72.6897 65.7683 72.6897C65.3912 72.6897 65.028 72.5472 64.7515 72.2907C64.495 72.0142 64.3525 71.651 64.3525 71.2739C64.3525 70.8968 64.495 70.5336 64.7515 70.2571Z" fill="#111827"/>
<path d="M79.3308 46.4662C78.9342 46.4662 78.5538 46.3087 78.2734 46.0283C77.993 45.7478 77.8354 45.3675 77.8354 44.9709C77.8354 44.5743 77.993 44.194 78.2734 43.9136C78.5538 43.6332 78.9342 43.4756 79.3308 43.4756C79.7274 43.4756 80.1077 43.6332 80.3881 43.9136C80.6686 44.194 80.8261 44.5743 80.8261 44.9709C80.8261 45.3675 80.6686 45.7478 80.3881 46.0283C80.1077 46.3087 79.7274 46.4662 79.3308 46.4662Z" fill="#111827"/>
<path d="M83.8466 46.4662C83.4501 46.4662 83.0697 46.3087 82.7893 46.0283C82.5089 45.7478 82.3513 45.3675 82.3513 44.9709C82.3513 44.5743 82.5089 44.194 82.7893 43.9136C83.0697 43.6332 83.4501 43.4756 83.8466 43.4756C84.2432 43.4756 84.6236 43.6332 84.904 43.9136C85.1844 44.194 85.342 44.5743 85.342 44.9709C85.342 45.3675 85.1844 45.7478 84.904 46.0283C84.6236 46.3087 84.2432 46.4662 83.8466 46.4662Z" fill="#111827"/>
<path d="M88.3625 46.4662C87.9659 46.4662 87.5856 46.3087 87.3052 46.0283C87.0247 45.7478 86.8672 45.3675 86.8672 44.9709C86.8672 44.5743 87.0247 44.194 87.3052 43.9136C87.5856 43.6332 87.9659 43.4756 88.3625 43.4756C88.7591 43.4756 89.1394 43.6332 89.4199 43.9136C89.7003 44.194 89.8578 44.5743 89.8578 44.9709C89.8578 45.3675 89.7003 45.7478 89.4199 46.0283C89.1394 46.3087 88.7591 46.4662 88.3625 46.4662Z" fill="#111827"/>
<path d="M79.3308 52.986C78.9342 52.986 78.5538 52.8285 78.2734 52.548C77.993 52.2676 77.8354 51.8873 77.8354 51.4907C77.8354 51.0941 77.993 50.7138 78.2734 50.4333C78.5538 50.1529 78.9342 49.9954 79.3308 49.9954C79.7274 49.9954 80.1077 50.1529 80.3881 50.4333C80.6686 50.7138 80.8261 51.0941 80.8261 51.4907C80.8261 51.8873 80.6686 52.2676 80.3881 52.548C80.1077 52.8285 79.7274 52.986 79.3308 52.986Z" fill="#111827"/>
<path d="M83.8466 52.986C83.4501 52.986 83.0697 52.8285 82.7893 52.548C82.5089 52.2676 82.3513 51.8873 82.3513 51.4907C82.3513 51.0941 82.5089 50.7138 82.7893 50.4333C83.0697 50.1529 83.4501 49.9954 83.8466 49.9954C84.2432 49.9954 84.6236 50.1529 84.904 50.4333C85.1844 50.7138 85.342 51.0941 85.342 51.4907C85.342 51.8873 85.1844 52.2676 84.904 52.548C84.6236 52.8285 84.2432 52.986 83.8466 52.986Z" fill="#111827"/>
<path d="M88.3625 52.986C87.9659 52.986 87.5856 52.8285 87.3052 52.548C87.0247 52.2676 86.8672 51.8873 86.8672 51.4907C86.8672 51.0941 87.0247 50.7138 87.3052 50.4333C87.5856 50.1529 87.9659 49.9954 88.3625 49.9954C88.7591 49.9954 89.1394 50.1529 89.4199 50.4333C89.7003 50.7138 89.8578 51.0941 89.8578 51.4907C89.8578 51.8873 89.7003 52.2676 89.4199 52.548C89.1394 52.8285 88.7591 52.986 88.3625 52.986Z" fill="#111827"/>
<path d="M79.3308 57.6214C78.9468 57.6219 78.5774 57.4747 78.299 57.2102C78.0206 56.9458 77.8546 56.5844 77.8354 56.2009C77.8354 55.8043 77.993 55.424 78.2734 55.1435C78.5538 54.8631 78.9342 54.7056 79.3308 54.7056C79.7274 54.7056 80.1077 54.8631 80.3881 55.1435C80.6686 55.424 80.8261 55.8043 80.8261 56.2009C80.8069 56.5844 80.6409 56.9458 80.3626 57.2102C80.0842 57.4747 79.7147 57.6219 79.3308 57.6214Z" fill="#111827"/>
<path d="M83.8466 57.6214C83.4627 57.6219 83.0932 57.4747 82.8149 57.2102C82.5365 56.9458 82.3705 56.5844 82.3513 56.2009C82.3513 55.8043 82.5089 55.424 82.7893 55.1435C83.0697 54.8631 83.4501 54.7056 83.8466 54.7056C84.2432 54.7056 84.6236 54.8631 84.904 55.1435C85.1844 55.424 85.342 55.8043 85.342 56.2009C85.3228 56.5844 85.1568 56.9458 84.8784 57.2102C84.6 57.4747 84.2306 57.6219 83.8466 57.6214Z" fill="#111827"/>
<path d="M88.3625 57.6214C87.9785 57.6219 87.6091 57.4747 87.3307 57.2102C87.0524 56.9458 86.8864 56.5844 86.8672 56.2009C86.8672 55.8043 87.0247 55.424 87.3052 55.1435C87.5856 54.8631 87.9659 54.7056 88.3625 54.7056C88.7591 54.7056 89.1394 54.8631 89.4199 55.1435C89.7003 55.424 89.8578 55.8043 89.8578 56.2009C89.8386 56.5844 89.6727 56.9458 89.3943 57.2102C89.1159 57.4747 88.7465 57.6219 88.3625 57.6214Z" fill="#111827"/>
<path d="M79.3308 62.2718C78.9342 62.2718 78.5538 62.1143 78.2734 61.8339C77.993 61.5534 77.8354 61.1731 77.8354 60.7765C77.8546 60.393 78.0206 60.0316 78.299 59.7672C78.5774 59.5027 78.9468 59.3555 79.3308 59.356C79.7147 59.3555 80.0842 59.5027 80.3626 59.7672C80.6409 60.0316 80.8069 60.393 80.8261 60.7765C80.8261 61.1731 80.6686 61.5534 80.3881 61.8339C80.1077 62.1143 79.7274 62.2718 79.3308 62.2718Z" fill="#111827"/>
<path d="M83.8466 62.2718C83.4501 62.2718 83.0697 62.1143 82.7893 61.8339C82.5089 61.5534 82.3513 61.1731 82.3513 60.7765C82.3705 60.393 82.5365 60.0316 82.8149 59.7672C83.0932 59.5027 83.4627 59.3555 83.8466 59.356C84.2306 59.3555 84.6 59.5027 84.8784 59.7672C85.1568 60.0316 85.3228 60.393 85.342 60.7765C85.342 61.1731 85.1844 61.5534 84.904 61.8339C84.6236 62.1143 84.2432 62.2718 83.8466 62.2718Z" fill="#111827"/>
<path d="M88.3625 62.2718C87.9659 62.2718 87.5856 62.1143 87.3052 61.8339C87.0247 61.5534 86.8672 61.1731 86.8672 60.7765C86.8864 60.393 87.0524 60.0316 87.3307 59.7672C87.6091 59.5027 87.9785 59.3555 88.3625 59.356C88.7465 59.3555 89.1159 59.5027 89.3943 59.7672C89.6727 60.0316 89.8386 60.393 89.8578 60.7765C89.8578 61.1731 89.7003 61.5534 89.4199 61.8339C89.1394 62.1143 88.7591 62.2718 88.3625 62.2718Z" fill="#111827"/>
<path d="M79.3308 66.9225C78.9342 66.9225 78.5538 66.765 78.2734 66.4846C77.993 66.2041 77.8354 65.8238 77.8354 65.4272C77.8354 65.0306 77.993 64.6503 78.2734 64.3699C78.5538 64.0894 78.9342 63.9319 79.3308 63.9319C79.7274 63.9319 80.1077 64.0894 80.3881 64.3699C80.6686 64.6503 80.8261 65.0306 80.8261 65.4272C80.8261 65.8238 80.6686 66.2041 80.3881 66.4846C80.1077 66.765 79.7274 66.9225 79.3308 66.9225Z" fill="#111827"/>
<path d="M83.8466 66.9225C83.4501 66.9225 83.0697 66.765 82.7893 66.4846C82.5089 66.2041 82.3513 65.8238 82.3513 65.4272C82.3513 65.0306 82.5089 64.6503 82.7893 64.3699C83.0697 64.0894 83.4501 63.9319 83.8466 63.9319C84.2432 63.9319 84.6236 64.0894 84.904 64.3699C85.1844 64.6503 85.342 65.0306 85.342 65.4272C85.342 65.8238 85.1844 66.2041 84.904 66.4846C84.6236 66.765 84.2432 66.9225 83.8466 66.9225Z" fill="#111827"/>
<path d="M88.3625 66.9225C87.9659 66.9225 87.5856 66.765 87.3052 66.4846C87.0247 66.2041 86.8672 65.8238 86.8672 65.4272C86.8672 65.0306 87.0247 64.6503 87.3052 64.3699C87.5856 64.0894 87.9659 63.9319 88.3625 63.9319C88.7591 63.9319 89.1394 64.0894 89.4199 64.3699C89.7003 64.6503 89.8578 65.0306 89.8578 65.4272C89.8578 65.8238 89.7003 66.2041 89.4199 66.4846C89.1394 66.765 88.7591 66.9225 88.3625 66.9225Z" fill="#111827"/>
<path d="M92.8784 66.9225C92.4818 66.9225 92.1015 66.765 91.821 66.4846C91.5406 66.2041 91.3831 65.8238 91.3831 65.4272C91.3831 65.0306 91.5406 64.6503 91.821 64.3699C92.1015 64.0894 92.4818 63.9319 92.8784 63.9319C93.275 63.9319 93.6553 64.0894 93.9357 64.3699C94.2162 64.6503 94.3737 65.0306 94.3737 65.4272C94.3737 65.8238 94.2162 66.2041 93.9357 66.4846C93.6553 66.765 93.275 66.9225 92.8784 66.9225Z" fill="#111827"/>
</g>
<defs>
<clipPath id="clip0_22_1165">
<rect width="99.3944" height="80" fill="white" transform="translate(0.302734 0.5)"/>
</clipPath>
</defs>
</svg>
