<svg width="124" height="81" viewBox="0 0 124 81" fill="none" xmlns="http://www.w3.org/2000/svg">
<g clip-path="url(#clip0_22_1135)">
<path d="M74.7568 73.5435H44.9639C44.5872 73.5435 44.2259 73.3938 43.9595 73.1275C43.6931 72.8611 43.5435 72.4998 43.5435 72.1231V68.3352H76.1954V71.9774C76.2161 72.1773 76.194 72.3794 76.1308 72.5702C76.0676 72.761 75.9646 72.9362 75.8286 73.0842C75.6926 73.2322 75.5267 73.3497 75.342 73.4289C75.1572 73.5081 74.9578 73.5471 74.7568 73.5435Z" fill="#14B8A6"/>
<path d="M111.156 6.5H13.156V14.5H111.156V6.5Z" fill="#14B8A6"/>
<path d="M118.153 70.1563H5.77417V0.5H118.08L118.153 70.1563ZM9.41633 66.5141H114.438V4.14216H9.41633V66.5141Z" fill="#111827"/>
<path d="M111.156 70.5H13.156V6.5H111.156V70.5ZM16.6061 66.9444H107.706V10.0556H16.6061V66.9444Z" fill="#111827"/>
<path d="M117.625 80.5H6.39343C4.88653 80.5 3.44134 79.9014 2.37581 78.8359C1.31027 77.7704 0.71167 76.3252 0.71167 74.8183V66.5142H123.288V74.7454C123.298 75.4961 123.159 76.2413 122.879 76.9379C122.599 77.6345 122.183 78.2687 121.657 78.8038C121.13 79.3389 120.503 79.7643 119.811 80.0554C119.119 80.3466 118.376 80.4977 117.625 80.5ZM4.35383 70.1563V74.7454C4.35383 75.2864 4.5687 75.8052 4.9512 76.1877C5.3337 76.5702 5.85249 76.785 6.39343 76.785H117.625C118.163 76.7802 118.677 76.5632 119.055 76.1813C119.434 75.7993 119.646 75.2832 119.646 74.7454V70.1563H4.35383Z" fill="#111827"/>
<path d="M74.7568 75.3646H44.9639C44.1042 75.3646 43.2798 75.0231 42.6719 74.4152C42.064 73.8073 41.7224 72.9828 41.7224 72.1231V66.5142H78.0166V71.9774C78.0337 72.4161 77.9621 72.8537 77.806 73.264C77.6499 73.6743 77.4125 74.0489 77.1081 74.3652C76.8037 74.6816 76.4385 74.9331 76.0344 75.1049C75.6304 75.2766 75.1958 75.3649 74.7568 75.3646ZM45.3646 71.7224H74.3744V70.1563H45.3646V71.7224Z" fill="#111827"/>
</g>
<defs>
<clipPath id="clip0_22_1135">
<rect width="122.577" height="80" fill="white" transform="translate(0.71167 0.5)"/>
</clipPath>
</defs>
</svg>
