<svg width="56" height="81" viewBox="0 0 56 81" fill="none" xmlns="http://www.w3.org/2000/svg">
<g clip-path="url(#clip0_22_886)">
<path d="M28.0066 57.9975C23.5145 57.9975 19.2058 56.2157 16.0257 53.0431C12.8455 49.8705 11.0536 45.566 11.043 41.0739V18.7849V44.7976C11.1668 49.2125 13.0077 53.405 16.1742 56.484C19.3408 59.5629 23.5833 61.2854 27.9999 61.2854C32.4166 61.2854 36.6591 59.5629 39.8256 56.484C42.9921 53.405 44.833 49.2125 44.9569 44.7976V41.0739C44.9463 45.5637 43.1562 49.8661 39.979 53.0384C36.8017 56.2106 32.4964 57.9939 28.0066 57.9975Z" fill="#14B8A6"/>
<path d="M28.0067 74.7075C27.8437 74.7075 27.6822 74.6754 27.5317 74.613C27.3811 74.5506 27.2442 74.4592 27.1289 74.3439C27.0137 74.2287 26.9223 74.0918 26.8599 73.9412C26.7975 73.7906 26.7654 73.6292 26.7654 73.4662V61.7478C26.7654 61.4186 26.8962 61.1029 27.1289 60.8701C27.3617 60.6374 27.6775 60.5066 28.0067 60.5066C28.3359 60.5066 28.6515 60.6374 28.8843 60.8701C29.1171 61.1029 29.2479 61.4186 29.2479 61.7478V73.4662C29.2479 73.6292 29.2158 73.7906 29.1534 73.9412C29.091 74.0918 28.9996 74.2287 28.8843 74.3439C28.7691 74.4592 28.6323 74.5506 28.4817 74.613C28.3311 74.6754 28.1697 74.7075 28.0067 74.7075Z" fill="#111827"/>
<path d="M45.9579 75.9488H10.042C9.71282 75.9488 9.39712 75.818 9.16434 75.5852C8.93157 75.3525 8.80078 75.0367 8.80078 74.7076C8.80078 74.3784 8.93157 74.0626 9.16434 73.8299C9.39712 73.5971 9.71282 73.4663 10.042 73.4663H45.9579C46.2871 73.4663 46.6029 73.5971 46.8356 73.8299C47.0684 74.0626 47.1992 74.3784 47.1992 74.7076C47.1992 75.0367 47.0684 75.3525 46.8356 75.5852C46.6029 75.818 46.2871 75.9488 45.9579 75.9488Z" fill="#111827"/>
<path d="M44.5966 24.524H37.9232C37.594 24.524 37.2783 24.3932 37.0455 24.1604C36.8128 23.9277 36.682 23.6119 36.682 23.2827C36.682 22.9535 36.8128 22.6378 37.0455 22.4051C37.2783 22.1723 37.594 22.0415 37.9232 22.0415H44.5966C44.9258 22.0415 45.2415 22.1723 45.4742 22.4051C45.707 22.6378 45.8378 22.9535 45.8378 23.2827C45.8378 23.6119 45.707 23.9277 45.4742 24.1604C45.2415 24.3932 44.9258 24.524 44.5966 24.524Z" fill="#111827"/>
<path d="M44.5966 33.1861H37.9232C37.594 33.1861 37.2783 33.0553 37.0455 32.8225C36.8128 32.5898 36.682 32.2741 36.682 31.9449C36.682 31.6157 36.8128 31.2999 37.0455 31.0672C37.2783 30.8344 37.594 30.7036 37.9232 30.7036H44.5966C44.9258 30.7036 45.2415 30.8344 45.4742 31.0672C45.707 31.2999 45.8378 31.6157 45.8378 31.9449C45.8378 32.2741 45.707 32.5898 45.4742 32.8225C45.2415 33.0553 44.9258 33.1861 44.5966 33.1861Z" fill="#111827"/>
<path d="M44.5966 41.5276H37.9232C37.594 41.5276 37.2783 41.3969 37.0455 41.1641C36.8128 40.9313 36.682 40.6156 36.682 40.2864C36.682 39.9572 36.8128 39.6415 37.0455 39.4087C37.2783 39.1759 37.594 39.0452 37.9232 39.0452H44.5966C44.9258 39.0452 45.2415 39.1759 45.4742 39.4087C45.707 39.6415 45.8378 39.9572 45.8378 40.2864C45.8378 40.6156 45.707 40.9313 45.4742 41.1641C45.2415 41.3969 44.9258 41.5276 44.5966 41.5276Z" fill="#111827"/>
<path d="M18.1034 24.524H11.4301C11.1009 24.524 10.7851 24.3932 10.5524 24.1604C10.3196 23.9277 10.1888 23.6119 10.1888 23.2827C10.1888 22.9535 10.3196 22.6378 10.5524 22.4051C10.7851 22.1723 11.1009 22.0415 11.4301 22.0415H18.1034C18.4326 22.0415 18.7483 22.1723 18.9811 22.4051C19.2139 22.6378 19.3446 22.9535 19.3446 23.2827C19.3446 23.6119 19.2139 23.9277 18.9811 24.1604C18.7483 24.3932 18.4326 24.524 18.1034 24.524Z" fill="#111827"/>
<path d="M18.1034 33.1861H11.4301C11.1009 33.1861 10.7851 33.0553 10.5524 32.8225C10.3196 32.5898 10.1888 32.2741 10.1888 31.9449C10.1888 31.6157 10.3196 31.2999 10.5524 31.0672C10.7851 30.8344 11.1009 30.7036 11.4301 30.7036H18.1034C18.4326 30.7036 18.7483 30.8344 18.9811 31.0672C19.2139 31.2999 19.3446 31.6157 19.3446 31.9449C19.3446 32.2741 19.2139 32.5898 18.9811 32.8225C18.7483 33.0553 18.4326 33.1861 18.1034 33.1861Z" fill="#111827"/>
<path d="M18.1034 41.5276H11.4301C11.1009 41.5276 10.7851 41.3969 10.5524 41.1641C10.3196 40.9313 10.1888 40.6156 10.1888 40.2864C10.1888 39.9572 10.3196 39.6415 10.5524 39.4087C10.7851 39.1759 11.1009 39.0452 11.4301 39.0452H18.1034C18.4326 39.0452 18.7483 39.1759 18.9811 39.4087C19.2139 39.6415 19.3446 39.9572 19.3446 40.2864C19.3446 40.6156 19.2139 40.9313 18.9811 41.1641C18.7483 41.3969 18.4326 41.5276 18.1034 41.5276Z" fill="#111827"/>
<path d="M28.0067 63.0825C23.1571 63.079 18.5069 61.1518 15.0765 57.7239C11.646 54.2959 9.71544 49.6472 9.70837 44.7976V18.7849C9.83712 14.0192 11.8208 9.49188 15.2371 6.16662C18.6534 2.84136 23.2326 0.980713 28 0.980713C32.7675 0.980713 37.3466 2.84136 40.7629 6.16662C44.1793 9.49188 46.1629 14.0192 46.2916 18.7849V44.7976C46.2846 49.6449 44.3559 54.2916 40.9283 57.7192C37.5008 61.1467 32.854 63.0754 28.0067 63.0825ZM28.0067 3.16925C23.864 3.16925 19.8907 4.81404 16.9601 7.74215C14.0294 10.6703 12.3812 14.6421 12.3777 18.7849V44.7976C12.4965 48.8618 14.1945 52.7198 17.1113 55.5525C20.0281 58.3853 23.934 59.9698 28 59.9698C32.066 59.9698 35.9719 58.3853 38.8887 55.5525C41.8055 52.7198 43.5035 48.8618 43.6223 44.7976V18.7849C43.6188 14.6444 41.9724 10.6746 39.0447 7.74686C36.1169 4.81913 32.1471 3.17279 28.0067 3.16925Z" fill="#111827"/>
<path d="M28.7541 68.8751H27.2459C21.3437 68.868 15.6854 66.5203 11.5119 62.3468C7.33845 58.1734 4.99071 52.515 4.98364 46.6128C4.98364 46.2836 5.11439 45.9679 5.34717 45.7351C5.57994 45.5024 5.89568 45.3716 6.22487 45.3716C6.55407 45.3716 6.86976 45.5024 7.10254 45.7351C7.33532 45.9679 7.46611 46.2836 7.46611 46.6128C7.46256 51.8635 9.5441 56.9008 13.2531 60.6173C16.9622 64.3339 21.9952 66.4256 27.2459 66.4326H28.7541C34.0048 66.4256 39.0378 64.3339 42.7468 60.6173C46.4559 56.9008 48.5374 51.8635 48.5338 46.6128C48.5338 46.2836 48.6646 45.9679 48.8974 45.7351C49.1302 45.5024 49.4459 45.3716 49.7751 45.3716C50.1043 45.3716 50.42 45.5024 50.6528 45.7351C50.8855 45.9679 51.0163 46.2836 51.0163 46.6128C51.0093 52.515 48.6615 58.1734 44.4881 62.3468C40.3146 66.5203 34.6562 68.868 28.7541 68.8751Z" fill="#111827"/>
<path d="M54.4998 80.4866H1.50014C1.17094 80.4866 0.855253 80.3559 0.622475 80.1231C0.389697 79.8903 0.258911 79.5746 0.258911 79.2454C0.258911 78.9162 0.389697 78.6005 0.622475 78.3677C0.855253 78.1349 1.17094 78.0042 1.50014 78.0042H54.4998C54.829 78.0042 55.1447 78.1349 55.3775 78.3677C55.6103 78.6005 55.7411 78.9162 55.7411 79.2454C55.7411 79.5746 55.6103 79.8903 55.3775 80.1231C55.1447 80.3559 54.829 80.4866 54.4998 80.4866Z" fill="#111827"/>
</g>
<defs>
<clipPath id="clip0_22_886">
<rect width="55.4821" height="80" fill="white" transform="translate(0.258911 0.5)"/>
</clipPath>
</defs>
</svg>
