<svg width="48" height="81" viewBox="0 0 48 81" fill="none" xmlns="http://www.w3.org/2000/svg">
<g clip-path="url(#clip0_22_801)">
<path d="M45.8693 59.4358V64.6317C45.8693 68.5135 44.3272 72.2363 41.5824 74.9812C38.8375 77.726 35.1147 79.2681 31.2329 79.2681H16.7672C12.8854 79.2681 9.16264 77.726 6.41778 74.9812C3.67293 72.2363 2.13086 68.5135 2.13086 64.6317V59.4358C2.13086 61.446 2.5268 63.4364 3.29606 65.2936C4.06532 67.1508 5.19283 68.8382 6.61424 70.2596C8.03565 71.681 9.72313 72.8085 11.5803 73.5778C13.4374 74.3471 15.4279 74.743 17.4381 74.743H30.562C34.6217 74.743 38.5152 73.1303 41.3859 70.2596C44.2565 67.3889 45.8693 63.4955 45.8693 59.4358Z" fill="#14B8A6"/>
<path d="M31.2328 80.5H16.7672C12.5619 80.5 8.52887 78.8295 5.55528 75.8559C2.58169 72.8823 0.911133 68.8492 0.911133 64.6439V26.4308C0.911133 22.2255 2.58169 18.1924 5.55528 15.2188C8.52887 12.2453 12.5619 10.5747 16.7672 10.5747H31.2328C35.4381 10.5747 39.4712 12.2453 42.4448 15.2188C45.4184 18.1924 47.0889 22.2255 47.0889 26.4308V64.6439C47.0889 68.8492 45.4184 72.8823 42.4448 75.8559C39.4712 78.8295 35.4381 80.5 31.2328 80.5ZM16.7672 13.0141C13.2089 13.0141 9.79631 14.4276 7.28019 16.9438C4.76408 19.4599 3.35053 22.8725 3.35053 26.4308V64.6439C3.35053 68.2022 4.76408 71.6148 7.28019 74.131C9.79631 76.6471 13.2089 78.0606 16.7672 78.0606H31.2328C34.7912 78.0606 38.2038 76.6471 40.7199 74.131C43.236 71.6148 44.6495 68.2022 44.6495 64.6439V26.4308C44.6495 22.8725 43.236 19.4599 40.7199 16.9438C38.2038 14.4276 34.7912 13.0141 31.2328 13.0141H16.7672Z" fill="#111827"/>
<path d="M24 38.2862C22.8203 38.2829 21.6898 37.8129 20.8556 36.9787C20.0214 36.1445 19.5513 35.014 19.5481 33.8343V24.3572C19.5165 23.7538 19.608 23.1502 19.8172 22.5833C20.0263 22.0164 20.3487 21.4981 20.7646 21.0598C21.1806 20.6215 21.6814 20.2724 22.2365 20.0339C22.7917 19.7954 23.3897 19.6724 23.9939 19.6724C24.5982 19.6724 25.1961 19.7954 25.7513 20.0339C26.3064 20.2724 26.8072 20.6215 27.2232 21.0598C27.6391 21.4981 27.9615 22.0164 28.1706 22.5833C28.3798 23.1502 28.4713 23.7538 28.4397 24.3572V33.8343C28.4397 35.0129 27.9723 36.1434 27.1401 36.9779C26.3078 37.8125 25.1786 38.2829 24 38.2862ZM24 22.3447C23.7357 22.3447 23.474 22.3968 23.2299 22.4979C22.9857 22.599 22.7638 22.7473 22.5769 22.9341C22.3901 23.121 22.2418 23.3429 22.1407 23.5871C22.0396 23.8312 21.9875 24.0929 21.9875 24.3572V33.8343C21.9659 34.1109 22.0018 34.389 22.0928 34.6511C22.1839 34.9132 22.3281 35.1537 22.5165 35.3574C22.7049 35.5611 22.9335 35.7236 23.1877 35.8348C23.442 35.9459 23.7164 36.0033 23.9939 36.0033C24.2714 36.0033 24.5459 35.9459 24.8001 35.8348C25.0544 35.7236 25.2828 35.5611 25.4713 35.3574C25.6597 35.1537 25.804 34.9132 25.895 34.6511C25.986 34.389 26.0219 34.1109 26.0003 33.8343V24.3572C26.0019 24.0935 25.9514 23.8321 25.8516 23.588C25.7518 23.3439 25.6047 23.1219 25.4187 22.9349C25.2328 22.7478 25.0118 22.5994 24.7683 22.4981C24.5248 22.3968 24.2637 22.3447 24 22.3447Z" fill="#111827"/>
<path d="M24 22.2594C23.8506 22.261 23.7023 22.2328 23.564 22.1764C23.4256 22.1199 23.2999 22.0364 23.1943 21.9308C23.0886 21.8251 23.0051 21.6994 22.9487 21.5611C22.8923 21.4227 22.864 21.2745 22.8657 21.1251V8.92808H8.40006C8.09922 8.92808 7.81068 8.80857 7.59796 8.59584C7.38523 8.38312 7.26575 8.0946 7.26575 7.79376V1.58549C7.26575 1.28465 7.38523 0.996134 7.59796 0.783408C7.81068 0.570682 8.09922 0.451172 8.40006 0.451172C8.7009 0.451172 8.9894 0.570682 9.20212 0.783408C9.41485 0.996134 9.53437 1.28465 9.53437 1.58549V6.65944H24C24.149 6.65944 24.2965 6.68877 24.4341 6.74578C24.5717 6.80278 24.6967 6.88634 24.8021 6.99167C24.9074 7.097 24.991 7.22205 25.048 7.35967C25.105 7.4973 25.1343 7.6448 25.1343 7.79376V21.0763C25.1409 21.2293 25.1164 21.382 25.0624 21.5254C25.0083 21.6687 24.9258 21.7995 24.8198 21.9101C24.7138 22.0206 24.5865 22.1086 24.4456 22.1686C24.3047 22.2286 24.1532 22.2595 24 22.2594Z" fill="#111827"/>
<path d="M27.22 25.5037H20.7434C20.4426 25.5037 20.1541 25.3842 19.9413 25.1715C19.7286 24.9588 19.6091 24.6703 19.6091 24.3694C19.6091 24.0686 19.7286 23.7801 19.9413 23.5673C20.1541 23.3546 20.4426 23.2351 20.7434 23.2351H27.1957C27.4965 23.2351 27.785 23.3546 27.9977 23.5673C28.2104 23.7801 28.33 24.0686 28.33 24.3694C28.33 24.6703 28.2104 24.9588 27.9977 25.1715C27.785 25.3842 27.4965 25.5037 27.1957 25.5037H27.22Z" fill="#111827"/>
<path d="M27.22 30.2362H20.7434C20.4426 30.2362 20.1541 30.1167 19.9413 29.9039C19.7286 29.6912 19.6091 29.4027 19.6091 29.1018C19.6091 28.801 19.7286 28.5125 19.9413 28.2998C20.1541 28.087 20.4426 27.9675 20.7434 27.9675H27.1957C27.4965 27.9675 27.785 28.087 27.9977 28.2998C28.2104 28.5125 28.33 28.801 28.33 29.1018C28.33 29.4027 28.2104 29.6912 27.9977 29.9039C27.785 30.1167 27.4965 30.2362 27.1957 30.2362H27.22Z" fill="#111827"/>
<path d="M27.22 35.1639H20.7434C20.4426 35.1639 20.1541 35.0444 19.9413 34.8317C19.7286 34.6189 19.6091 34.3304 19.6091 34.0296C19.6091 33.7288 19.7286 33.4402 19.9413 33.2275C20.1541 33.0148 20.4426 32.8953 20.7434 32.8953H27.1957C27.4965 32.8953 27.785 33.0148 27.9977 33.2275C28.2104 33.4402 28.33 33.7288 28.33 34.0296C28.33 34.3304 28.2104 34.6189 27.9977 34.8317C27.785 35.0444 27.4965 35.1639 27.1957 35.1639H27.22Z" fill="#111827"/>
<path d="M24.0001 41.7991C23.6992 41.7991 23.4107 41.6796 23.198 41.4668C22.9852 41.2541 22.8657 40.9656 22.8657 40.6647V37.0056C22.8657 36.7048 22.9852 36.4163 23.198 36.2036C23.4107 35.9908 23.6992 35.8713 24.0001 35.8713C24.3009 35.8713 24.5894 35.9908 24.8021 36.2036C25.0149 36.4163 25.1344 36.7048 25.1344 37.0056V40.6647C25.1344 40.8137 25.105 40.9612 25.048 41.0988C24.991 41.2365 24.9075 41.3615 24.8021 41.4668C24.6968 41.5722 24.5718 41.6557 24.4342 41.7127C24.2965 41.7697 24.149 41.7991 24.0001 41.7991Z" fill="#111827"/>
</g>
<defs>
<clipPath id="clip0_22_801">
<rect width="46.1778" height="80" fill="white" transform="translate(0.911133 0.5)"/>
</clipPath>
</defs>
</svg>
