<svg width="72" height="81" viewBox="0 0 72 81" fill="none" xmlns="http://www.w3.org/2000/svg">
<g clip-path="url(#clip0_22_915)">
<path d="M70.4148 34.4924H37.7836V43.2927H70.4148V34.4924Z" fill="#14B8A6"/>
<path d="M34.2048 63.9673V67.3935C34.2063 68.9616 33.8988 70.5146 33.2998 71.9637C32.7008 73.4129 31.822 74.7297 30.7138 75.8391C29.6055 76.9484 28.2895 77.8284 26.8409 78.4289C25.3924 79.0293 23.8397 79.3384 22.2716 79.3384H13.5183C10.3504 79.3384 7.31212 78.0799 5.07202 75.8398C2.83193 73.5997 1.57349 70.5615 1.57349 67.3935V63.979C1.57659 67.0371 2.79278 69.9691 4.95518 72.1315C7.11759 74.2939 10.0495 75.5101 13.1076 75.5132H22.6706C24.1862 75.5132 25.6871 75.2145 27.0872 74.6341C28.4874 74.0537 29.7594 73.203 30.8306 72.1308C31.9018 71.0585 32.7512 69.7856 33.3301 68.3848C33.9091 66.9841 34.2063 65.483 34.2048 63.9673Z" fill="#14B8A6"/>
<path d="M28.2909 19.1448H6.90051V20.9283H28.2909V19.1448Z" fill="#14B8A6"/>
<path d="M22.2717 80.5H13.5184C10.0442 80.4938 6.71413 79.111 4.25753 76.6544C1.80093 74.1978 0.418069 70.8677 0.411865 67.3935V21.0691H35.3782V67.3935C35.372 70.8677 33.9891 74.1978 31.5325 76.6544C29.0759 79.111 25.7458 80.4938 22.2717 80.5ZM2.75859 23.4158V67.3935C2.75859 70.2483 3.89185 72.9863 5.90936 75.006C7.92687 77.0257 10.6636 78.1619 13.5184 78.165H22.2717C25.1264 78.1619 27.8631 77.0257 29.8807 75.006C31.8982 72.9863 33.0314 70.2483 33.0314 67.3935V23.4158H2.75859Z" fill="#111827"/>
<path d="M71.5881 35.7127H36.6101V13.6534C36.607 11.9297 36.9437 10.2223 37.6008 8.62879C38.258 7.03527 39.2227 5.58687 40.4399 4.3664C41.6571 3.14592 43.1029 2.1773 44.6947 1.51589C46.2864 0.85448 47.9929 0.513258 49.7166 0.511719H58.5051C61.9802 0.514826 65.3121 1.89668 67.7694 4.35395C70.2266 6.81122 71.6085 10.1431 71.6116 13.6182L71.5881 35.7127ZM38.9569 33.3659H69.2414V13.6534C69.2476 10.7986 68.1204 8.05818 66.1072 6.03407C64.0941 4.00996 61.3599 2.86777 58.5051 2.85845H49.7401C46.8874 2.86155 44.1524 3.99616 42.1352 6.01333C40.1181 8.03051 38.9834 10.7655 38.9803 13.6182L38.9569 33.3659Z" fill="#111827"/>
<path d="M29.4644 23.4158H6.74805V0.699463H29.4644V23.4158ZM9.09478 21.0691H27.1176V3.04619H9.09478V21.0691Z" fill="#111827"/>
<path d="M35.1787 27.2293H0.411865V21.0691H35.1787V27.2293ZM2.75859 24.8825H32.8319V23.4158H2.75859V24.8825Z" fill="#111827"/>
<path d="M23.445 10.0512C23.1556 10.0512 22.878 9.9362 22.6734 9.73156C22.4687 9.52691 22.3538 9.24934 22.3538 8.95993V4.68889C22.3538 4.39947 22.4687 4.12192 22.6734 3.91727C22.878 3.71263 23.1556 3.59766 23.445 3.59766C23.7344 3.59766 24.012 3.71263 24.2166 3.91727C24.4213 4.12192 24.5362 4.39947 24.5362 4.68889V8.95993C24.5362 9.24934 24.4213 9.52691 24.2166 9.73156C24.012 9.9362 23.7344 10.0512 23.445 10.0512Z" fill="#111827"/>
<path d="M12.2863 10.0512C12.143 10.0512 12.0011 10.0229 11.8687 9.9681C11.7363 9.91327 11.616 9.83289 11.5147 9.73156C11.4134 9.63023 11.333 9.50992 11.2781 9.37753C11.2233 9.24513 11.1951 9.10323 11.1951 8.95993V4.68889C11.1951 4.39947 11.31 4.12192 11.5147 3.91727C11.7193 3.71263 11.9969 3.59766 12.2863 3.59766C12.5757 3.59766 12.8533 3.71263 13.0579 3.91727C13.2626 4.12192 13.3775 4.39947 13.3775 4.68889V8.95993C13.3775 9.24934 13.2626 9.52691 13.0579 9.73156C12.8533 9.9362 12.5757 10.0512 12.2863 10.0512Z" fill="#111827"/>
<path d="M71.5881 44.466H36.6101V33.366H71.5881V44.466ZM38.9568 42.1193H69.2414V35.7127H38.9568V42.1193Z" fill="#111827"/>
</g>
<defs>
<clipPath id="clip0_22_915">
<rect width="71.1763" height="80" fill="white" transform="translate(0.411865 0.5)"/>
</clipPath>
</defs>
</svg>
