<svg width="102" height="81" viewBox="0 0 102 81" fill="none" xmlns="http://www.w3.org/2000/svg">
<g clip-path="url(#clip0_22_1156)">
<path d="M94.8946 6.44043H7.10522V11.0019H94.8946V6.44043Z" fill="#14B8A6"/>
<path d="M64.6919 70.0133L33.489 70.1194L35.2772 65.9519H63.3735L64.6919 70.0133Z" fill="#14B8A6"/>
<path d="M101.608 67.4824H0.391846V0.5H101.608V67.4824ZM3.42272 64.4515H98.5771V3.53088H3.42272V64.4515Z" fill="#111827"/>
<path d="M96.4404 63.0421H5.58984V4.92505H96.4404V63.0421ZM8.65103 60.0112H93.4095V7.95593H8.62072L8.65103 60.0112Z" fill="#111827"/>
<path d="M74.815 80.3788H23.3962C23.0224 80.3788 22.6639 80.2303 22.3996 79.966C22.1353 79.7017 21.9868 79.3432 21.9868 78.9694C21.9868 78.5956 22.1353 78.2372 22.3996 77.9729C22.6639 77.7085 23.0224 77.5601 23.3962 77.5601H74.815C75.1888 77.5601 75.5473 77.7085 75.8116 77.9729C76.0759 78.2372 76.2244 78.5956 76.2244 78.9694C76.2244 79.3432 76.0759 79.7017 75.8116 79.966C75.5473 80.2303 75.1888 80.3788 74.815 80.3788Z" fill="#111827"/>
<path d="M69.6777 80.4848H28.5336L33.7467 64.4514H64.4798L69.6777 80.4848ZM32.701 77.4539H65.5103L62.2672 67.4823H35.9441L32.701 77.4539Z" fill="#111827"/>
</g>
<defs>
<clipPath id="clip0_22_1156">
<rect width="101.216" height="80" fill="white" transform="translate(0.391846 0.5)"/>
</clipPath>
</defs>
</svg>
